<?xml version="1.0" encoding="utf-8"?>
<!-- Generator: Adobe Illustrator 24.1.2, SVG Export Plug-In . SVG Version: 6.00 Build 0)  -->
<svg version="1.1" id="Layer_1" xmlns="http://www.w3.org/2000/svg" xmlns:xlink="http://www.w3.org/1999/xlink" x="0px" y="0px"
	 viewBox="0 0 423.44 449.86" style="enable-background:new 0 0 423.44 449.86;" xml:space="preserve">
<style type="text/css">
	.st0{clip-path:url(#SVGID_2_);}
</style>
<g>
	<defs>
		<rect id="SVGID_1_" width="423.44" height="449.86"/>
	</defs>
	<clipPath id="SVGID_2_">
		<use xlink:href="#SVGID_1_"  style="overflow:visible;"/>
	</clipPath>
	<path fill="#005fcb" class="st0" d="M192.12,352.13c3.08,0,5.58-2.51,5.57-5.59c0-0.71-0.14-1.42-0.4-2.08l-39.12-96.93
		c-1.15-2.85-4.4-4.24-7.26-3.08s-4.24,4.4-3.08,7.26l39.12,96.93C187.8,350.75,189.85,352.13,192.12,352.13"/>
	<path fill="#005fcb" class="st0" d="M168.17,388.77c-1.61,4.24-1.45,8.95,0.43,13.08l5.05,11.13c3.7,8.15,13.06,12.07,21.47,8.98l5.87,13
		c4.15,9.08,13.21,14.91,23.2,14.9c3.41,0,6.78-0.69,9.91-2.04c12.43-5.33,18.47-19.5,13.71-32.17l-62.34-166.41
		c-1.06-2.89-4.26-4.38-7.15-3.32s-4.38,4.26-3.32,7.15c0.01,0.03,0.02,0.05,0.03,0.08l62.34,166.41
		c2.74,7.34-0.98,15.52-8.32,18.26c-7,2.61-14.82-0.64-17.9-7.45l-8.15-18.05c-1.27-2.81-4.57-4.05-7.38-2.79c0,0-0.01,0-0.01,0
		l-3.94,1.79c-2.99,1.36-6.51,0.03-7.87-2.96l-5.05-11.13c-1.36-2.99-0.03-6.51,2.96-7.86c0,0,0,0,0,0l4-1.82
		c2.8-1.27,4.04-4.57,2.78-7.37l-12.25-27.14c-1.27-2.81-4.57-4.05-7.37-2.79c0,0-0.01,0-0.01,0.01l-4.06,1.84
		c-2.99,1.35-6.51,0.03-7.87-2.96l-5.05-11.13c-1.35-2.99-0.03-6.51,2.96-7.87l4.12-1.87c2.8-1.27,4.05-4.57,2.78-7.37L151.6,298.4
		c-1.23-2.71-4.36-3.98-7.13-2.89l-5.79,2.29c-3.05,1.2-6.51-0.3-7.71-3.35l-4.49-11.37c-1.2-3.05,0.29-6.51,3.35-7.71c0,0,0,0,0,0
		l4.22-1.67c2.86-1.13,4.27-4.37,3.14-7.24c-0.03-0.08-0.07-0.16-0.1-0.24l-5.38-11.91c-0.99-2.21-3.3-3.52-5.7-3.25
		c-47.61,5.28-90.48-29.03-95.76-76.64c-3.09-27.87,7.48-55.52,28.39-74.21c2.32-2.03,2.55-5.55,0.53-7.87
		c-2.03-2.32-5.55-2.55-7.87-0.53c-0.03,0.03-0.06,0.05-0.09,0.08c-40.31,35.98-43.82,97.83-7.84,138.15
		c20.15,22.58,49.62,34.56,79.82,32.45l1.36,3.01c-8.03,3.91-11.7,13.34-8.43,21.65l4.49,11.37c3.47,8.77,13.39,13.08,22.18,9.63
		l0.85-0.34l5.69,12.62c-7.98,4.23-11.3,13.94-7.57,22.17l5.05,11.13c3.72,8.2,13.16,12.11,21.58,8.94l7.69,17.05
		C172.42,381.68,169.62,384.89,168.17,388.77"/>
	<path fill="#005fcb" class="st0" d="M265.7,170.5c-1.77,2.52-1.17,6,1.34,7.77l139.22,98.19c6.4,4.53,7.91,13.38,3.39,19.78
		c-4.31,6.09-12.6,7.8-18.97,3.92l-16.9-10.33c-2.63-1.61-6.06-0.78-7.67,1.85c0,0,0,0,0,0.01l-2.25,3.7
		c-1.71,2.8-5.36,3.69-8.17,1.98l-10.44-6.36c-2.8-1.71-3.69-5.36-1.98-8.17l2.29-3.76c1.6-2.63,0.77-6.05-1.85-7.66l-25.4-15.54
		c-2.63-1.61-6.06-0.78-7.67,1.85c0,0,0,0,0,0.01l-2.32,3.81c-1.71,2.8-5.36,3.69-8.17,1.99l-10.44-6.36
		c-2.8-1.71-3.69-5.36-1.99-8.17l2.35-3.86c1.6-2.63,0.77-6.05-1.85-7.66l-21.07-12.88c-2.54-1.55-5.85-0.84-7.52,1.62l-3.5,5.15
		c-1.85,2.71-5.54,3.42-8.26,1.58l-10.11-6.87c-2.71-1.85-3.42-5.54-1.57-8.26l2.55-3.75c1.73-2.55,1.07-6.01-1.48-7.75
		c-0.07-0.05-0.15-0.1-0.22-0.14l-11.15-6.82c-2.06-1.26-4.71-1.05-6.54,0.53c-36.33,31.18-91.07,27-122.25-9.33
		c-31.18-36.33-27.01-91.07,9.33-122.25c3.15-2.71,6.5-5.18,10.01-7.41c2.61-1.64,3.39-5.08,1.76-7.69
		c-1.64-2.61-5.08-3.39-7.69-1.76c-0.02,0.01-0.03,0.02-0.05,0.03c-45.65,28.93-59.2,89.38-30.27,135.03
		c28.93,45.64,89.38,59.2,135.03,30.27c2.85-1.8,5.6-3.75,8.24-5.84l2.82,1.72c-4.44,7.75-2.16,17.61,5.23,22.63l10.11,6.87
		c7.81,5.29,18.43,3.27,23.75-4.53l0.51-0.76l11.81,7.22c-4.21,7.99-1.48,17.88,6.23,22.58l10.44,6.36
		c7.69,4.68,17.69,2.6,22.87-4.76l15.95,9.76c-4.14,7.98-1.39,17.8,6.28,22.47l10.44,6.36c7.65,4.65,17.59,2.62,22.8-4.66
		l12.17,7.44c3.95,2.42,8.49,3.69,13.13,3.69c13.98,0.07,25.37-11.2,25.45-25.18c0.04-8.29-3.97-16.07-10.75-20.84l-139.22-98.19
		C270.96,167.39,267.48,167.99,265.7,170.5C265.71,170.5,265.71,170.5,265.7,170.5"/>
	<path fill="#005fcb" class="st0" d="M22.49,117.47c2.45-1.85,2.94-5.35,1.09-7.8c0,0,0,0,0,0C3.12,82.56,8.51,44.01,35.62,23.56
		C62.72,3.1,101.27,8.5,121.72,35.6c8.05,10.67,12.4,23.67,12.4,37.03c0,3.1-0.24,6.19-0.71,9.25
		c-21.57,0.32-38.79,18.05-38.48,39.62c0.31,21.57,18.05,38.79,39.62,38.48c21.57-0.32,38.79-18.05,38.48-39.62
		c-0.15-10.32-4.38-20.16-11.77-27.37c-2.2-2.15-5.73-2.11-7.88,0.09c-2.15,2.2-2.11,5.73,0.09,7.88
		c11.05,10.77,11.28,28.45,0.51,39.5c-10.76,11.05-28.45,11.28-39.5,0.51c-11.05-10.76-11.28-28.45-0.51-39.5
		c4.43-4.55,10.28-7.45,16.58-8.23c-2.77,7.8-7.09,14.96-12.7,21.04c-2.09,2.26-1.94,5.79,0.32,7.88c2.26,2.09,5.79,1.94,7.88-0.32
		c17.82-19.33,23.79-46.78,15.61-71.77c46.44-11.71,93.57,16.44,105.28,62.88c3.8,15.09,3.48,30.93-0.95,45.85
		c-0.01,0.02-0.01,0.04-0.01,0.06c-2.27,7.65-5.58,14.94-9.86,21.68c-1.62,2.56-0.91,5.94,1.61,7.62l86.91,58.08
		c2.56,1.71,6.02,1.02,7.74-1.54c1.71-2.56,1.02-6.02-1.54-7.74l-82.5-55.14c3.82-6.82,6.8-14.08,8.88-21.62
		c0.04-0.13,0.04-0.25,0.06-0.38c14.18-52.17-16.62-105.95-68.79-120.13c-16.75-4.55-34.42-4.57-51.18-0.04
		C119.13,3.94,75.41-10.28,39.67,7.93C3.94,26.13-10.28,69.86,7.93,105.59c1.93,3.79,4.19,7.4,6.75,10.79
		C16.53,118.84,20.03,119.33,22.49,117.47C22.49,117.47,22.49,117.47,22.49,117.47"/>
</g>
</svg>
