<?xml version="1.0" encoding="utf-8"?>
<!-- Generator: Adobe Illustrator 24.1.2, SVG Export Plug-In . SVG Version: 6.00 Build 0)  -->
<svg version="1.1" id="Layer_1" xmlns="http://www.w3.org/2000/svg" xmlns:xlink="http://www.w3.org/1999/xlink" x="0px" y="0px"
	 viewBox="0 0 42 58" style="enable-background:new 0 0 42 58;" xml:space="preserve">
<style type="text/css">
	.st0{clip-path:url(#SVGID_2_);}
</style>
<g>
	<defs>
		<rect id="SVGID_1_" width="42" height="58"/>
	</defs>
	<clipPath id="SVGID_2_">
		<use xlink:href="#SVGID_1_"  style="overflow:visible;"/>
	</clipPath>
	<path fill="#005fcb" class="st0" d="M35.34,39.45C35.12,39,35,38.5,35,38c0-1.1-0.9-2-2-2h-1v-7c0-0.55-0.45-1-1-1s-1,0.45-1,1v7h-1
		c-1.11,0-2,0.9-2,2v0.38c0,2,1.62,3.62,3.62,3.62H35c0.55,0,1-0.45,1-1c0-0.15-0.04-0.31-0.11-0.45L35.34,39.45z M30.62,40
		C29.72,40,29,39.28,29,38.38V38h4c0,0.69,0.14,1.37,0.4,2H30.62z"/>
	<path fill="#005fcb" class="st0" d="M3,58h38c0.55,0,1-0.45,1-1V15c0-0.03-0.01-0.05-0.01-0.08c-0.02-0.13-0.05-0.26-0.11-0.38
		c-0.01-0.02-0.01-0.05-0.03-0.07L37,6.71V1c0-0.55-0.45-1-1-1H26c-0.55,0-1,0.45-1,1v5.71l-4.85,7.76
		c-0.01,0.02-0.02,0.05-0.03,0.07c-0.06,0.12-0.09,0.25-0.11,0.38c0,0.03-0.01,0.05-0.01,0.08v5.39l-1.14-1.9
		C18.68,18.19,18.35,18,18,18h-2v-5c0-0.55-0.45-1-1-1H5c-0.55,0-1,0.45-1,1v5.1c-2.33,0.48-4,2.53-4,4.9v32C0,56.66,1.34,58,3,58
		 M27,2h8v4h-8V2z M26.55,8h8.89l3.75,6H22.8L26.55,8z M22,16h18v6H22V16z M22,24h18v24H22V24z M22,50h18v6H22V50z M6,14h8v4H6V14z
		 M2,28h10v22H2V28z M2,52h11c0.55,0,1-0.45,1-1V27c0-0.55-0.45-1-1-1H2v-3c0-1.66,1.34-3,3-3h12.43L20,24.28V56H3
		c-0.55,0-1-0.45-1-1V52z"/>
</g>
</svg>
