<?xml version="1.0" encoding="utf-8"?>
<!-- Generator: Adobe Illustrator 24.1.2, SVG Export Plug-In . SVG Version: 6.00 Build 0)  -->
<svg version="1.1" id="Layer_1" xmlns="http://www.w3.org/2000/svg" xmlns:xlink="http://www.w3.org/1999/xlink" x="0px" y="0px"
	 viewBox="0 0 70.5 69" style="enable-background:new 0 0 70.5 69;" xml:space="preserve">
<style type="text/css">
	.st0{clip-path:url(#SVGID_2_);}
</style>
<g>
	<defs>
		<rect fill="#005fcb" id="SVGID_1_" y="0" width="70.5" height="69"/>
	</defs>
	<clipPath id="SVGID_2_">
		<use xlink:href="#SVGID_1_"  style="overflow:visible;"/>
	</clipPath>
	<path fill="#005fcb" class="st0" d="M56.02,42.65L38.9,47.13c0.06-0.33,0.1-0.68,0.1-1.03c0-3.03-2.47-5.5-5.5-5.5H11v-3c0-0.55-0.45-1-1-1H1
		c-0.55,0-1,0.45-1,1v25c0,0.55,0.45,1,1,1h9c0.55,0,1-0.45,1-1v-2.54l20.18,7.85c1.52,0.73,3.16,1.1,4.79,1.1
		c2.27,0,4.52-0.7,6.41-2.07l27.66-18c0.23-0.15,0.39-0.38,0.44-0.65c0.05-0.27-0.01-0.55-0.17-0.77
		C67.07,42.98,61.32,41.03,56.02,42.65 M9,61.6H2v-23h7v3v9V61.6z M41.25,65.29c-2.69,1.94-6.21,2.26-9.27,0.79L11,57.92V50.6v-8
		h22.5c1.93,0,3.5,1.57,3.5,3.5c0,1.93-1.57,3.5-3.5,3.5H22c-0.55,0-1,0.45-1,1c0,0.55,0.45,1,1,1h11.5c1.76,0,3.32-0.83,4.33-2.12
		l18.74-4.9c4.17-1.28,8.65,0.04,11.47,3.28L41.25,65.29z M22.25,18c0,9.93,8.08,18,18,18s18-8.07,18-18s-8.08-18-18-18
		S22.25,8.08,22.25,18 M56.25,18c0,8.82-7.18,16-16,16s-16-7.18-16-16s7.18-16,16-16S56.25,9.18,56.25,18"/>
	<path fill="#005fcb" class="st0" d="M40.15,9.08c2.24,0,3.88,0.52,4.91,1.55c0.96,0.96,1.44,2.2,1.44,3.72c0,1.46-0.46,2.64-1.39,3.53
		c-1.05,1.04-2.54,1.55-4.47,1.55h-1.8v2.44h4.55v1.55h-4.55v4.16H36.8v-4.16h-2.11v-1.55h2.11v-2.44h-2.11V17.6h2.11V9.08H40.15z
		 M38.85,11.02v6.58h1.69c1.39,0,2.42-0.36,3.11-1.08c0.54-0.59,0.8-1.37,0.8-2.33c0-0.89-0.26-1.59-0.78-2.11
		c-0.69-0.7-1.79-1.06-3.3-1.06H38.85z"/>
</g>
</svg>
