<?xml version="1.0" encoding="utf-8"?>
<!-- Generator: Adobe Illustrator 24.1.2, SVG Export Plug-In . SVG Version: 6.00 Build 0)  -->
<svg version="1.1" id="Layer_1" xmlns="http://www.w3.org/2000/svg" xmlns:xlink="http://www.w3.org/1999/xlink" x="0px" y="0px"
	 viewBox="0 0 59.99 56" style="enable-background:new 0 0 59.99 56;" xml:space="preserve">
<style type="text/css">
	.st0{clip-path:url(#SVGID_2_);}
</style>
<g>
	<defs>
		<rect id="SVGID_1_" y="0" width="59.99" height="56"/>
	</defs>
	<clipPath id="SVGID_2_">
		<use xlink:href="#SVGID_1_"  style="overflow:visible;"/>
	</clipPath>
	<path fill="#005fcb" class="st0" d="M37.99,37c-0.55,0-1,0.45-1,1l0.08,4H5.99V23.03c0.05-0.01,15.44-9.48,15.5-9.51
		c0.1,0.05,15.41,9.47,15.5,9.51V24c0.01,0.55,0.47,0.99,1.02,0.98c0.54-0.01,0.97-0.44,0.98-0.98v-0.42c2.22-0.01,4-1.82,3.99-4.03
		c-0.01-1.37-0.72-2.65-1.88-3.38L30.57,9.71l1.94-1.19c0.1,0.06,15.41,9.47,15.5,9.51V24c0.01,0.55,0.47,0.99,1.02,0.98
		c0.54-0.01,0.97-0.44,0.98-0.98v-5.41c2.22-0.01,4-1.81,3.99-4.03c-0.01-1.37-0.72-2.65-1.88-3.38l-17-10.44
		c-1.6-0.99-3.62-0.99-5.23,0l-7.18,4.42c-1.3-0.33-2.69-0.12-3.84,0.58l-17,10.44C0,17.35-0.56,19.82,0.61,21.7
		c0.73,1.16,2,1.87,3.38,1.88V42c-0.02,1.08,0.84,1.98,1.92,2h31.16c1.08-0.02,1.94-0.92,1.92-2v-4C38.99,37.45,38.54,37,37.99,37
		 M30.94,2.45c0.96-0.59,2.17-0.59,3.13,0l17,10.44c0.93,0.59,1.22,1.82,0.63,2.76c-0.58,0.92-1.79,1.21-2.72,0.65L33.03,6.5
		c-0.32-0.2-0.72-0.2-1.04,0l-3.33,2.04L24.84,6.2L30.94,2.45z M2.26,20.63c-0.57-0.94-0.28-2.17,0.66-2.75l17-10.44
		c0.96-0.59,2.17-0.59,3.14,0l17,10.44c0.94,0.58,1.23,1.81,0.66,2.75c-0.59,0.92-1.81,1.21-2.75,0.66L22.01,11.5
		c-0.32-0.2-0.73-0.2-1.05,0L5.01,21.29C4.07,21.87,2.84,21.57,2.26,20.63"/>
	<path fill="#005fcb" class="st0" d="M56.99,30H55.9c-0.28-1.51-1.1-2.86-2.31-3.8c-0.17-0.13-0.38-0.2-0.6-0.2h-23c-0.22,0-0.43,0.07-0.6,0.2
		c-4.23,3.32-2.07,9.03,0.6,9.8h23c1.86-0.49,2.73-3.03,2.9-4h1.1c0.55,0,1,0.45,1,1v4c0,0.55-0.45,1-1,1h-13c-0.55,0-1,0.45-1,1v3
		c-1.66,0-3,1.34-3,3v8c0,1.66,1.34,3,3,3h2c1.66,0,3-1.34,3-3v-8c0-1.66-1.34-3-3-3v-2h12c1.66,0,3-1.34,3-3v-4
		C59.99,31.35,58.65,30.01,56.99,30 M52.64,34H30.35c-1.66-1.44-1.84-3.95-0.4-5.61c0.12-0.14,0.25-0.27,0.39-0.39h22.28
		c1.66,1.44,1.84,3.95,0.4,5.61C52.91,33.75,52.78,33.88,52.64,34 M45.99,45v8c0,0.55-0.45,1-1,1h-2c-0.55,0-1-0.45-1-1v-8
		c0-0.55,0.45-1,1-1h2C45.54,44,45.99,44.45,45.99,45"/>
</g>
</svg>
