<?xml version="1.0" encoding="utf-8"?>
<!-- Generator: Adobe Illustrator 24.1.2, SVG Export Plug-In . SVG Version: 6.00 Build 0)  -->
<svg version="1.1" id="Layer_1" xmlns="http://www.w3.org/2000/svg" xmlns:xlink="http://www.w3.org/1999/xlink" x="0px" y="0px"
	 viewBox="0 0 32 32" style="enable-background:new 0 0 32 32;" xml:space="preserve">
<path fill="#005fcb" d="M7.99,7.93C6.34,7.93,5,9.27,5,10.92v1.07H2v1h7.98V27h1v-5.07h7V27h1v-6h1.15c0.28,0,0.5-0.22,0.5-0.5s-0.22-0.5-0.5-0.5
	h-1h-0.15v-3h1.52c0.28,0,0.5-0.22,0.5-0.5S20.78,16,20.5,16h-0.38h-0.25h-0.89v-3.01H30v-1H18.98v-1.07c0-1.65-1.34-2.99-2.99-2.99
	c-1.65,0-2.99,1.34-2.99,2.99v1.07h-2.02v-1.07C10.98,9.27,9.64,7.93,7.99,7.93z M7.99,8.93c1.11,0,1.99,0.88,1.99,1.99v1.07H6
	v-1.07C6,9.81,6.88,8.93,7.99,8.93z M15.99,8.93c1.11,0,1.99,0.88,1.99,1.99v1.07H14v-1.07C14,9.81,14.88,8.93,15.99,8.93z
	 M10.98,12.99h7v1.94h-7V12.99z M5.5,14C5.22,14,5,14.22,5,14.5S5.22,15,5.5,15h1.63c0.28,0,0.5-0.22,0.5-0.5S7.41,14,7.13,14h-1
	H5.88H5.5z M8.5,14C8.23,14,8,14.22,8,14.5S8.23,15,8.5,15S9,14.78,9,14.5S8.78,14,8.5,14z M20.5,14c-0.28,0-0.5,0.22-0.5,0.5
	s0.22,0.5,0.5,0.5h1.63c0.28,0,0.5-0.22,0.5-0.5s-0.22-0.5-0.5-0.5h-1h-0.25H20.5z M23.5,14c-0.28,0-0.5,0.22-0.5,0.5
	s0.22,0.5,0.5,0.5s0.5-0.22,0.5-0.5S23.78,14,23.5,14z M26.5,14c-0.28,0-0.5,0.22-0.5,0.5s0.22,0.5,0.5,0.5h1.63
	c0.28,0,0.5-0.22,0.5-0.5s-0.22-0.5-0.5-0.5h-1h-0.25H26.5z M29.5,14c-0.28,0-0.5,0.22-0.5,0.5s0.22,0.5,0.5,0.5s0.5-0.22,0.5-0.5
	S29.78,14,29.5,14z M10.98,15.93h7v2h-7V15.93z M2.5,16C2.22,16,2,16.22,2,16.5S2.22,17,2.5,17S3,16.78,3,16.5S2.78,16,2.5,16z
	 M3.87,16c-0.28,0-0.5,0.22-0.5,0.5S3.59,17,3.87,17H5.5C5.78,17,6,16.78,6,16.5S5.78,16,5.5,16H5.12H4.87H3.87z M23.5,16
	c-0.28,0-0.5,0.22-0.5,0.5s0.22,0.5,0.5,0.5s0.5-0.22,0.5-0.5S23.77,16,23.5,16z M24.87,16c-0.28,0-0.5,0.22-0.5,0.5
	s0.22,0.5,0.5,0.5h1.63c0.28,0,0.5-0.22,0.5-0.5S26.78,16,26.5,16h-0.38h-0.25H24.87z M5.5,18C5.22,18,5,18.22,5,18.5
	S5.22,19,5.5,19S6,18.78,6,18.5S5.77,18,5.5,18z M6.87,18c-0.28,0-0.5,0.22-0.5,0.5S6.59,19,6.87,19H8.5C8.78,19,9,18.78,9,18.5
	S8.78,18,8.5,18H8.12H7.87H6.87z M20.5,18c-0.28,0-0.5,0.22-0.5,0.5s0.22,0.5,0.5,0.5s0.5-0.22,0.5-0.5S20.77,18,20.5,18z M21.87,18
	c-0.28,0-0.5,0.22-0.5,0.5s0.22,0.5,0.5,0.5h1.63c0.28,0,0.5-0.22,0.5-0.5S23.78,18,23.5,18h-0.38h-0.25H21.87z M26.5,18
	c-0.28,0-0.5,0.22-0.5,0.5s0.22,0.5,0.5,0.5s0.5-0.22,0.5-0.5S26.77,18,26.5,18z M27.87,18c-0.28,0-0.5,0.22-0.5,0.5
	s0.22,0.5,0.5,0.5h1.63c0.28,0,0.5-0.22,0.5-0.5S29.78,18,29.5,18h-0.38h-0.25H27.87z M10.98,18.93h7v2h-7V18.93z M3.5,20
	C3.22,20,3,20.22,3,20.5S3.22,21,3.5,21h1.63c0.28,0,0.5-0.22,0.5-0.5S5.41,20,5.13,20h-1H3.88H3.5z M6.5,20C6.23,20,6,20.22,6,20.5
	S6.23,21,6.5,21S7,20.78,7,20.5S6.78,20,6.5,20z M21.5,20c-0.28,0-0.5,0.22-0.5,0.5s0.22,0.5,0.5,0.5s0.5-0.22,0.5-0.5
	S21.78,20,21.5,20z M24.5,20c-0.28,0-0.5,0.22-0.5,0.5s0.22,0.5,0.5,0.5h1.63c0.28,0,0.5-0.22,0.5-0.5s-0.22-0.5-0.5-0.5h-1h-0.25
	H24.5z M27.5,20c-0.28,0-0.5,0.22-0.5,0.5s0.22,0.5,0.5,0.5s0.5-0.22,0.5-0.5S27.78,20,27.5,20z M5.5,22C5.22,22,5,22.22,5,22.5
	S5.22,23,5.5,23S6,22.78,6,22.5S5.77,22,5.5,22z M6.87,22c-0.28,0-0.5,0.22-0.5,0.5S6.59,23,6.87,23H8.5C8.78,23,9,22.78,9,22.5
	S8.78,22,8.5,22H8.12H7.87H6.87z M20.5,22c-0.28,0-0.5,0.22-0.5,0.5s0.22,0.5,0.5,0.5s0.5-0.22,0.5-0.5S20.77,22,20.5,22z M21.87,22
	c-0.28,0-0.5,0.22-0.5,0.5s0.22,0.5,0.5,0.5h1.63c0.28,0,0.5-0.22,0.5-0.5S23.78,22,23.5,22h-0.38h-0.25H21.87z M26.5,22
	c-0.28,0-0.5,0.22-0.5,0.5s0.22,0.5,0.5,0.5s0.5-0.22,0.5-0.5S26.77,22,26.5,22z M27.87,22c-0.28,0-0.5,0.22-0.5,0.5
	s0.22,0.5,0.5,0.5h1.63c0.28,0,0.5-0.22,0.5-0.5S29.78,22,29.5,22h-0.38h-0.25H27.87z M3.5,24C3.22,24,3,24.22,3,24.5
	S3.22,25,3.5,25h1.63c0.28,0,0.5-0.22,0.5-0.5S5.41,24,5.13,24h-1H3.88H3.5z M6.5,24C6.23,24,6,24.22,6,24.5S6.23,25,6.5,25
	S7,24.78,7,24.5S6.78,24,6.5,24z M21.5,24c-0.28,0-0.5,0.22-0.5,0.5s0.22,0.5,0.5,0.5s0.5-0.22,0.5-0.5S21.78,24,21.5,24z M24.5,24
	c-0.28,0-0.5,0.22-0.5,0.5s0.22,0.5,0.5,0.5h1.63c0.28,0,0.5-0.22,0.5-0.5s-0.22-0.5-0.5-0.5h-1h-0.25H24.5z M27.5,24
	c-0.28,0-0.5,0.22-0.5,0.5s0.22,0.5,0.5,0.5s0.5-0.22,0.5-0.5S27.78,24,27.5,24z M5.5,26C5.22,26,5,26.22,5,26.5S5.22,27,5.5,27
	S6,26.78,6,26.5S5.77,26,5.5,26z M6.87,26c-0.28,0-0.5,0.22-0.5,0.5S6.59,27,6.87,27H8.5C8.78,27,9,26.78,9,26.5S8.78,26,8.5,26
	H8.12H7.87H6.87z M20.5,26c-0.28,0-0.5,0.22-0.5,0.5s0.22,0.5,0.5,0.5s0.5-0.22,0.5-0.5S20.77,26,20.5,26z M21.87,26
	c-0.28,0-0.5,0.22-0.5,0.5s0.22,0.5,0.5,0.5h1.63c0.28,0,0.5-0.22,0.5-0.5S23.78,26,23.5,26h-0.38h-0.25H21.87z M26.5,26
	c-0.28,0-0.5,0.22-0.5,0.5s0.22,0.5,0.5,0.5s0.5-0.22,0.5-0.5S26.77,26,26.5,26z M27.87,26c-0.28,0-0.5,0.22-0.5,0.5
	s0.22,0.5,0.5,0.5h1.63c0.28,0,0.5-0.22,0.5-0.5S29.78,26,29.5,26h-0.38h-0.25H27.87z"/>
</svg>
