<?xml version="1.0" encoding="utf-8"?>
<!-- Generator: Adobe Illustrator 24.1.2, SVG Export Plug-In . SVG Version: 6.00 Build 0)  -->
<svg version="1.1" id="Layer_1" xmlns="http://www.w3.org/2000/svg" xmlns:xlink="http://www.w3.org/1999/xlink" x="0px" y="0px"
	 viewBox="0 0 32.05 31.5" style="enable-background:new 0 0 32.05 31.5;" xml:space="preserve">
<style type="text/css">
	.st0{clip-path:url(#SVGID_2_);}
</style>
<g>
	<defs>
		<rect id="SVGID_1_" y="0" width="32.05" height="31.5"/>
	</defs>
	<clipPath id="SVGID_2_">
		<use xlink:href="#SVGID_1_"  style="overflow:visible;"/>
	</clipPath>
	<path fill="#005fcb" class="st0" d="M30.98,25.48l-6.77-6.77c0.36-0.75,0.05-1.65-0.7-2.01c-0.2-0.1-0.43-0.15-0.66-0.15
		c-0.4,0-0.79,0.16-1.07,0.44l-1.06,1.05l-2.16-2.17l4.98-5.39l1.46-1.14c0.31,0.35,0.57,0.74,0.79,1.15
		c0.6,1.17,0.85,2.49,0.72,3.8c-0.02,0.27,0.18,0.52,0.45,0.54c0.17,0.02,0.34-0.06,0.44-0.2c0.84-1.12,1.34-2.47,1.44-3.87
		c0.24-3.81-3.03-6.6-3.92-7.15l-0.17-0.1c-0.47-0.27-0.92-0.58-1.32-0.94c-0.73-0.73-1.39-1.52-1.96-2.37
		c-0.16-0.23-0.47-0.29-0.69-0.13c-0.02,0.02-0.05,0.04-0.07,0.06l-3.27,3.27c-0.19,0.2-0.19,0.51,0,0.71
		c0.06,0.06,0.14,0.1,0.22,0.13c1.02,0.28,2.77,0.98,3.13,1.65c0.33,0.65,0.38,1.41,0.16,2.1l-5.34,4.91L10.6,7.91L9.92,4.53
		C9.9,4.4,9.83,4.29,9.72,4.21L4.77,0.67c-0.2-0.15-0.48-0.12-0.66,0.05L1.28,3.56C1.1,3.73,1.08,4.01,1.22,4.22l3.54,4.95
		c0.08,0.1,0.19,0.18,0.31,0.2l3.38,0.68l4.92,4.92L0.94,26.42c-1.18,1.08-1.26,2.92-0.17,4.1c0.55,0.6,1.33,0.94,2.15,0.94h0.07
		c0.78-0.01,1.53-0.35,2.06-0.93L16.52,18.1l2.08,2.08l-1.05,1.05c-0.59,0.58-0.61,1.53-0.03,2.12c0.45,0.47,1.16,0.59,1.74,0.3
		l6.78,6.78c1.34,1.39,3.56,1.43,4.95,0.09c1.39-1.34,1.43-3.56,0.09-4.95C31.04,25.54,31.01,25.51,30.98,25.48 M18.73,3.55
		l2.28-2.28c0.53,0.74,1.12,1.43,1.78,2.07c0.45,0.4,0.95,0.75,1.48,1.05l0.16,0.09c0.73,0.45,3.65,2.95,3.44,6.23
		c-0.04,0.61-0.17,1.22-0.4,1.79c-0.2-1.58-0.92-3.05-2.05-4.17c-0.18-0.18-0.46-0.2-0.66-0.04l-1.51,1.17l-1.3-1.3
		c0.25-0.91,0.15-1.88-0.27-2.71C21.2,4.54,19.69,3.89,18.73,3.55 M21.36,8.98l1.15,1.15l-4.66,5.04l-1.55-1.54L21.36,8.98z
		 M4.3,29.85c-0.35,0.38-0.83,0.6-1.35,0.61c-0.52,0.01-1.02-0.19-1.39-0.55c-0.74-0.75-0.74-1.96,0.01-2.71
		c0.01-0.01,0.03-0.03,0.04-0.04L14.1,15.67l1.72,1.71L4.3,29.85z M16.87,17.01c-0.01-0.01-0.03-0.02-0.05-0.03l-2.32-2.31
		c-0.01-0.02-0.02-0.03-0.03-0.05l-5.4-5.4C9,9.15,8.91,9.1,8.81,9.08L5.48,8.41L2.31,3.97l2.22-2.22l4.43,3.17l0.67,3.33
		c0.02,0.1,0.07,0.19,0.14,0.26l5.46,5.46c0.02,0.01,0.03,0.02,0.05,0.03l2.2,2.2c0.01,0.02,0.02,0.03,0.03,0.05l2.5,2.51
		l-0.34,0.34l-0.35,0.35L16.87,17.01z M18.96,22.65c-0.2,0.18-0.51,0.16-0.69-0.04c-0.17-0.18-0.17-0.47,0-0.65l1.42-1.42l1.41-1.41
		l1.42-1.42c0.09-0.09,0.22-0.14,0.35-0.14c0.27,0,0.49,0.22,0.49,0.49c0,0.13-0.05,0.25-0.14,0.34L18.96,22.65z M30.28,29.73
		c-0.99,0.94-2.55,0.94-3.53,0l-6.71-6.71l3.53-3.54l6.71,6.71C31.25,27.17,31.25,28.75,30.28,29.73 M23.32,21.83
		c-0.2-0.19-0.52-0.19-0.71,0.01c-0.19,0.19-0.19,0.5,0,0.7l6.36,6.36c0.2,0.19,0.51,0.19,0.71-0.01c0.19-0.19,0.19-0.5,0-0.69
		L23.32,21.83z"/>
</g>
</svg>
