<?xml version="1.0" encoding="utf-8"?>
<!-- Generator: Adobe Illustrator 24.1.2, SVG Export Plug-In . SVG Version: 6.00 Build 0)  -->
<svg version="1.1" id="Layer_1" xmlns="http://www.w3.org/2000/svg" xmlns:xlink="http://www.w3.org/1999/xlink" x="0px" y="0px"
	 viewBox="0 0 128 128" style="enable-background:new 0 0 128 128;" xml:space="preserve">
<style type="text/css">
	.st0{fill:#005fcb;}
	.st1{fill:#005fcb;}
</style>
<path fill="#005fcb" d="M106.4,24.6l-16-16C90,8.2,89.5,8,89,8H31.5C26,8,21,12,21,17.5v90c0,5.5,5,10.5,10.5,10.5h66c5.5,0,9.5-5,9.5-10.5V26
	C107,25.5,106.8,25,106.4,24.6z M91,14.8l9.2,9.2h-3.7c-3.3,0-5.5-2.2-5.5-5.5V14.8z M103,107.5c0,3.3-2.2,6.5-5.5,6.5h-66
	c-3.3,0-6.5-3.2-6.5-6.5v-90c0-3.3,3.2-5.5,6.5-5.5H87v6.5c0,5.5,4,9.5,9.5,9.5h6.5V107.5z"/>
<path fill="#005fcb" class="st0" d="M38,26.5h24c1.1,0,2-0.9,2-2s-0.9-2-2-2H38c-1.1,0-2,0.9-2,2S36.9,26.5,38,26.5z"/>
<path fill="#005fcb" class="st1" d="M38,36.5h34c1.1,0,2-0.9,2-2s-0.9-2-2-2H38c-1.1,0-2,0.9-2,2S36.9,36.5,38,36.5z"/>
<path fill="#005fcb" class="st0" d="M82,42.5H38c-1.1,0-2,0.9-2,2s0.9,2,2,2h44c1.1,0,2-0.9,2-2S83.1,42.5,82,42.5z"/>
<path fill="#005fcb" class="st1" d="M38,56.5h24c1.1,0,2-0.9,2-2s-0.9-2-2-2H38c-1.1,0-2,0.9-2,2S36.9,56.5,38,56.5z"/>
<path fill="#005fcb" class="st0" d="M82,62.5H38c-1.1,0-2,0.9-2,2s0.9,2,2,2h44c1.1,0,2-0.9,2-2S83.1,62.5,82,62.5z"/>
<path fill="#005fcb" class="st1" d="M38,76.5h14c1.1,0,2-0.9,2-2s-0.9-2-2-2H38c-1.1,0-2,0.9-2,2S36.9,76.5,38,76.5z"/>
<path fill="#005fcb" class="st0" d="M66,82.5H38c-1.1,0-2,0.9-2,2v17c0,1.1,0.9,2,2,2h28c1.1,0,2-0.9,2-2v-17C68,83.4,67.1,82.5,66,82.5z M64,99.5
	H40v-13h24V99.5z"/>
</svg>
