<?xml version="1.0" encoding="utf-8"?>
<!-- Generator: Adobe Illustrator 24.1.2, SVG Export Plug-In . SVG Version: 6.00 Build 0)  -->
<svg version="1.1" id="Layer_1" xmlns="http://www.w3.org/2000/svg" xmlns:xlink="http://www.w3.org/1999/xlink" x="0px" y="0px"
	 viewBox="0 0 27 15" style="enable-background:new 0 0 27 15;" xml:space="preserve">
<style type="text/css">
	.st0{clip-path:url(#SVGID_2_);fill-rule:evenodd;clip-rule:evenodd;}
</style>
<g>
	<defs>
		<rect id="SVGID_1_" width="27" height="15"/>
	</defs>
	<clipPath id="SVGID_2_">
		<use xlink:href="#SVGID_1_"  style="overflow:visible;"/>
	</clipPath>
	<path fill="#005fcb" class="st0" d="M13.5,0C9.87,0,6.59,0.39,4.18,1.04c-1.21,0.32-2.2,0.71-2.92,1.17C0.53,2.68,0,3.27,0,4v7
		c0,0.73,0.53,1.32,1.25,1.78c0.73,0.46,1.72,0.85,2.92,1.17C6.59,14.61,9.87,15,13.5,15s6.91-0.39,9.32-1.04
		c1.21-0.32,2.2-0.71,2.92-1.17C26.47,12.32,27,11.73,27,11V4c0-0.73-0.53-1.32-1.25-1.78c-0.73-0.46-1.72-0.85-2.92-1.17
		C20.41,0.39,17.13,0,13.5,0 M13.5,1c3.55,0,6.77,0.39,9.06,1.01c1.15,0.31,2.06,0.68,2.65,1.05C25.8,3.44,26,3.77,26,4
		s-0.2,0.57-0.79,0.94c-0.59,0.38-1.5,0.74-2.65,1.05C20.27,6.61,17.05,7,13.5,7S6.73,6.61,4.44,5.99C3.29,5.68,2.38,5.32,1.79,4.94
		C1.2,4.57,1,4.23,1,4s0.2-0.56,0.79-0.94c0.59-0.38,1.5-0.74,2.65-1.05C6.73,1.39,9.95,1,13.5,1 M13.5,2
		c-1.42,0-2.71,0.17-3.68,0.46C9.33,2.61,8.93,2.78,8.6,3.01C8.28,3.24,8,3.57,8,4s0.28,0.76,0.6,0.99c0.32,0.23,0.73,0.4,1.22,0.55
		C10.79,5.83,12.08,6,13.5,6s2.71-0.17,3.68-0.46c0.49-0.15,0.89-0.32,1.22-0.55C18.72,4.76,19,4.43,19,4s-0.28-0.76-0.6-0.99
		c-0.32-0.23-0.73-0.4-1.22-0.55C16.21,2.17,14.92,2,13.5,2 M13.5,3c1.34,0,2.56,0.17,3.39,0.42c0.42,0.13,0.74,0.27,0.93,0.4
		C18,3.95,18,4.02,18,4s0,0.05-0.18,0.18c-0.18,0.13-0.51,0.28-0.93,0.4C16.06,4.83,14.84,5,13.5,5s-2.56-0.17-3.39-0.42
		c-0.42-0.13-0.74-0.27-0.93-0.4C9,4.05,9,3.98,9,4s0-0.05,0.18-0.18c0.18-0.13,0.51-0.28,0.93-0.4C10.94,3.17,12.16,3,13.5,3
		 M1,5.6c0.09,0.06,0.16,0.13,0.25,0.19c0.73,0.46,1.72,0.85,2.92,1.17C6.59,7.61,9.87,8,13.5,8s6.91-0.39,9.32-1.04
		c1.21-0.32,2.2-0.71,2.92-1.17C25.84,5.73,25.92,5.66,26,5.6V11c0,0.23-0.2,0.57-0.79,0.94c-0.59,0.38-1.5,0.74-2.65,1.05
		C20.27,13.61,17.05,14,13.5,14s-6.77-0.39-9.06-1.01c-1.14-0.31-2.06-0.68-2.65-1.05C1.2,11.57,1,11.23,1,11V5.6z M2,11h1V8H2V11z
		 M24,11h1V8h-1V11z M4,11.6h1v-3H4V11.6z M22,11.6h1v-3h-1V11.6z M6,12h1V9H6V12z M20,12h1V9h-1V12z M8,12.5h1v-3H8V12.5z M10,12.5
		h1v-3h-1V12.5z M12,12.5h1v-3h-1V12.5z M14,12.5h1v-3h-1V12.5z M16,12.5h1v-3h-1V12.5z M18,12.5h1v-3h-1V12.5z"/>
</g>
</svg>
