<?xml version="1.0" encoding="utf-8"?>
<!-- Generator: Adobe Illustrator 24.1.2, SVG Export Plug-In . SVG Version: 6.00 Build 0)  -->
<svg version="1.1" id="Layer_1" xmlns="http://www.w3.org/2000/svg" xmlns:xlink="http://www.w3.org/1999/xlink" x="0px" y="0px"
	 viewBox="0 0 45.03 64" style="enable-background:new 0 0 45.03 64;" xml:space="preserve">
<style type="text/css">
	.st0{clip-path:url(#SVGID_2_);}
</style>
<g>
	<defs>
		<rect id="SVGID_1_" width="45.03" height="64"/>
	</defs>
	<clipPath id="SVGID_2_">
		<use xlink:href="#SVGID_1_"  style="overflow:visible;"/>
	</clipPath>
	<path fill="#005fcb" class="st0" d="M40.63,26.93H16.39c-0.28,0-0.5,0.22-0.5,0.5v8.49c0,0.28,0.22,0.5,0.5,0.5h24.24c0.28,0,0.5-0.22,0.5-0.5
		v-8.49C41.13,27.15,40.9,26.93,40.63,26.93 M40.13,35.42H16.89v-7.49h23.24V35.42"/>
	<path fill="#005fcb" class="st0" d="M25.87,0.07c-0.16-0.09-0.36-0.07-0.52,0.03l-3.9,2.74l-3.9-2.75c-0.17-0.12-0.4-0.12-0.58,0l-3.9,2.75
		L9.15,0.09c-0.17-0.12-0.4-0.12-0.57,0l-3.9,2.75L0.79,0.09C0.64-0.02,0.44-0.03,0.27,0.06C0.1,0.14,0,0.31,0,0.5v13.87
		c0,1.26,0.49,2.42,1.36,3.28c0.85,0.87,2.05,1.37,3.29,1.37h11.96v0.58h-1.26c-1.86,0-3.38,1.52-3.38,3.39v37.63
		c0,1.86,1.52,3.38,3.38,3.38h26.3c1.86,0,3.38-1.52,3.38-3.38V22.99c0-1.87-1.52-3.39-3.38-3.39h-1.98v-7.95
		c0-2.44-1.99-4.43-4.44-4.43h-9.09V0.51C26.14,0.32,26.04,0.15,25.87,0.07 M1,14.37V1.47l3.38,2.39c0.17,0.12,0.4,0.12,0.58,0
		l3.9-2.75l3.92,2.75c0.17,0.12,0.4,0.12,0.57,0l3.9-2.75l3.9,2.75c0.17,0.12,0.4,0.12,0.57,0l3.4-2.39v5.75H13.09
		c-0.03,0-0.07,0-0.1,0h-0.03c-0.13,0-0.27,0-0.4,0.01c-2.39,0.2-4.26,2.32-4.26,4.84v2.3c0,2.01-1.64,3.65-3.65,3.65
		c-0.97,0-1.91-0.39-2.58-1.08C1.38,16.27,1,15.36,1,14.37 M7.53,18.02c0.14-0.11,0.27-0.23,0.4-0.36c0.01-0.01,0.02-0.02,0.03-0.03
		c0.18-0.19,0.35-0.39,0.5-0.6c0.02-0.03,0.04-0.06,0.06-0.09c0.14-0.22,0.27-0.45,0.38-0.69c0.02-0.04,0.04-0.09,0.06-0.14
		c0.1-0.24,0.18-0.5,0.24-0.76c0.01-0.04,0.01-0.08,0.02-0.13c0.05-0.28,0.09-0.56,0.09-0.85v-2.3c0-2,1.47-3.69,3.34-3.84
		c0.1-0.01,0.2-0.01,0.3-0.01c0.06,0,0.11,0,0.17,0c0.03,0,0.05,0,0.07,0c0.09,0.01,0.19,0.02,0.32,0.03c0.05,0,0.13,0.02,0.19,0.03
		c0.52,0.1,1,0.32,1.44,0.66c0.14,0.09,0.26,0.2,0.41,0.35c0.53,0.52,0.88,1.18,1,1.93c0.05,0.19,0.07,0.39,0.07,0.64v6.15H7.53z
		 M41.65,20.6c1.31,0,2.38,1.07,2.38,2.39v37.63c0,1.31-1.07,2.38-2.38,2.38h-26.3c-1.31,0-2.38-1.07-2.38-2.38V22.99
		c0-1.32,1.07-2.39,2.38-2.39h1.26v3.29h-0.76c-0.28,0-0.5,0.22-0.5,0.5c0,0.28,0.22,0.5,0.5,0.5h24.77c0.28,0,0.5-0.22,0.5-0.5
		c0-0.28-0.22-0.5-0.5-0.5h-0.95V20.6H41.65z M38.67,11.65v8.45v3.79H17.61V20.1v-1.58v-6.65c0-0.33-0.03-0.61-0.09-0.84
		c-0.15-0.93-0.6-1.77-1.28-2.44c-0.11-0.11-0.23-0.21-0.35-0.31c-0.02-0.02-0.04-0.04-0.06-0.05h9.8h9.59
		C37.13,8.22,38.67,9.76,38.67,11.65"/>
	<path fill="#005fcb" class="st0" d="M31.4,20.71h-9.64c-0.28,0-0.5,0.22-0.5,0.5c0,0.28,0.22,0.5,0.5,0.5h9.64c0.28,0,0.5-0.22,0.5-0.5
		C31.9,20.94,31.68,20.71,31.4,20.71 M34.48,17.27H21.76c-0.28,0-0.5,0.22-0.5,0.5c0,0.28,0.22,0.5,0.5,0.5h12.72
		c0.28,0,0.5-0.22,0.5-0.5C34.98,17.49,34.75,17.27,34.48,17.27 M24.83,14.32c0,0.28,0.22,0.5,0.5,0.5h9.15c0.28,0,0.5-0.22,0.5-0.5
		c0-0.28-0.22-0.5-0.5-0.5h-9.15C25.06,13.82,24.83,14.04,24.83,14.32 M36.17,33.19c-0.33,0-0.6-0.23-0.6-0.51h-1
		c0,0.67,0.46,1.22,1.1,1.42v0.39h1v-0.39c0.64-0.2,1.1-0.76,1.1-1.42c0-0.83-0.72-1.51-1.6-1.51c-0.33,0-0.6-0.23-0.6-0.51
		s0.27-0.51,0.6-0.51c0.33,0,0.6,0.23,0.6,0.51h1c0-0.67-0.46-1.23-1.1-1.42v-0.39h-1v0.39c-0.64,0.2-1.1,0.76-1.1,1.42
		c0,0.83,0.72,1.51,1.6,1.51c0.33,0,0.6,0.23,0.6,0.51C36.77,32.96,36.5,33.19,36.17,33.19 M20.29,55.58h-3.51
		c-0.28,0-0.5,0.22-0.5,0.5v3.51c0,0.28,0.22,0.5,0.5,0.5h3.51c0.28,0,0.5-0.22,0.5-0.5v-3.51C20.79,55.81,20.57,55.58,20.29,55.58
		 M19.79,59.09h-2.51v-2.51h2.51V59.09z M26.93,55.58h-3.51c-0.28,0-0.5,0.22-0.5,0.5v3.51c0,0.28,0.22,0.5,0.5,0.5h3.51
		c0.28,0,0.5-0.22,0.5-0.5v-3.51C27.43,55.81,27.21,55.58,26.93,55.58 M26.43,59.09h-2.51v-2.51h2.51V59.09z M33.58,55.58h-3.51
		c-0.28,0-0.5,0.22-0.5,0.5v3.51c0,0.28,0.22,0.5,0.5,0.5h3.51c0.28,0,0.5-0.22,0.5-0.5v-3.51C34.08,55.81,33.85,55.58,33.58,55.58
		 M33.08,59.09h-2.51v-2.51h2.51V59.09z M40.22,55.58h-3.51c-0.28,0-0.5,0.22-0.5,0.5v3.51c0,0.28,0.22,0.5,0.5,0.5h3.51
		c0.28,0,0.5-0.22,0.5-0.5v-3.51C40.72,55.81,40.5,55.58,40.22,55.58 M39.72,59.09h-2.51v-2.51h2.51V59.09z M20.29,49.69h-3.51
		c-0.28,0-0.5,0.22-0.5,0.5v3.51c0,0.28,0.22,0.5,0.5,0.5h3.51c0.28,0,0.5-0.22,0.5-0.5v-3.51C20.79,49.91,20.57,49.69,20.29,49.69
		 M19.79,53.19h-2.51v-2.51h2.51V53.19z M26.93,49.69h-3.51c-0.28,0-0.5,0.22-0.5,0.5v3.51c0,0.28,0.22,0.5,0.5,0.5h3.51
		c0.28,0,0.5-0.22,0.5-0.5v-3.51C27.43,49.91,27.21,49.69,26.93,49.69 M26.43,53.19h-2.51v-2.51h2.51V53.19z M33.58,49.69h-3.51
		c-0.28,0-0.5,0.22-0.5,0.5v3.51c0,0.28,0.22,0.5,0.5,0.5h3.51c0.28,0,0.5-0.22,0.5-0.5v-3.51C34.08,49.91,33.85,49.69,33.58,49.69
		 M33.08,53.19h-2.51v-2.51h2.51V53.19z M40.22,49.69h-3.51c-0.28,0-0.5,0.22-0.5,0.5v3.51c0,0.28,0.22,0.5,0.5,0.5h3.51
		c0.28,0,0.5-0.22,0.5-0.5v-3.51C40.72,49.91,40.5,49.69,40.22,49.69 M39.72,53.19h-2.51v-2.51h2.51V53.19z M20.29,43.79h-3.51
		c-0.28,0-0.5,0.22-0.5,0.5v3.51c0,0.28,0.22,0.5,0.5,0.5h3.51c0.28,0,0.5-0.22,0.5-0.5v-3.51C20.79,44.02,20.57,43.79,20.29,43.79
		 M19.79,47.3h-2.51v-2.51h2.51V47.3z M26.93,43.79h-3.51c-0.28,0-0.5,0.22-0.5,0.5v3.51c0,0.28,0.22,0.5,0.5,0.5h3.51
		c0.28,0,0.5-0.22,0.5-0.5v-3.51C27.43,44.02,27.21,43.79,26.93,43.79 M26.43,47.3h-2.51v-2.51h2.51V47.3z M33.58,43.79h-3.51
		c-0.28,0-0.5,0.22-0.5,0.5v3.51c0,0.28,0.22,0.5,0.5,0.5h3.51c0.28,0,0.5-0.22,0.5-0.5v-3.51C34.08,44.02,33.85,43.79,33.58,43.79
		 M33.08,47.3h-2.51v-2.51h2.51V47.3z M40.22,43.79h-3.51c-0.28,0-0.5,0.22-0.5,0.5v3.51c0,0.28,0.22,0.5,0.5,0.5h3.51
		c0.28,0,0.5-0.22,0.5-0.5v-3.51C40.72,44.02,40.5,43.79,40.22,43.79 M39.72,47.3h-2.51v-2.51h2.51V47.3z M20.29,37.9h-3.51
		c-0.28,0-0.5,0.22-0.5,0.5v3.51c0,0.28,0.22,0.5,0.5,0.5h3.51c0.28,0,0.5-0.22,0.5-0.5V38.4C20.79,38.12,20.57,37.9,20.29,37.9
		 M19.79,41.4h-2.51V38.9h2.51V41.4z M26.93,37.9h-3.51c-0.28,0-0.5,0.22-0.5,0.5v3.51c0,0.28,0.22,0.5,0.5,0.5h3.51
		c0.28,0,0.5-0.22,0.5-0.5V38.4C27.43,38.12,27.21,37.9,26.93,37.9 M26.43,41.4h-2.51V38.9h2.51V41.4z M33.58,37.9h-3.51
		c-0.28,0-0.5,0.22-0.5,0.5v3.51c0,0.28,0.22,0.5,0.5,0.5h3.51c0.28,0,0.5-0.22,0.5-0.5V38.4C34.08,38.12,33.85,37.9,33.58,37.9
		 M33.08,41.4h-2.51V38.9h2.51V41.4z M40.22,37.9h-3.51c-0.28,0-0.5,0.22-0.5,0.5v3.51c0,0.28,0.22,0.5,0.5,0.5h3.51
		c0.28,0,0.5-0.22,0.5-0.5V38.4C40.72,38.12,40.5,37.9,40.22,37.9 M39.72,41.4h-2.51V38.9h2.51V41.4z"/>
</g>
</svg>
