<svg width="50" height="50" viewBox="0 0 50 50" fill="none" xmlns="http://www.w3.org/2000/svg">
<path d="M38.7773 0H11.2227C5.02458 0 0 5.02458 0 11.2227V38.7773C0 44.9754 5.02458 50 11.2227 50H38.7773C44.9754 50 50 44.9754 50 38.7773V11.2227C50 5.02458 44.9754 0 38.7773 0Z" fill="url(#paint0_linear_9_12)"/>
<path d="M17.319 8.65951H32.9061C33.2525 8.8327 33.7721 8.8327 34.1185 9.00589C35.6385 9.25222 37.0596 9.91759 38.2222 10.9272C39.3848 11.9368 40.2428 13.2507 40.6997 14.7212C40.9555 15.5685 41.1295 16.4385 41.2193 17.319V32.5597C40.9717 34.4913 40.2585 36.3338 39.141 37.9286C38.1823 39.0394 36.9805 39.9141 35.6288 40.4848C34.2771 41.0555 32.812 41.3068 31.3474 41.2193H18.3582C16.0401 41.3318 13.7609 40.5926 11.9501 39.141C10.849 38.1896 9.98003 36.999 9.4097 35.6602C8.83936 34.3214 8.58276 32.8699 8.65953 31.4167V19.2934C8.63092 18.4238 8.68893 17.5536 8.83272 16.6955C9.00761 14.92 9.73766 13.2447 10.9191 11.9078C12.1006 10.5708 13.6734 9.64029 15.4139 9.24835L17.319 8.65951ZM11.9501 25.1126V31.867C11.8763 32.7271 11.9914 33.593 12.2873 34.404C12.5832 35.215 13.0528 35.9515 13.6633 36.5619C14.2737 37.1723 15.0102 37.642 15.8212 37.9379C16.6322 38.2338 17.4981 38.3489 18.3582 38.275C22.8611 38.4482 27.3641 38.4482 31.867 38.275C35.8504 38.275 38.1019 35.8504 38.275 31.867C38.4482 27.364 38.4482 22.8611 38.275 18.3582C38.3199 17.5048 38.1849 16.6516 37.8787 15.8538C37.5726 15.056 37.1021 14.3315 36.4979 13.7273C35.8937 13.123 35.1692 12.6526 34.3714 12.3464C33.5736 12.0403 32.7203 11.9052 31.867 11.9501C27.3641 11.7769 22.8611 11.7769 18.3582 11.9501C17.4981 11.8763 16.6322 11.9913 15.8212 12.2873C15.0102 12.5832 14.2737 13.0528 13.6633 13.6632C13.0528 14.2737 12.5832 15.0102 12.2873 15.8212C11.9914 16.6322 11.8763 17.498 11.9501 18.3582V25.1126Z" fill="white"/>
<path d="M16.6956 25.1818C16.7001 22.9325 17.5957 20.7767 19.1862 19.1862C20.7767 17.5957 22.9326 16.7001 25.1819 16.6955C27.4187 16.7398 29.5516 17.6481 31.1336 19.2301C32.7156 20.8121 33.6239 22.945 33.6682 25.1818C33.6636 27.4311 32.7681 29.587 31.1775 31.1775C29.587 32.768 27.4312 33.6636 25.1819 33.6682C22.945 33.6239 20.8122 32.7155 19.2302 31.1335C17.6482 29.5516 16.7399 27.4187 16.6956 25.1818ZM25.1819 19.8129C24.13 19.7958 23.0969 20.0932 22.2151 20.667C21.3333 21.2408 20.6429 22.0648 20.2324 23.0335C19.8219 24.0022 19.71 25.0713 19.911 26.104C20.1121 27.1367 20.6169 28.0858 21.3608 28.8297C22.1047 29.5736 23.0539 30.0785 24.0865 30.2795C25.1192 30.4805 26.1884 30.3687 27.157 29.9582C28.1257 29.5477 28.9497 28.8573 29.5235 27.9755C30.0973 27.0936 30.3947 26.0606 30.3776 25.0087C30.3776 23.6307 29.8302 22.3091 28.8558 21.3347C27.8814 20.3604 26.5599 19.8129 25.1819 19.8129Z" fill="white"/>
<path d="M31.763 16.3492C31.7533 16.0736 31.8004 15.7991 31.9014 15.5425C32.0025 15.286 32.1552 15.053 32.3501 14.8581C32.5451 14.6631 32.7781 14.5104 33.0346 14.4094C33.2911 14.3083 33.5657 14.2612 33.8412 14.2709C34.3804 14.3073 34.8881 14.538 35.2702 14.9202C35.6524 15.3023 35.883 15.81 35.9195 16.3492C35.9195 16.9004 35.7006 17.429 35.3108 17.8187C34.9211 18.2085 34.3924 18.4274 33.8412 18.4274C33.29 18.4274 32.7614 18.2085 32.3717 17.8187C31.9819 17.429 31.763 16.9004 31.763 16.3492Z" fill="white"/>
<defs>
<linearGradient id="paint0_linear_9_12" x1="-3.1867" y1="52.771" x2="55.698" y2="-5.24766" gradientUnits="userSpaceOnUse">
<stop stop-color="#FED576"/>
<stop offset="0.26" stop-color="#F47133"/>
<stop offset="0.61" stop-color="#BC3081"/>
<stop offset="1" stop-color="#4C63D2"/>
</linearGradient>
</defs>
</svg>
