<svg width="62" height="37" viewBox="0 0 62 37" fill="none" xmlns="http://www.w3.org/2000/svg">
<path d="M60.1673 3.43527C59.4859 5.55803 58.5672 7.40575 57.4162 9.08345L57.4642 9.00844C56.3335 10.8753 54.9831 13.0323 53.4132 15.4792C52.0671 17.4111 51.3545 18.4112 51.2755 18.4796C50.9271 18.9121 50.6848 19.4422 50.6016 20.0248L50.599 20.0423C50.6672 20.5723 50.9145 21.0349 51.2755 21.3799L52.285 22.4951C57.6863 27.9941 60.7243 31.7845 61.399 33.8664C61.4874 34.0965 61.5379 34.3615 61.5379 34.639C61.5379 35.1241 61.3814 35.5716 61.1164 35.9392L61.1214 35.9317C60.6772 36.3842 60.0563 36.6643 59.3698 36.6643C59.2941 36.6643 59.2158 36.6618 59.1426 36.6543H59.1527H52.5122C52.5097 36.6543 52.5046 36.6543 52.4996 36.6543C51.649 36.6543 50.8666 36.3592 50.2533 35.8692L50.2608 35.8742C49.3673 35.1466 48.5723 34.359 47.8605 33.5039L47.8378 33.4739C46.6751 32.1721 45.6437 31.0761 44.7435 30.186C41.745 27.3623 39.5323 25.9505 38.1055 25.9505C38.0524 25.9455 37.9919 25.943 37.9288 25.943C37.5123 25.943 37.1236 26.0705 36.8031 26.288L36.8107 26.283C36.5482 26.6081 36.3892 27.0281 36.3892 27.4807C36.3892 27.5707 36.3942 27.6557 36.4068 27.7432V27.7332C36.3387 28.5183 36.2983 29.4309 36.2983 30.3535C36.2983 30.651 36.3033 30.9461 36.3109 31.2411V31.1986V34.0965C36.3362 34.214 36.3513 34.349 36.3513 34.4865C36.3513 35.0916 36.0737 35.6316 35.6395 35.9892L35.637 35.9917C34.6603 36.4342 33.5194 36.6943 32.3155 36.6943C32.0581 36.6943 31.8057 36.6818 31.5558 36.6593L31.5886 36.6618C27.6159 36.5868 23.9309 35.4341 20.7987 33.4914L20.887 33.5414C17.0733 31.2461 13.9133 28.2583 11.5055 24.7278L11.4373 24.6228C9.15064 21.6175 7.0179 18.222 5.20065 14.6416L5.02397 14.2566C3.96139 12.2513 2.86094 9.78604 1.91193 7.25073L1.7605 6.78818C1.37433 5.64804 1.09417 4.32288 0.97807 2.95022L0.973022 2.88771C0.973022 1.62422 1.72348 0.992482 3.22439 0.992482H9.86239C9.92297 0.987482 9.99364 0.984981 10.0668 0.984981C10.6928 0.984981 11.2708 1.19751 11.7276 1.55505L11.7225 1.55005C12.2273 2.09761 12.6009 2.77019 12.7851 3.52028L12.7927 3.55029C14.0143 6.9682 15.3091 9.83854 16.7982 12.5889L16.6291 12.2463C17.8457 14.6716 19.1909 16.7594 20.7255 18.6871L20.6674 18.6096C22.0136 20.2465 23.0635 21.0649 23.8173 21.0649C23.8401 21.0674 23.8678 21.0674 23.8981 21.0674C24.2717 21.0674 24.5972 20.8674 24.7739 20.5673L24.7764 20.5623C24.9632 20.0873 25.0717 19.5347 25.0717 18.9596C25.0717 18.8371 25.0667 18.7146 25.0566 18.5946V18.6096V8.91093C25.0036 7.76829 24.7209 6.70067 24.2489 5.74305L24.2691 5.79056C23.9562 5.13048 23.5801 4.56041 23.1334 4.05285L23.1409 4.06285C22.727 3.6528 22.4443 3.11524 22.356 2.51516L22.3534 2.50016C22.3534 2.07511 22.5503 1.69257 22.8582 1.44254L22.8608 1.44004C23.1662 1.1625 23.575 0.994982 24.0218 0.994982H24.042H34.5063C34.5618 0.987481 34.6249 0.984981 34.6905 0.984981C35.1827 0.984981 35.6244 1.20501 35.9172 1.55005L35.9197 1.55255C36.1797 2.02261 36.3336 2.58517 36.3336 3.18024C36.3336 3.27526 36.3286 3.36777 36.321 3.46028V3.44778V16.3818C36.316 16.4418 36.3134 16.5118 36.3134 16.5819C36.3134 17.0419 36.4422 17.4745 36.6643 17.842L36.6592 17.832C36.8435 18.102 37.1514 18.2771 37.4997 18.2771H37.5022C37.9464 18.2471 38.3503 18.102 38.691 17.872L38.6834 17.877C39.37 17.4095 39.9606 16.8769 40.4729 16.2743L40.483 16.2618C42.0151 14.5466 43.4285 12.6514 44.6602 10.6361L44.7586 10.4611C45.6268 9.03595 46.5658 7.28074 47.4163 5.47802L47.5728 5.11048L48.6985 2.88021C49.0897 1.76507 50.1397 0.97998 51.3739 0.97998C51.4218 0.97998 51.4698 0.97998 51.5177 0.982481H51.5102H58.1507C59.9444 0.982481 60.6175 1.80008 60.1699 3.43527H60.1673Z" fill="#0077FF"/>
</svg>
