<svg width="50" height="50" viewBox="0 0 50 50" fill="none" xmlns="http://www.w3.org/2000/svg">
<path d="M39.6373 0H10.3627C4.63954 0 0 4.63954 0 10.3627V39.6373C0 45.3605 4.63954 50 10.3627 50H39.6373C45.3605 50 50 45.3605 50 39.6373V10.3627C50 4.63954 45.3605 0 39.6373 0Z" fill="#1778F2"/>
<path d="M26.9936 39.1111V25.729H31.4856L32.1592 20.5137H26.9936V17.1839C26.9936 15.6741 27.413 14.6451 29.5783 14.6451H32.34V9.98187C31.0033 9.84045 29.6598 9.77196 28.3156 9.77669C24.3338 9.77669 21.6079 12.207 21.6079 16.6705V20.5137H17.1045V25.729H21.6079V39.1111H26.9936Z" fill="#FDFDFD"/>
</svg>
