<?xml version="1.0" encoding="utf-8"?>
<!-- Generator: Adobe Illustrator 24.1.2, SVG Export Plug-In . SVG Version: 6.00 Build 0)  -->
<svg version="1.1" id="Слой_1" xmlns="http://www.w3.org/2000/svg" xmlns:xlink="http://www.w3.org/1999/xlink" x="0px" y="0px"
	 viewBox="0 0 297.64 297.64" style="enable-background:new 0 0 297.64 297.64;" xml:space="preserve">
<style type="text/css">
	.st0{fill:url(#SVGID_1_);}
</style>
<g>
	<g>
		<linearGradient id="SVGID_1_" gradientUnits="userSpaceOnUse" x1="27.1201" y1="148.8183" x2="289.735" y2="148.8183">
			<stop  offset="0.0344" style="stop-color:#ffffff"/>
			<stop  offset="0.2149" style="stop-color:#ffffff"/>
			<stop  offset="0.6071" style="stop-color:#ffffff"/>
			<stop  offset="0.8615" style="stop-color:#ffffff"/>
		</linearGradient>
		<path class="st0" d="M287.71,208.93c-0.11-18.6-0.13-37.2-0.64-55.79c-0.22-7.99-0.78-16.14-2.56-23.89
			c-2.89-12.58-9.69-22.93-22.65-27.06c-14.2-4.52-26.95-0.27-38.41,8.56c-0.57,0.44-1.11,1.35-1.12,2.05
			c-0.08,8.76-0.05,17.52-0.05,26.21c4.22-0.85,7.95-1.94,11.75-2.27c5.09-0.45,9.89,0.62,12.83,5.42c2.94,4.8,4.79,10.1,4.83,15.69
			c0.17,21.42,0.18,42.83,0.01,64.25c-0.07,9.41-5.07,15.73-13.83,18.76c-0.75,0.26-1.75,1.3-1.75,1.98
			c-0.05,10.55,0.05,21.11,0.11,31.66c0.01,1.77,0.73,2.53,2.67,2.56c18.68,0.23,37.39-12.7,43.88-30.47
			C287.24,234.41,287.79,221.69,287.71,208.93z M250.13,57.34c9.13-1,18.26-2.05,27.4-3.01c1.48-0.16,2.28-0.53,2.27-2.21
			c-0.05-10.64-0.02-21.29-0.02-32.47c-14.91,1.7-29.21,3.31-43.51,4.98c-16.38,1.92-32.44,3.96-48.84,5.72
			c-0.54,6.76-1.07,13.83-1.49,20.73c-0.26,4.33-0.45,8.66-0.68,13.24c9.14-0.97,17.85-1.88,26.56-2.82
			C224.59,60.13,237.36,58.74,250.13,57.34z M213.77,166.36c0.43-18.27,0.86-36.54,1.36-54.8c0.28-10.44,0.7-20.87,1-31.31
			c0.09-3.08,0.01-6.17,0.01-9.39c-1.48,0-2.53-0.04-3.56,0.01c-8.14,0.41-16.28,1-24.42,1.18c-2.88,0.06-3.53,1.2-3.58,3.69
			c-0.11,5.74-0.39,11.48-0.6,17.21c-0.84,22.64-1.68,45.28-2.49,67.91c-0.11,3-0.01,6.01-0.01,9.58
			c10.36-0.35,20.28-0.69,30.19-1.01C213.79,169.36,213.73,167.91,213.77,166.36z M226.46,240.4c-7.83-0.86-11.83-8.4-12.11-15.72
			c-0.34-8.87-0.54-17.75-0.66-26.63c-0.03-2.25-0.64-3.13-3.05-3.05c-8.68,0.29-17.37,0.45-26.05,0.5
			c-2.33,0.01-2.77,0.99-2.71,3.04c0.16,5.64,0.06,11.29,0.25,16.93c0.29,8.66-0.03,17.43,1.33,25.93
			c1.75,10.9,7.05,20.52,16.33,26.88c8.19,5.62,17.85,7.84,28.38,9.13c0-12.03,0.03-23.6-0.07-35.18
			C228.09,241.58,227.09,240.47,226.46,240.4z M60.55,220.17c0.06-3.51-1.27-4.57-4.78-4.73c-12.58-0.55-16.31-4.5-16.55-17.18
			c-0.18-9.62-0.01-19.25-0.17-28.87c-0.06-4.09-0.54-8.18-0.84-12.33h-28c0,14.94-0.75,29.3,0.16,43.56
			c1.86,29.31,17.48,45.77,45,49.08c3.89,0.47,5.28-0.56,5.19-4.47C60.39,236.88,60.4,228.52,60.55,220.17z M10.05,146h28.23
			c0-8.39-0.13-16.37,0.03-24.35c0.33-16.32,4.94-21.37,20.96-23.34c0.31-0.04,0.58-0.36,1.22-0.79v-26.7
			c-19.14-2.17-40.15,11.27-47.08,29.94C7.92,115.53,10.84,130.8,10.05,146z M66.38,277.99h31.87V39.03
			c-10.96,1.18-21.38,2.31-31.87,3.44V277.99z M125.9,111.62c0.08,5.99,0.1,11.99,0.12,17.98c0.02,4.07,0,8.15,0,12.09h32.11
			c0-13.83,0.58-26.92-0.17-39.94c-0.67-11.62-6.31-21.1-16.31-27.55c-10.28-6.64-21.79-7.58-33.57-6.65
			c-1.09,0.09-2.91,1.84-2.94,2.87c-0.24,8.47-0.13,16.96-0.13,25.68c2.47,0.14,4.25,0.25,6.03,0.33
			C121.79,96.94,125.75,100.97,125.9,111.62z M158.42,153.13c-9.34,0-18.02,0.16-26.68-0.07c-4.05-0.1-5.38,1.33-5.35,5.35
			c0.11,11.44-0.24,22.89-0.21,34.34c0.04,14.62-5.57,22.53-19.52,23.93c-0.47,0.05-0.9,0.46-1.28,0.66v29.89
			c27.46,1.54,45.01-13.12,50.61-34.25C161.21,193.29,157.24,173.27,158.42,153.13z"/>
	</g>
</g>
</svg>
