<?xml version="1.0" encoding="utf-8"?>
<!-- Generator: Adobe Illustrator 24.1.2, SVG Export Plug-In . SVG Version: 6.00 Build 0)  -->
<svg version="1.1" id="Layer_1" xmlns="http://www.w3.org/2000/svg" xmlns:xlink="http://www.w3.org/1999/xlink" x="0px" y="0px"
	 viewBox="0 0 446.75 530.66" style="enable-background:new 0 0 446.75 530.66;" xml:space="preserve">
<style type="text/css">
	.st0{clip-path:url(#SVGID_2_);fill-rule:evenodd;clip-rule:evenodd;fill:#161413;}
	.st1{clip-path:url(#SVGID_2_);fill-rule:evenodd;clip-rule:evenodd;fill:#A8002C;}
	.st2{clip-path:url(#SVGID_2_);fill-rule:evenodd;clip-rule:evenodd;fill:#FFFFFF;}
	.st3{clip-path:url(#SVGID_2_);fill-rule:evenodd;clip-rule:evenodd;fill:#E2B700;}
	.st4{clip-path:url(#SVGID_2_);fill-rule:evenodd;clip-rule:evenodd;fill:#0092D0;}
</style>
<g>
	<defs>
		<rect id="SVGID_1_" width="446.75" height="530.66"/>
	</defs>
	<clipPath id="SVGID_2_">
		<use xlink:href="#SVGID_1_"  style="overflow:visible;"/>
	</clipPath>
	<polyline class="st0" points="0,0 446.75,0 446.75,418.08 446.54,422.27 446.33,426.45 445.91,430.64 445.29,434.61 444.45,438.59 
		443.4,442.57 442.36,446.12 441.1,449.89 439.64,453.45 437.96,457 436.08,460.14 434.2,463.49 431.89,466.63 429.59,469.56 
		427.08,472.28 424.36,475 421.64,477.51 418.5,480.02 415.36,482.32 412.02,484.41 408.46,486.3 404.9,488.18 401.13,489.86 
		396.95,491.32 392.97,492.58 388.58,493.83 384.18,494.88 379.37,495.51 374.77,496.34 369.75,496.76 364.73,496.97 359.49,497.18 
		307.6,497.18 304.04,497.18 300.48,497.39 296.93,497.39 293.58,497.81 290.23,498.02 287.09,498.44 283.95,499.06 280.82,499.48 
		277.89,500.11 274.95,500.74 272.03,501.57 269.1,502.41 266.38,503.25 263.86,504.08 261.15,505.13 258.63,506.18 256.12,507.22 
		253.82,508.48 251.31,509.53 249.01,510.78 246.92,512.04 244.61,513.29 242.52,514.76 240.43,516.22 238.34,517.69 236.24,519.15 
		234.36,520.62 232.48,522.29 230.6,523.96 228.71,525.43 227.04,527.1 223.27,530.66 219.71,527.1 217.83,525.43 215.95,523.96 
		214.06,522.29 212.18,520.62 210.3,519.15 208.2,517.69 206.11,516.22 204.02,514.76 201.93,513.29 199.84,512.04 197.53,510.78 
		195.02,509.53 192.72,508.48 190.42,507.22 187.91,506.18 185.4,505.13 182.68,504.08 180.16,503.25 177.24,502.41 174.52,501.57 
		171.79,500.74 168.87,500.11 165.73,499.48 162.59,499.06 159.45,498.44 156.31,498.02 152.96,497.81 149.61,497.39 146.06,497.39 
		142.5,497.18 138.73,497.18 87.05,497.18 81.82,496.97 76.79,496.76 71.77,496.34 66.96,495.51 62.36,494.88 57.96,493.83 
		53.57,492.58 49.38,491.32 45.62,489.86 41.64,488.18 37.87,486.3 34.53,484.41 31.18,482.32 28.04,480.02 24.9,477.51 22.18,475 
		19.46,472.28 16.95,469.56 14.65,466.63 12.35,463.49 10.46,460.14 8.58,457 6.91,453.45 5.44,449.89 4.18,446.12 2.93,442.57 
		2.09,438.59 1.26,434.61 0.63,430.64 0.21,426.45 0,422.27 0,418.08 0,0 	"/>
	<path class="st1" d="M2.51,2.72h220.76h220.55v415.36c0,44.78-28.67,76.38-84.33,76.38H307.6c-39.97,0-65.49,13.81-84.33,32.43
		c-18.83-18.62-44.57-32.43-84.33-32.43H87.05c-55.66,0-84.54-31.6-84.54-76.38V2.72z"/>
	<path class="st0" d="M98.77,377.49c3.35-12.55,11.09-19.04,23.85-21.13c12.35-2.09,25.95-9,40.8-15.9c6.28-4.6,7.11-2.51,2.51,6.49
		l-7.12,8.16c-3.77,4.18-4.6,8.58,0.63,12.76c7.11,3.56,10.04,6.91,9,9.83c-7.74-2.09-14.86-1.05-20.93,4.61
		c-4.39-1.26-9.63-0.63-16.95,2.93c-3.77-2.09-7.95-2.3-12.97-0.84c-1.25-3.14-4.81-3.98-10.88-2.93
		C105.04,379.58,102.32,378.32,98.77,377.49z M184.35,377.49c-7.53-7.74-8.37-14.65,0.21-20.51c4.81-3.35,11.93-11.09,20.72-22.81
		c5.86-0.42,11.09-1.68,16.95-2.51c23.43-2.93,45.62-7.95,63.4-17.79c3.35-1.05,5.86-0.42,7.32,2.09l13.81,18.21l-3.98,1.46
		l10.46,7.95c-1.88,1.46-0.63,2.51,1.67,3.35c-1.26,1.88-0.42,3.77,1.46,3.56c0.84,2.51,2.72,6.28-2.72,1.05
		c-3.35-1.67-3.77,0-1.05,5.23l5.65,8.16c0.42,3.77,1.88,6.9,4.81,9.63l4.6,9.42c0,1.46,0.84,2.93,1.26,4.18
		c0.63,3.56,1.46,5.44,4.39,5.86c-2.93,5.65-6.7,10.88-12.97,14.23c-12.35,6.7-22.18,3.98-21.13-12.35
		c0.63-8.79,2.3-16.11,2.51-25.11c3.56-14.02,0.21-21.13-11.93-21.97c-6.28,0.21-11.09,0.21-14.65,2.72
		c-3.35,2.3-8.16,1.46-14.65-2.3c-12.56-9.42-21.97-14.44-28.25-14.44c6.07,6.91,7.74,13.81,2.93,20.72c5.02,2.3,4.81,4.6-0.21,6.9
		c-12.14,0.42-25.74-2.09-39.97-6.07c-4.6-0.84-5.44,0-2.3,2.51c10.46,4.19,16.11,10.46,16.11,19.25
		c-6.7,0.21-12.35,0.63-15.48,1.26C190.42,381.25,187.28,381.05,184.35,377.49z M303,445.08c-3.56,1.88-4.39,3.98-1.05,6.07
		c2.3,1.47,3.56,1.67,3.98,0.63C310.11,450.94,304.25,448.63,303,445.08z M193.56,435.87c-2.3,1.67-3.35,3.56-2.09,6.07l4.6,3.97
		c1.88-1.67,1.47-4.18-0.63-5.86C194.39,439.22,193.77,437.75,193.56,435.87 M139.99,413.9c3.35,1.46,3.35,4.6-0.84,6.49
		C136.01,419.13,136.22,416.41,139.99,413.9 M78.89,289.6c15.07,17.37,17.79,37.04,5.44,59.85c-4.6,11.09-3.98,18.2,2.09,21.55
		c1.68-3.77,3.14-9.63,3.98-15.69c1.26-9.42,7.32-8.37,15.28-16.53c8.58-8.79,6.07-18,5.23-32.64
		c-1.46-31.39,5.02-49.59,14.23-59.85C101.7,239.8,87.47,257.17,78.89,289.6 M93.74,29.92c-2.72,0.42-3.77,2.3-3.35,5.44
		l18.62,26.37c0.63,1.26,1.88,2.51,1.67,3.56c-1.46,3.56-2.09,5.86,1.05,9l6.28,6.07c0.63,4.39,1.47,7.95,2.93,9.21
		c-1.46,2.93,0.42,5.65,2.93,8.37c0.63,0.84,0.84,1.88,1.88,2.72l1.05,9c-8.79,7.32-13.18,12.76-14.02,16.11
		c-0.42,1.88-0.84,3.35,0.42,4.39l12.35-1.26c1.05,0.63,2.3,0.84,2.72,1.67c1.88,4.39-0.63,11.3-7.32,12.14
		c-15.28,3.77-26.37,9-21.97,19.25c5.65,7.32,2.72,13.81-6.91,19.67c-2.3,2.09-3.35,4.81-2.93,8.37c-2.72,2.3-4.81,5.86-6.7,9.83
		c-1.46,4.19-1.46,6.07,1.46,5.65c21.34-7.12,42.27-10.04,57.13,2.3c7.32,6.07,6.07,9.21,17.58,9.83c-1.26,4.81,0,7.53,4.18,8.37
		l0.63,5.44c-4.6,1.05-9.84,1.05-14.44,2.3c-5.23,1.25-10.25,3.35-14.86,3.35c-3.98-3.14-8.58-5.02-12.35-7.32
		c-19.25-11.93-35.36-12.56-49.38,3.77c-7.32,8.58-14.02,20.3-19.46,38.29c-1.05,3.14-3.56,4.39-8.58,1.46
		c-10.04-8.16-11.93-15.48-6.9-20.3c7.11-6.7,9.83-2.72,6.07,0.84l0.21,0.84c5.44,0,7.53,3.77,9.63,7.74
		c4.61-11.93,2.09-20.09-4.39-26.58l-1.47-0.21l0.63,10.25c-11.09-2.3-17.16,6.28-18,14.23c-0.63,7.74,2.93,14.65,12.97,20.51
		c5.65,1.88,7.33,8.37,2.93,14.86c-10.88,15.9-9.21,32.85,0.63,54.61l1.26-0.63c2.09-23.86,7.12-35.99,15.07-38.29
		c2.51-0.84,4.81-2.51,6.91-5.23c2.3-3.56,3.56-3.14,5.23,0.63c4.39,10.04,3.98,19.67-2.09,29.29
		C59.22,358.24,58.59,375.4,78.26,389l0.63,1.67l-5.23,6.7c-1.67,2.72-0.42,6.07,4.19,9.83c3.35,3.98,5.02,10.46,6.07,18.62
		c-1.67,2.51-1.88,5.65-0.84,9.21c2.93,4.18,10.04,6.49,20.09,5.44c1.05-0.21,0.84-1.05,0.84-2.09c0.84-4.61-2.3-7.95-5.65-13.6
		c-9.84-8.79-11.93-17.16-8.79-25.32l1.47-2.3c7.74,2.72,17.58,5.86,26.57,7.12c-3.77,7.74-3.35,17.37,0,23.02
		c6.28,10.88,12.97,15.9,25.74,14.86c16.95-1.46,25.32-15.48,19.04-34.53c6.07-3.35,10.04-3.14,12.14,0.63
		c-0.21,8.58,3.56,5.86,3.76,14.23c-10.04,8.79-13.81,16.32-2.93,21.13c5.65,5.65,2.51,7.74-4.81,8.16
		c-7.74-1.88-13.39-1.46-14.44,4.81c-7.12,0.42-9.21,4.6-9,11.3c2.09-5.02,6.07-5.44,8.16-4.18c3.77-0.21,7.74,0.84,11.09-0.63
		c3.14-1.46,6.7-1.46,10.67,0.21c2.09,0,3.56,0.84,4.6,2.51c5.02,5.23,4.39-0.63,15.48,6.07c2.72,0.21,7.32,0,8.16,4.39l1.04-3.98
		c0.84-1.46,0.42-3.14-1.26-4.6c-3.56-4.19,2.09-4.39,11.93-2.51c5.23,2.3,10.04,3.35,13.81,2.72c4.39-4.4,5.44-1.67,6.28,4.18
		c3.14-8.58,1.05-13.18-7.53-13.6c1.46-4.6,2.09,2.3,5.23-3.35c2.72-1.26,5.44,0,8.16,2.72c0.63-4.19-1.88-6.7-7.33-7.95
		c-1.26-3.56-3.97-3.77-7.74-0.21c-15.9-4.18-17.58-13.81-8.58-15.69c4.81-1.25,6.7,3.77,10.46,5.23c2.93,1.05,4.39,0.63,8.37,1.05
		c4.39,0.21,8.37,1.05,11.09,2.93l3.14,1.05c1.67-1.25,3.35-1.05,5.44,0.84c2.3,3.35,4.6,3.77,6.7,1.05
		c6.28-5.02,15.69-5.02,15.07-1.88c-0.21,4.6,0.63,6.28,2.3,5.86c1.46,0.21,2.09,2.09,2.09,5.44c-6.07-0.21-10.25,0.84-10.25,5.23
		c-5.65,1.67-5.44,5.65-2.93,10.88c-0.63-10.04,7.95-1.88,16.32-7.32l5.86-0.63c0.63,2.93,3.35,4.18,8.58,3.98
		c1.88-0.84,4.81-0.84,6.7-1.26c10.25-2.72,18.41-2.09,24.48,6.28c1.26-2.51,1.05-5.23-0.63-7.74c7.11-4.81,14.86-2.93,10.25,4.81
		c4.19-2.09,8.37-12.76,2.93-12.55c2.3-6.28,11.72-1.05,9,3.56c3.98-2.09,4.6-5.23-0.21-9.21c-0.63-3.56-3.56-4.6-8.79-3.14
		c-2.93-5.02-6.7-5.23-11.72-0.84c-5.02,2.3-9,2.51-11.51-0.84c-2.72-4.39-2.09-6.49,1.67-5.02c1.88,0.63,2.72-1.67,5.02-6.07
		c0.84-1.88,2.51-3.35,3.77-5.86c5.44-0.84,9.83-5.65,15.48-15.27c3.98-1.88,5.86-9.63,6.07-21.76c1.67,0.84,3.77,0.21,6.49-1.46
		c-1.88-0.21-2.72-0.84-2.72-5.65h5.23c2.09-0.84,2.93-1.67,2.72-2.72c0-0.84-2.09-0.63-3.56-2.93c-0.63-2.93-2.3-5.86-5.44-8.79
		l-5.02-8.16c-3.56-11.3-7.74-17.79-12.97-13.6l-1.46-0.84c-3.98-4.39-6.91-10.25-9.21-16.74c0.21-7.95-8.16-8.37-12.56-0.84
		l-1.26-6.28l-2.09,3.35l-13.18-19.04c1.46-0.21,3.98-1.67,5.44-1.88c16.11-1.25,32.22-6.07,48.76-15.28l11.72-3.56
		c5.23-2.09,6.9-0.42,9.63,2.3l11.93,12.35c2.3,2.51,2.3,4.81,1.05,7.32c-1.26,2.51,1.67,5.86,5.86,9.42
		c3.77,4.18,4.18,9.83,0.84,16.95c-1.88,4.6-1.46,7.53,1.26,9l8.16,5.86c5.44,4.39,8.16,2.93,7.95-4.81
		c-0.42-3.98-1.67-7.74-3.98-11.72c-2.72-4.81-4.6-9.42-4.81-14.23c-0.21-9.63-1.46-14.65-5.44-17.99
		c-4.6-4.39-8.58-9.42-11.72-14.86c-1.05-3.14-1.88-5.02-3.56-5.86c-0.42-10.04-7.74-15.07-12.35-12.35
		c-3.98,0.84-7.74,1.26-11.93,0.63v-2.3c5.23-2.93,14.23-12.14,23.23-22.18c3.35-4.18,5.02-2.51,8.37,0.84l12.97,13.6
		c-0.42,6.7,0.63,11.09,5.23,10.67c3.14,5.44,4.6,10.67,1.67,12.97c-2.93,2.51-5.23,4.19-5.23,7.74c0.63,5.23,6.7,10.67,13.39,13.18
		c0.63,0.21,1.67-0.21,2.09-1.05c1.88-4.6,2.09-10.04,0.21-15.48l-2.3-7.74c-0.42-3.14,0-5.65,0.21-7.95
		c0.63-6.07,0.84-9.42-5.65-14.02c-8.16-8.37-15.07-16.95-20.72-25.95c0.21-11.93-10.04-15.07-16.53-2.09l-12.56,8.79
		c-3.14,2.09-5.23-1.26-5.23-4.6c-1.26-15.69-11.93-28.25-23.65-40.39c-6.28-19.04-14.86-34.95-18-49.59
		c11.93,1.26,20.93,3.56,24.48,7.11c5.23,5.65,11.93,8.58,13.6,4.6c0.63-1.26-3.14-3.56-5.02-5.44c2.09,0,4.81,1.88,7.74,4.81
		c5.23,0,6.9-3.98,5.44-9.42c0.63-4.39,0.42-7.74-1.46-9.21l-4.39-2.51c-7.33-7.95-13.39-15.9-18.41-24.69
		c-0.63-1.05-0.84-1.88-0.84-2.72c0-3.56-1.05-6.7-4.6-9.83l1.67-0.84l-0.21-1.26l3.77,0.84l-3.77-6.28
		c-2.09-7.74-9.21-9-19.88-5.86c-1.46,0.42-3.35-1.26-5.23-3.35c-6.7-6.49-13.81-10.04-11.3-5.23c0.42,0.84,2.51,3.14,0.21,2.93
		l-11.51-1.88c-2.51-0.42-2.93,0.42-2.3,1.67c2.09,2.3,4.19,4.39,5.02,6.9L273.7,86c-2.93,0.21-5.44,1.46-8.16,1.26
		c-7.95-6.7-17.79-1.68-28.04,6.07l-1.46-0.63l-0.21-11.93h1.26l-1.05-7.74h0.84c0.84-11.72-1.47-19.25-5.86-24.48
		c-0.84-3.56,2.72-3.14,3.56-4.18c3.35-4.18,3.14-9,3.14-11.51c-0.63-5.02-2.3-6.7-4.81-5.02h-2.93c-3.14-0.42-5.65-1.46-6.91-2.93
		c-3.35-2.3-6.49-2.3-9.63-0.21c-15.07,3.77-17.79,15.49-36.2,7.53c-2.09-0.21-2.51,0.63-1.67,2.3c3.14,4.18,7.53,6.91,12.35,9
		c-1.67,1.25-5.02,1.46-10.46,1.04c3.14,4.18,9.21,6.28,18.62,6.07c3.56,2.09,7.74,1.26,12.35-0.63c2.51-1.46,2.72-0.63,1.05,2.72
		c-4.81,3.98-8.16,11.72-8.79,25.74c-1.88,2.93-2.93,6.07-3.56,9.63c-6.9-1.88-12.97-3.14-15.48-1.05l-2.72-0.21
		c-6.07-4.6-11.93-4.39-16.74-1.26l-10.67,8.16c-3.98,2.72-7.32,2.93-7.95-0.42l-4.39-9.42c0.21-6.7-2.3-9.84-6.91-10.25
		c-2.09-1.88-3.56-4.18-3.98-6.7l-3.14-3.98c1.05-3.56-0.42-4.81-2.93-4.81c-2.72,0-5.23-0.42-6.69-1.46L93.74,29.92"/>
	<path class="st2" d="M395.69,339.82l2.09-4.39c1.05-1.47,1.88-1.47,2.51-0.21l5.02,4.6c-1.05,1.05-3.35,1.05-5.02,1.47l1.67,2.72
		l-1.67,0.84l-0.63,2.3C396.53,344.64,394.65,342.33,395.69,339.82 M400.09,324.76c0.63,0,1.26,1.88,1.26,3.98
		c0,2.09-0.63,3.97-1.26,3.97c-0.84,0-1.26-1.88-1.26-3.97C398.83,326.64,399.25,324.76,400.09,324.76 M397.16,307.81
		c0.42-0.42,1.46,0.42,2.09,1.47c0.84,1.26,1.05,2.51,0.63,2.72c-0.42,0.21-1.46-0.42-2.09-1.67
		C396.95,309.06,396.74,308.02,397.16,307.81"/>
	<path class="st2" d="M410.55,287.3c-0.63-0.63-1.26-0.42-1.88,0.21c-2.3,2.72-2.72,4.81-1.46,6.7l4.6,3.56
		c1.47,1.26,3.14,0.63,2.3-0.63l-1.67-2.3c1.05,0.42,1.88,1.47,2.93,1.47c0.84,0,1.05-1.26,0-2.09c-1.67-1.67-2.09-2.3-1.05-3.35
		c0.42-0.42,0.42-0.84-0.21-1.26L410.55,287.3z M410.55,267.84c-2.09-2.51-1.67-3.98,1.05-3.77c-2.51-3.98,0.21-4.81,2.72-0.63
		c1.26,1.88,1.46,5.65,1.05,10.04c-0.21,1.26-1.67,1.67-2.09,0C412.43,270.98,411.6,269.31,410.55,267.84 M412.22,284.37l1.05-4.81
		c0.21-1.26,0.63-1.05,1.25,0c1.67,2.09,3.14,4.18,3.56,7.74c0.42,1.46,0.21,2.3-0.84,2.51c-1.25,0.21-2.3-0.42-3.35-1.46
		C412.43,286.67,412.01,285.63,412.22,284.37"/>
	<path class="st2" d="M338.15,230.8c0.21-8.79,1.26-15.9,1.26-22.39c0-2.72,1.88-2.72,1.88,0.42c0.42,6.9-0.42,14.02-1.26,21.34
		C340.03,231.22,338.15,233.11,338.15,230.8 M350.29,265.75c0.42,0,0.63,0.42,0.63,0.84c0,0.42-0.21,0.84-0.63,0.84
		c-0.42,0-0.63-0.42-0.63-0.84C349.66,266.17,349.87,265.75,350.29,265.75 M329.57,234.78l0.84-0.63c0.21-0.21,0.63-0.21,0.84,0.21
		l3.14,3.98c0.21,0.21,0.21,0.63,0,0.84l-0.84,0.63c-0.21,0.21-0.63,0.21-0.84-0.21l-3.35-3.98
		C329.15,235.41,329.15,234.99,329.57,234.78 M359.7,257.17l1.26-8.16l-1.46,2.93c-1.26,0-1.46-1.26-1.67-3.77
		c-0.21-2.93,0-3.98,1.67-3.35l1.05,2.72l0.84-1.88c1.46-0.84,1.67,0,1.05,2.51l-0.42,9C361.17,258.42,360.54,260.73,359.7,257.17
		 M381.88,231.43c-1.26-1.67-1.46-3.77,0-5.23c1.26-1.46,3.14-1.67,4.6-0.63c1.26,0.63,1.67,1.46,1.67,2.09l-2.51,0.84l3.14,0.84
		c1.67,1.46,0.21,4.18-1.26,1.88c-1.26-1.26-2.72-1.46-4.18-0.63C383.35,232.48,382.93,232.9,381.88,231.43 M351.54,246.08
		c0.42-0.21,1.26,0.63,1.88,1.67c0.42,1.05,0.63,2.09,0,2.3c-0.42,0.42-1.26-0.42-1.67-1.46
		C351.12,247.54,351.12,246.29,351.54,246.08 M332.29,244.4c0.42-0.21,1.26,0.42,1.88,1.46c0.63,1.26,0.63,2.3,0.21,2.51
		c-0.42,0.21-1.26-0.42-1.88-1.67C331.87,245.66,331.87,244.61,332.29,244.4 M337.94,234.15c1.46-0.21,3.35,1.46,3.77,3.77
		c0.63,2.51-0.42,4.6-1.88,5.02c-1.67,0.21-3.35-1.26-3.98-3.77C335.43,236.66,336.27,234.57,337.94,234.15 M340.66,247.96
		c-0.84-3.98,0.42-4.6,1.88-0.84c2.3,5.44,3.56,12.35,3.35,20.72c0,3.14-2.51,3.35-2.72,0.42
		C342.33,260.94,342.12,254.03,340.66,247.96 M364.93,254.45c0.21-3.98,1.05-8.16,2.51-12.14c0.63-1.88,1.46-2.09,2.51-1.05
		c3.77-6.07,2.93-2.72,1.26,1.88l1.05,0.63c4.6-8.58,2.72-1.67,2.3,2.09c-3.35,4.19-5.65,5.02-6.7,2.09l-1.05,5.44
		C365.98,255.91,365.35,256.33,364.93,254.45"/>
	<path class="st2" d="M80.35,400.09c-1.47,5.65-7.74,2.72-4.6-2.3c7.74-12.55,15.28-25.11,16.74-42.06c0.42-6.07,4.18-8.79,9-11.51
		c10.25-5.65,13.81-15.28,13.6-26.16c-2.3-47.29,10.88-68.01,31.18-76.17l-0.63,1.88c-18.2,11.09-25.74,32.43-25.95,61.52
		c-0.21,6.49-0.84,13.18,0,20.3l0.63-1.46c0.63-17.16,0.63-31.81,2.72-41.85c2.3-11.09,5.86-17.79,9.42-22.6
		c1.26-1.67,2.3-3.77,3.56-5.02c1.67-1.67,3.56-2.09,5.02-3.56l-0.21,1.46c-6.9,6.9-12.76,15.69-15.48,27.2
		c-2.93,13.18-3.14,28.46-2.09,44.36c-0.21,2.3-0.63,4.18-1.46,5.86l0.84-0.42c1.26-2.51,1.88-5.44,1.88-9
		c-1.47-19.25,0-38.71,6.9-52.31c4.81-9.42,7.74-12.97,21.13-20.51l-0.42,1.47c-11.3,7.74-21.97,16.74-24.06,47.29l0.63-0.63
		c2.09-23.23,10.46-40.39,25.95-46.66c5.44-2.3,11.93-1.88,19.04-1.88l-1.26,1.05c-10.88-1.05-20.3,2.72-28.46,11.3l1.25,0.42
		c7.74-7.95,16.74-12.35,28.04-9.83l-0.84,1.67c-7.95-1.26-14.65,1.67-20.93,6.49v0.84c7.11-4.81,13.6-7.11,19.88-5.86
		c2.09,0.21,2.72,1.88,2.09,4.39l-1.26,11.51c-0.21,11.09-0.84,21.97-3.56,31.81l-1.05,0.84l1.05-19.25l-4.39,23.85
		c-0.42,2.72-2.3,2.3-1.88-0.21c1.05-5.02,2.72-11.93,3.77-19.25c-1.05,0.21-1.88,0.84-2.09,2.3c-1.26,10.25-2.93,18.62-5.23,21.55
		c1.46-6.49,2.3-12.97,2.51-19.46l-1.25,1.05l-3.14,18.21c2.3,1.26-0.63,3.14-1.46,0.84l1.05-10.04l-0.84-0.21l-4.4,16.11
		l1.46-11.09l-3.77,11.09h-1.46l1.88-9.42l-6.28,17.16c-1.88,0.42-2.09-0.21-0.63-3.14l3.98-11.72l-1.26,0.21
		c-2.51,8.58-4.39,14.65-7.53,16.53l-1.05,0.21c4.39-7.74,5.02-11.51,5.23-15.28c-2.3,7.32-4.6,12.56-8.79,16.95
		c-0.63-0.63,0.21-2.51,2.72-7.12l2.3-6.07c-1.05-1.26-1.67-0.84-2.3,1.05c-1.46,5.23-2.93,8.79-5.65,12.14l2.72-10.25l-0.42-1.26
		c-1.88,6.07-4.39,11.3-7.95,14.44l1.67,0.84c5.65-3.77,13.39-2.51,21.34-6.07c1.67-0.84,3.35-1.26,4.39-0.42l-1.47,3.98l-1.46-2.3
		c-0.84,3.14-2.09,6.07-3.77,7.32l-0.63-4.6c-3.35,7.32-5.65,11.3-5.86,7.74l0.63-4.4c-2.51,2.51-4.18,5.44-4.81,9
		c-1.26-0.21-1.46-2.72-1.05-6.28l-2.09,7.74c-1.88,0.42-2.3-1.67-1.26-6.28c-1.67,4.18-3.14,7.11-3.77,7.53
		c-0.84-1.26-1.05-3.35-0.42-6.07l-2.09,3.98c0,2.93-0.84,3.98-2.09,3.77c0.63-4.39,0.63-6.07-0.21-5.02l-2.51,6.7
		c-1.47,0.84-1.88-0.84-1.67-4.6c-2.3,1.26-1.67,5.86-3.35,7.74c-1.26-0.84-1.46-2.93-1.26-5.23c-1.05,3.56-2.09,5.65-3.56,5.86
		l-0.42-6.9c-0.63,3.14-1.47,5.65-2.72,7.74l-1.88-5.02l-0.84,4.81c-1.47,0.84-2.72-0.42-3.56-3.56
		c-0.21,6.49-0.84,11.93-5.02,14.65c0.42,1.67-1.46,6.07-3.97,11.09l6.7-9.84c1.46-0.42,2.09,0.42,1.46,3.56l-6.9,11.3
		c-1.05,1.26-2.3,0.84-3.56,0c-1.46,5.65-3.97,9.63-6.49,13.39c2.93-1.88,4.81-5.86,7.11-11.3c0.42-1.67,2.3,0.42,1.67,3.77
		l-1.67,1.46l0.21,2.51l-2.09,0.21v3.35l-1.88,0.84C87.26,399.46,84.96,402.39,80.35,400.09z"/>
	<polygon class="st2" points="119.69,242.52 127.85,241.06 127.43,242.73 	"/>
	<path class="st2" d="M43.52,306.34c1.05-3.98,3.77-6.28,6.49-11.09c1.67-2.72,2.3-0.84,2.09,1.67
		C48.55,302.16,45.83,304.88,43.52,306.34"/>
	<path class="st2" d="M129.11,238.75c-13.39-11.93-26.58-18.2-36.41-16.11c-18.62,4.19-27.62,21.34-33.06,37.67
		c3.14-5.44,5.86-9,9.21-10.04c-9.21,14.65-14.44,29.51-15.28,46.66c-0.63,2.09-1.67,3.98-3.35,5.44c-5.86,4.4-5.44,7.95-6.49,11.51
		c1.25-0.84,2.72-3.56,4.6-5.86c2.51-3.14,5.44-6.49,6.7-11.93c1.88-7.32,2.72-14.65,4.18-20.09c2.09-7.11,4.18-11.93,7.95-18.2
		c6.7-11.09,15.28-21.14,25.11-25.32v0.84c-9.63,5.23-16.53,13.18-24.27,25.53c-1.88,3.14-3.14,6.07-4.81,10.46
		c-1.67,3.97-3.35,8.58-3.77,13.81c-1.25,11.3-3.98,18.62-7.11,23.02c-3.35,4.39-5.44,6.28-6.07,8.37
		c-0.42,1.05-1.26,2.93-1.05,5.02c7.32-13.81,10.67-12.55,13.81-22.39c4.39-15.07,1.46-30.55,21.55-52.52h1.47
		c-9.63,11.09-16.11,21.55-19.46,43.94c-0.63,3.77-1.26,9-2.93,12.14c-2.51,4.81-7.74,8.58-9.21,13.39l1.05-0.21
		c2.51-2.51,7.53-8.37,9.42-12.35c6.07-11.72,3.98-27.41,11.72-39.97c10.04-16.53,17.79-25.11,30.13-29.92l1.47-0.21
		c-16.95,9-19.88,15.48-27.2,25.53c-2.51,3.35-4.39,6.7-6.49,12.97c-1.88,5.44-3.14,13.81-4.19,20.3
		c-1.25,8.37-4.39,13.39-7.74,17.58c-1.88,2.3-3.35,3.35-4.81,5.44c-1.26,1.88-2.51,5.44-3.14,7.95l1.05-0.42
		c4.6-12.35,7.32-9.63,10.67-13.81c1.88-2.51,4.81-7.53,5.65-13.39c1.26-12.14,3.77-21.34,7.95-29.3
		c4.39-8.79,11.3-18.41,19.04-24.9c3.56-2.93,6.28-4.6,11.09-6.07h1.05c-5.65,3.77-9.42,4.81-13.81,9
		c-7.11,6.7-14.02,16.74-17.37,25.32c-3.56,8.16-5.44,17.16-6.49,26.36c0.21-1.26,0.84,0.63,1.26-0.42
		c3.77-21.76,11.51-37.04,21.34-46.87c5.44-5.65,11.93-9.84,18-11.3l3.98-0.21c-9.21,2.51-18,6.91-24.69,17.16l1.26-0.21
		c8.16-8.79,16.32-12.76,24.27-14.65l1.25,0.21c-5.44,1.88-10.46,3.98-13.6,6.9l0.42,1.26C109.02,241.89,118.23,239.8,129.11,238.75
		"/>
	<path class="st2" d="M45.41,330.2c-1.05-1.67-1.47-3.56-1.47-5.23c0.21-2.51,2.09-2.3,2.51-0.63
		C46.87,327.48,45.41,327.69,45.41,330.2"/>
	<path class="st2" d="M69.68,352.59l2.09-2.3c1.05-0.63,2.3-0.84,3.14-0.42C74.7,350.91,72.4,351.96,69.68,352.59"/>
	<path class="st2" d="M67.8,359.07l2.72-2.93c1.47-1.05,3.14-1.26,4.39-0.63C74.49,356.77,71.56,358.24,67.8,359.07"/>
	<path class="st2" d="M68.01,362.42l3.14-2.72c1.46-0.84,3.35-1.05,4.6-0.21C75.33,360.54,71.77,361.79,68.01,362.42"/>
	<path class="st2" d="M68.84,365.35l2.93-2.51c1.46-0.84,3.14-0.84,4.39-0.21C75.54,363.89,72.4,364.93,68.84,365.35"/>
	<path class="st2" d="M70.31,368.49l1.88-2.09c1.05-0.63,2.3-0.84,3.14-0.42C75.12,366.82,72.82,367.86,70.31,368.49"/>
	<path class="st2" d="M80.98,335.01l1.67-1.05c0.84-0.42,1.88-0.21,2.3,0.21C84.75,334.8,82.86,335.01,80.98,335.01"/>
	<path class="st2" d="M78.26,338.57l3.56-1.67c1.67-0.21,3.35,0,4.18,1.05C85.16,338.99,82.03,339.19,78.26,338.57"/>
	<path class="st2" d="M80.35,329.99l2.72-2.09c1.26-0.63,2.72-0.63,3.77,0C86.21,328.94,83.49,329.57,80.35,329.99"/>
	<path class="st2" d="M82.44,324.97l2.72-0.63c1.25,0,2.51,0.63,2.93,1.47C87.47,326.43,84.96,326.01,82.44,324.97"/>
	<path class="st2" d="M76.59,381.25l1.88-1.05c0.84-0.21,1.88,0,2.3,0.21C80.56,381.05,78.68,381.46,76.59,381.25"/>
	<path class="st2" d="M82.44,374.77l-4.6,0.63c-1.88,0.84-3.35,2.51-3.56,3.98C75.75,379.79,79.1,377.7,82.44,374.77"/>
	<path class="st2" d="M80.35,372.68h-3.56c-1.67,0.42-2.93,1.46-3.14,2.72C74.7,375.81,77.63,374.56,80.35,372.68"/>
	<path class="st2" d="M96.67,389.83l2.09-4.39c1.05-1.46,2.93-2.3,4.6-2.3C103.37,384.6,100.44,387.53,96.67,389.83"/>
	<path class="st2" d="M106.09,385.44l3.77-1.46c1.88,0,3.56,0.63,4.39,1.67h-0.21c-0.21,1.25-2.72,3.56-5.86,5.23l1.88-3.56
		c0.42-0.42,0.84-0.84,1.46-1.26h-1.25c-0.84,1.05-2.51,2.3-4.4,3.56l1.47-2.93c0.21-0.42,0.63-0.63,0.84-0.84
		C107.55,385.65,106.93,385.65,106.09,385.44"/>
	<path class="st2" d="M124.29,386.07c1.26-0.63,5.65,0.42,5.02,1.88c-0.21,1.26-2.93,3.56-5.86,5.65l1.67-3.77
		c0.42-0.63,0.84-0.84,1.26-1.26h-1.46c-0.84,1.05-2.3,2.3-4.19,3.56l1.26-3.14c0.21-0.21,0.63-0.42,0.84-0.63
		c-0.42,0-0.84-0.21-1.05-0.21c-0.63,0.84-1.88,1.67-3.14,2.51l0.84-2.09C120.95,386.69,121.99,386.9,124.29,386.07"/>
	<path class="st2" d="M151.29,385.44c0-3.56,2.72-5.65,7.95-6.28c6.07-0.84,13.39,0.42,11.3,3.14h-0.63l-1.05,2.51l-2.3,4.18
		l1.46-4.6l0.63-2.3c-0.63-0.21-1.67-0.63-2.72-0.84l-1.88,1.88l-3.14,3.56l2.51-4.18l1.05-1.68c-0.42,0-0.84-0.21-1.26-0.21
		l-1.88,1.88l-3.14,3.56l2.51-3.98l1.05-1.67h-1.67l-1.26,1.88l-2.93,3.77l2.09-4.39l0.63-1.05c-0.84,0.21-1.67,0.42-2.3,0.63
		l-1.46,3.56l0.63-3.35C153.59,382.3,151.92,383.35,151.29,385.44"/>
	<path class="st2" d="M131.62,388.37v-0.21v-0.21h0.42l5.23-3.35c3.56-1.67,7.95-2.3,7.32,0.63c0,0.21-0.42,0.63-1.26,0.84
		c0,1.05,0.21,2.3,0.21,3.56l-1.46-3.14h-0.84c0,1.67,0,3.35,0.21,5.02l-2.09-4.6c-0.42,0.21-0.63,0.21-1.05,0.21
		c0.21,2.3,0.21,4.81,0.21,7.32l-2.93-6.07v-0.42c-0.42,1.26-0.63,2.72-1.05,3.98l-0.63-4.19c-0.63,1.67-1.46,3.77-2.09,5.86
		l-0.21-4.4v-1.05V388.37z"/>
	<path class="st2" d="M71.77,246.92c2.93-2.93,6.07-6.07,9-9C77.21,239.38,74.07,242.31,71.77,246.92"/>
	<path class="st2" d="M121.16,410.55c-0.84-2.09-1.88-3.98,0-8.79c1.67-4.4,3.77-5.65,5.02-5.44c1.46,1.67-0.42,5.02,0.42,9.21
		l-3.35-2.93l1.05,5.65l-2.51-2.72L121.16,410.55"/>
	<path class="st2" d="M150.87,415.99c-0.42-0.84-1.05-1.26-1.26-1.26c-0.42,0.21,0,1.05,0.42,1.88c0.63,0.84,1.26,1.26,1.47,1.26
		C151.71,417.66,151.5,416.83,150.87,415.99"/>
	<path class="st2" d="M150.87,419.76c-0.84-1.26-1.67-1.88-2.09-1.67c-0.42,0.21,0,1.26,0.84,2.51c0.84,1.26,1.67,1.88,2.09,1.68
		C151.92,422.06,151.71,421.01,150.87,419.76"/>
	<path class="st2" d="M148.99,423.31c-0.63-1.05-1.26-1.67-1.46-1.67c-0.42,0.21-0.21,1.26,0.21,2.3c0.63,0.84,1.26,1.67,1.46,1.46
		C149.61,425.41,149.4,424.36,148.99,423.31"/>
	<path class="st2" d="M147.1,426.87c-0.42-1.67-1.47-2.93-1.88-2.72c-0.42,0.21-0.42,1.67,0.21,3.35c0.42,1.46,1.26,2.72,1.68,2.72
		C147.73,430.01,147.73,428.55,147.1,426.87"/>
	<path class="st2" d="M122.62,425.41c1.26,0.21,2.09,0.63,2.09,1.05c-0.21,0.21-1.25,0.42-2.3,0.21c-1.05-0.21-2.09-0.63-1.88-0.84
		C120.53,425.41,121.57,425.2,122.62,425.41"/>
	<path class="st2" d="M121.57,422.69c1.46,0.21,2.51,0.84,2.51,1.26c0,0.42-1.26,0.63-2.72,0.42c-1.46-0.42-2.51-0.84-2.51-1.25
		C118.85,422.69,120.11,422.48,121.57,422.69"/>
	<path class="st2" d="M120.95,419.34c1.67,0.42,2.93,1.05,2.93,1.47c-0.21,0.63-1.67,0.84-3.35,0.42c-1.67-0.21-3.14-0.84-2.93-1.46
		C117.6,419.34,119.06,419.13,120.95,419.34"/>
	<path class="st2" d="M175.35,383.77c-1.26-4.18,3.35-5.65,8.16-3.56c3.77,1.46,8.37,2.09,14.44,0.84c2.93-0.63,6.07-0.63,9.21-0.21
		c3.14,1.68,2.93,3.14-0.63,3.77c-6.7,6.28-11.72,12.76-12.55,19.04c-2.3-3.14,2.51-11.09,10.04-20.92
		c-4.6,3.56-8.79,8.16-12.76,13.39c0.84-3.35,3.56-7.95,7.32-12.97c-8.16,6.07-13.81,15.07-12.97,31.81
		c-3.14-10.04-1.05-19.67,5.44-29.08l-9,9.42l8.16-12.55l-5.02,1.67l0.42-1.88l-3.14,1.46v-2.09l-4.19,3.35l0.84-3.56
		C177.65,380.84,176.61,382.09,175.35,383.77"/>
	<path class="st2" d="M179.12,407.41c-0.42,2.51-0.21,5.44,1.88,8.37c0.63,0.63,1.46-0.21,1.05-1.67
		C180.58,412.85,179.75,410.34,179.12,407.41"/>
	<path class="st2" d="M189.58,408.67c0.42,0,0.84,1.05,0.84,2.51s-0.42,2.72-0.84,2.72c-0.42,0-0.84-1.26-0.84-2.72
		S189.16,408.67,189.58,408.67"/>
	<path class="st2" d="M199.21,397.99c0.21,0.21,0.21,1.26-0.21,2.3c-0.63,1.26-1.26,2.09-1.67,1.88c-0.42,0-0.21-1.26,0.21-2.3
		C198.16,398.62,198.79,397.79,199.21,397.99"/>
	<path class="st2" d="M201.51,392.97c0.42,0.42,0,1.26-0.63,2.09c-0.63,1.05-1.46,1.67-1.67,1.46c-0.21-0.21,0-1.26,0.63-2.09
		C200.46,393.39,201.3,392.97,201.51,392.97"/>
	<path class="st2" d="M279.98,401.13c3.56,1.26,3.97,6.28,2.09,12.35C282.28,408.46,281.44,404.48,279.98,401.13"/>
	<path class="st2" d="M261.77,426.87c-0.21-1.05-0.63-2.09-1.26-3.14c0.21,1.26,0.42,2.51,0.63,3.77L261.77,426.87z"/>
	<path class="st2" d="M220.76,363.68c0.42,0,1.05,0,1.67,0.21l1.67,2.72c-0.63,0-1.26-0.21-1.88-0.42L220.76,363.68z"/>
	<path class="st2" d="M217.41,381.88c0.42,0.21,1.05,1.26,1.26,2.3c0.21,1.05,0,1.67-0.42,1.47c-0.42-0.21-1.05-1.05-1.26-2.09
		C216.78,382.51,216.99,381.88,217.41,381.88"/>
	<path class="st2" d="M220.55,381.67c0.21-0.21,0.84,0.63,1.05,1.67c0.42,1.05,0.63,1.88,0.42,2.09c-0.42,0-0.84-0.63-1.25-1.67
		C220.34,382.51,220.13,381.67,220.55,381.67"/>
	<path class="st2" d="M224.32,381.05c0.42,0,1.25,1.26,1.46,2.72c0.21,1.26,0.42,1.88-0.63,1.88c-0.84,0.21-0.63-0.42-0.84-1.88
		C224.11,382.51,224.11,381.05,224.32,381.05"/>
	<path class="st2" d="M227.87,379.79c0.21,0,1.05,1.05,1.67,2.72c0.42,1.47,0.63,2.93,0.21,2.93c-0.42,0.21-1.05-0.84-1.67-2.51
		C227.66,381.25,227.46,380,227.87,379.79"/>
	<path class="st2" d="M231.64,379.79c0.63-0.21,1.26,1.26,1.67,2.93c0.42,1.88,0.21,3.35-0.21,3.56c-0.42,0-1.26-1.46-1.46-3.14
		C231.22,381.25,231.22,379.79,231.64,379.79"/>
	<path class="st2" d="M235.83,380.42c0.42-0.21,1.67,1.88,1.88,3.56c0.42,1.67,0.63,2.51-0.63,2.72c-1.46,0.21-1.05-0.63-1.46-2.51
		C235.41,382.51,235.41,380.42,235.83,380.42"/>
	<path class="st2" d="M238.55,379.58c0.63-0.21,1.26,1.26,1.88,3.14c0.42,1.88,0.42,3.56,0,3.56c-0.42,0.21-1.26-1.26-1.67-3.14
		C238.34,381.25,238.13,379.58,238.55,379.58"/>
	<path class="st2" d="M242.94,378.53c0.42,0,1.04,1.88,1.04,4.19s-0.42,4.18-1.04,4.18c-0.42,0-1.05-1.88-1.05-4.18
		S242.31,378.53,242.94,378.53"/>
	<path class="st2" d="M246.5,379.79c0.42,0,0.84,1.67,0.84,3.56c0,2.09-0.42,3.56-0.84,3.56c-0.63,0-0.84-1.46-0.84-3.56
		C245.66,381.46,245.87,379.79,246.5,379.79"/>
	<path class="st2" d="M250.05,378.74c0.42,0,0.84,1.88,0.84,4.18s-0.42,4.18-0.84,4.18c-0.42,0-0.84-1.88-0.84-4.18
		S249.64,378.74,250.05,378.74"/>
	<path class="st2" d="M253.82,377.7c0.63,0.21,0.84,2.09,0.63,4.81c-0.42,2.3-0.84,4.39-1.46,4.39c-0.42,0-0.63-2.09-0.42-4.6
		C252.78,379.79,253.19,377.7,253.82,377.7"/>
	<path class="st2" d="M258.84,377.49c0.63,0,0.63,2.09,0.21,4.6c-0.42,2.51-1.05,4.39-1.67,4.39c-0.42,0-0.63-2.09-0.21-4.6
		C257.59,379.37,258.42,377.49,258.84,377.49"/>
	<path class="st2" d="M262.82,375.19c0.63,0,1.67,3.14,1.25,6.07c-0.63,3.14-1.46,5.65-2.09,5.44c-0.63-0.21-0.21-2.72,0.21-5.65
		C262.61,377.91,262.4,374.98,262.82,375.19"/>
	<path class="st2" d="M241.48,398.83c0.21-0.21,0.63,0.63,1.05,1.46c0.42,1.05,0.42,2.09,0.42,2.09c-0.21,0.21-0.84-0.63-1.05-1.47
		C241.48,399.88,241.27,398.83,241.48,398.83"/>
	<path class="st2" d="M244.4,397.79c0.42,0,1.05,1.05,1.46,2.3c0.42,1.26,0.42,1.88-0.21,2.09c-0.84,0.42-0.63-0.42-1.05-1.67
		C244.19,399.46,244.19,397.99,244.4,397.79"/>
	<path class="st2" d="M272.65,389v1.46c0.63-0.42,1.26-0.84,1.88-1.26c0.42-3.77,0.42-7.32,0.21-10.25
		C274.12,382.72,273.49,386.07,272.65,389"/>
	<path class="st2" d="M270.56,393.6c-1.05,5.44-1.26,7.11-3.35,9c0.84-3.35,0.42-5.86,0.42-6.49c-0.63,0.21-1.05,0.42-1.46,0.42
		v0.63c0.21,2.09,0.21,4.81-2.3,8.16c-0.21-2.93,1.05-5.65,1.05-8.58c-0.63,0.21-1.05,0.42-1.67,0.63v2.93
		c-0.21,1.26-1.46,4.4-1.67,4.6c0.21,0,1.05-6.07,0.42-7.33c-0.42,0.21-1.05,0.21-1.46,0.42v0.84c-0.21,0.63-0.21,1.26-0.63,1.26
		c-0.21,0-0.42-0.42-0.42-1.05c-0.21-0.21-0.21-0.63-0.42-0.84c-0.21,0-0.63,0-1.05,0.21v0.21c0.21,0.63,0.21,1.05,0,1.26
		c-0.21,0-0.63-0.63-1.05-1.26c-0.42,0-0.84,0.21-1.05,0.21c0.21,1.05,0.21,1.46-0.63,1.88c-1.05,0.42-1.05-0.63-1.26-1.67
		c-0.63,0.21-1.25,0.21-1.88,0.42c0.21,0.84,0,1.46-0.21,1.46c-0.21,0.21-0.63-0.42-1.05-1.26h-1.67c0.21,0.84,0.21,1.26,0,1.46
		c-0.21,0-0.63-0.42-1.05-1.26l-0.21,0.21c0-0.21,0-0.21,0.21-0.21c-0.21-0.21-0.21-0.63-0.42-1.05c-0.63-1.26-0.84-2.51-0.63-2.72
		c0.42-0.21,1.05,0.63,1.67,2.09c0.21,0.42,0.42,1.05,0.42,1.46c0.42-0.21,1.05-0.42,1.46-0.42c0-0.42,0-0.63-0.21-0.84
		c-0.42-1.67-0.42-3.14,0-3.35c0.42-0.21,1.05,1.05,1.46,2.72c0,0.21,0.21,0.63,0.21,1.05c0.63-0.21,1.04-0.42,1.67-0.63
		c-0.21-1.05-0.21-1.46-0.21-2.09c0-0.84,0-1.25,0.21-1.25c0.21-0.21,1.26,1.25,1.67,2.93c0.42-0.21,0.63-0.21,1.05-0.42
		c-0.21-0.21-0.21-0.21-0.21-0.42c-0.42-1.26-0.42-1.67-0.42-2.51c-0.21-0.63-0.21-0.84,0-1.05c0.21-0.21,1.26,1.46,1.67,2.93
		c0,0.21,0,0.42,0.21,0.63c0.42-0.21,0.63-0.21,1.05-0.42v-0.42v-2.93c0-0.84,0.21-1.26,0.42-1.26c0.21,0,0.42,0.42,0.63,1.05
		c0.21,0.84,0.42,1.88,0.63,2.93c0.42,0,0.84-0.21,1.26-0.42v-1.67c0.21-0.63,0.21-1.05,0.42-1.05c0.21-0.21,0.63,1.05,0.84,2.09
		c0.63-0.21,1.05-0.42,1.67-0.63v-2.3c0-0.63,0.21-1.26,0.42-1.26c0.21-0.21,0.42,0.21,0.42,0.84c0.21,0.63,0.42,1.26,0.42,2.09
		c0.42-0.21,0.84-0.21,1.25-0.63c0-1.26,0.21-2.51,0.21-3.35c0.21-0.84,0.42-1.46,0.63-1.46c0.21-0.21,0.42,0.21,0.42,1.05
		c0.21,0.84,0.21,1.88,0.21,3.14c0.42-0.21,0.84-0.42,1.26-0.42c1.46-5.86,3.35-13.81,3.35-20.92c-0.42-0.84-0.84-1.47-1.26-2.3
		c-0.42,7.95-1.05,14.65-3.56,19.04c1.26-6.49,1.46-13.39-0.21-21.34h-0.21h-0.42c0.21,8.58,0.21,15.69-2.09,20.51
		c0.84-6.9,0.63-14.23-2.09-22.39c-0.42-0.21-0.84-0.42-1.26-0.42c1.88,1.67,1.46,8.37,0.63,9.42c-1.26-3.98-0.21-5.23-3.77-7.95
		h-1.05c1.88,2.09,2.09,5.23,1.67,7.74c-1.05-2.3-2.72-5.02-4.39-6.7h-1.88c2.72,3.14,2.72,3.77,2.3,6.28
		c-1.05-2.72-5.23-4.6-6.9-5.86c-0.84,0-1.05,0.21-1.88,0.21c2.09,1.05,5.02,4.81,3.98,6.07c-1.46-1.67-4.6-3.35-5.86-5.65
		c-0.84,0-0.42,0.42-1.25,0.42c0.42,1.26,0,2.09,0.21,3.56c-1.88-0.42-2.93-0.63-5.23-3.14c-0.42,0-1.26-0.21-1.26,0
		c0.21,0.63,1.05,2.09,1.26,2.72c-0.42-0.63-4.81-2.93-5.23-3.56c-0.21-0.21,0.84-0.21-1.67-0.42c0.21,0.63,1.67,3.98,1.88,4.6
		c-0.42-0.63-3.56-3.98-3.98-4.39c-1.05-0.21-1.88-0.21-2.93-0.42l-1.88-3.14c9.42,0.63,19.88,0.21,32.43-2.09l11.72-2.3
		c3.98-1.26,6.7,0.84,7.53,6.91l0.63,6.7c2.51,3.56,3.56,7.95,1.05,14.02c1.05,4.39,3.56,8.16,7.32,11.3
		c3.35,3.14,3.77,7.53-0.21,13.81c-3.56,9.21-8.58,14.86-12.97,20.93c0,0.21-0.42,0.42-0.42,0.63c-0.21,0.21-0.42,0.42-0.63,0.84
		c0.21-0.42,0.42-0.63,0.63-1.05c-0.21-1.05-0.42-2.09-0.63-3.14c0.63,0.84,0.84,1.46,1.05,2.3c0.63-1.05,1.26-2.09,1.88-3.14
		c-0.21-1.05-0.42-2.09-0.63-3.35c0.42,0.84,0.84,1.46,1.26,2.3c0.42-0.84,1.05-1.67,1.46-2.51c-0.42-1.05-0.63-2.3-1.05-3.56
		c0.63,0.84,1.05,1.67,1.46,2.51c0.63-1.05,1.26-2.09,1.67-3.14c-0.21-1.05-0.63-2.09-0.84-3.14c0.42,0.63,0.84,1.26,1.26,2.09
		c0.63-1.88,1.05-3.35,1.26-4.61l-21.55,13.39c1.88-1.67,3.98-3.14,5.86-4.81l-0.21,0.21c-0.21-1.26-0.42-2.72-0.63-3.98
		c0.63,1.05,1.05,2.3,1.46,3.35c0.42-0.42,1.05-0.84,1.46-1.25c-0.21-1.68-0.42-3.35-0.63-5.02c0.84,1.46,1.25,2.93,1.67,4.19
		c0.63-0.42,1.26-1.05,1.88-1.46c-0.21-2.09-0.42-4.4-0.84-6.7c1.05,1.88,1.67,3.77,2.09,5.65c0.63-0.63,1.05-1.05,1.67-1.47
		c-0.21-2.93-0.63-6.28-1.05-9.42c1.46,2.93,2.51,5.65,2.51,7.95c0.42-0.42,0.84-0.63,1.26-1.05c-0.21-3.14-0.63-6.9-1.26-10.25
		c1.67,3.14,2.72,6.28,2.93,8.79c0-0.21,0.42-0.42,0.63-0.63c0-3.35-0.63-7.95-1.26-12.14c2.09,3.98,3.14,7.74,2.72,10.46
		c0.42-0.42,0.84-0.84,1.26-1.26c-0.21-6.07-2.3-11.51-4.19-17.16c-0.84,2.93-0.84,3.97-1.67,3.77c0.42-3.35,0.21-4.81-0.42-5.23
		c-0.42,4.6-1.46,7.53-2.93,9l0.84-7.53H270.56z"/>
	<path class="st2" d="M251.73,406.78c0,1.26,0,2.3-0.84,2.3c-0.84-0.21-0.63-1.25-0.42-2.3H251.73z"/>
	<path class="st2" d="M254.03,404.48c0.42,0.21,0.63,0.63,0.63,2.09c0,1.46,0,2.51-1.05,2.51c-1.25-0.21-1.05-1.47-0.63-2.72
		C253.4,404.9,253.61,404.48,254.03,404.48"/>
	<path class="st2" d="M256.96,404.9c0,2.3,0,3.98-0.84,3.77c-0.84-0.21-0.84-1.88-0.42-3.77H256.96z"/>
	<path class="st2" d="M256.54,401.97c0.21,0,0.21,0.42,0.42,1.05h-1.05C256.12,402.39,256.33,401.97,256.54,401.97"/>
	<path class="st2" d="M259.47,401.55c0.42,0,0.63,0.84,0.63,2.72c0,1.88,0,3.56-1.46,3.35c-1.46-0.21-1.05-1.88-0.63-3.77
		C258.63,402.18,258.84,401.55,259.47,401.55"/>
	<path class="st2" d="M245.03,341.5c5.23,1.26,10.67,5.65,16.11,10.25c0.84,1.46,0.42,1.88-0.84,1.25
		C256.54,351.75,251.1,345.47,245.03,341.5"/>
	<path class="st2" d="M265.12,355.1c1.05,0.63,1.46,1.26,1.25,1.47c-0.21,0.42-1.05,0.21-2.09-0.42c-0.84-0.63-1.46-1.47-1.26-1.67
		C263.24,354.26,264.07,354.47,265.12,355.1"/>
	<path class="st2" d="M212.39,362.84c1.88,0.21,3.77,0.42,5.65,0.63l1.26,2.09l-0.21-0.21c-0.63,0,1.88,6.7-1.47-0.42
		c-0.42-0.84-1.67-0.63-2.72-1.05C213.85,363.47,214.27,363.26,212.39,362.84"/>
	<path class="st2" d="M186.23,453.24c1.04,0,2.09,0.42,2.09,0.84c0,0.21-0.63,0.63-1.67,0.63c-1.25,0-2.09-0.21-2.09-0.63
		C184.35,453.65,185.19,453.24,186.23,453.24"/>
	<path class="st2" d="M188.95,458.47c1.67-0.42,3.56-0.63,3.77-0.21c0.42,0.42-0.84,1.05-2.51,1.67c-1.67,0.42-3.35,0.42-3.77,0
		C186.23,459.51,187.28,458.89,188.95,458.47"/>
	<path class="st2" d="M190.63,460.14c1.88-0.42,3.77-0.63,4.19-0.21c0.21,0.42-1.05,1.26-2.93,1.67c-2.09,0.63-3.77,0.63-4.18,0.21
		C187.28,461.4,188.53,460.56,190.63,460.14"/>
	<path class="st2" d="M193.14,462.03c1.25-0.42,2.51-0.42,2.72,0c0.21,0.21-0.63,0.84-1.88,1.26c-1.46,0.21-2.72,0.21-2.93-0.21
		C190.84,462.86,191.88,462.23,193.14,462.03"/>
	<path class="st2" d="M194.81,463.7c1.25,0,2.09,0.42,2.09,0.84c0.21,0.42-0.63,0.63-1.67,0.63c-1.05,0-2.09-0.21-2.09-0.63
		C193.14,464.12,193.77,463.7,194.81,463.7"/>
	<path class="st2" d="M217.2,455.33c1.67-0.63,3.35-0.63,3.56,0.21c0.42,0.63-0.84,1.88-2.51,2.51c-1.68,0.63-3.35,0.63-3.56-0.21
		C214.48,457.21,215.53,456.17,217.2,455.33"/>
	<path class="st2" d="M214.27,453.45c1.25-0.63,2.51-0.63,2.72,0c0.21,0.63-0.63,1.47-1.88,1.88c-1.26,0.63-2.51,0.42-2.72,0
		C211.97,454.7,213.02,453.86,214.27,453.45"/>
	<path class="st2" d="M211.55,449.68c1.05-0.42,1.88-0.21,2.09,0c0.21,0.63-0.42,1.26-1.46,1.47c-1.05,0.42-1.88,0.42-2.09,0
		C209.88,450.73,210.51,450.1,211.55,449.68"/>
	<path class="st2" d="M181.21,432.31c-0.21-1.05-1.26-1.05-1.67-0.21c-0.21,1.46,0.21,3.35,1.67,4.19c1.67,0.84,2.09-0.84,1.26-1.47
		C181.63,433.99,181.42,433.36,181.21,432.31"/>
	<path class="st2" d="M178.28,430.85c0.21-1.26-0.84-1.88-1.67-0.84c-1.05,1.46-1.46,3.77-0.21,5.23c1.46,1.88,2.72,0.21,2.3-0.84
		C178.07,432.94,177.86,432.1,178.28,430.85"/>
	<path class="st2" d="M324.34,336.89c-1.26,1.88-1.67,9,4.6,17.58c2.3,2.93-0.42,5.02,2.93,5.44c1.26-0.21,2.09-1.26,2.3-3.14
		l-2.09-1.05h2.93l-3.14-2.09c1.05-0.21,3.56,0.42,3.35-0.63c-0.21-1.25-3.14-1.46-4.6-2.09l3.56-0.84
		c0.21-1.05-1.88-1.88-5.23-2.93l3.35-0.84l-3.77-2.3l2.93-0.84l-4.6-2.3l2.51-1.26l-2.72-0.84l2.51-1.26
		C327.06,336.68,326.22,334.8,324.34,336.89"/>
	<path class="st2" d="M319.32,342.33c-1.26-2.72-1.47-5.02-0.84-7.11c1.46-3.77,2.93-4.81,4.18-4.81c2.51,2.72-1.68,4.39-2.51,6.49
		C319.53,337.31,319.32,338.78,319.32,342.33"/>
	<path class="st2" d="M318.27,329.36c1.05-1.04,2.3-1.67,2.72-1.25c0.42,0.42-0.21,1.46-1.26,2.72c-1.05,1.05-2.3,1.88-2.72,1.46
		C316.6,331.87,317.22,330.62,318.27,329.36"/>
	<path class="st2" d="M317.22,342.75c0.63,0,1.25,0.63,1.25,1.47c0,0.63-0.63,1.26-1.25,1.26c-0.84,0-1.47-0.63-1.47-1.26
		C315.76,343.38,316.39,342.75,317.22,342.75"/>
	<path class="st2" d="M319.94,346.94c0.84,0.21,1.05,1.26,0.42,2.3c-0.42,1.05-1.26,1.67-1.88,1.26c-0.84-0.21-1.05-1.26-0.42-2.3
		C318.48,347.15,319.32,346.52,319.94,346.94"/>
	<path class="st2" d="M322.87,351.33c1.05,0.42,1.26,1.46,0.42,2.72c-0.63,1.05-2.09,1.67-3.14,1.46c-1.05-0.42-1.25-1.67-0.63-2.72
		C320.15,351.75,321.62,350.91,322.87,351.33"/>
	<path class="st2" d="M326.01,356.14c0.63,0.84,0.21,1.67-0.84,2.09c-0.84,0.42-2.09,0.21-2.72-0.63c-0.42-0.63-0.21-1.46,0.84-1.88
		C324.34,355.31,325.38,355.52,326.01,356.14"/>
	<path class="st2" d="M341.08,358.66c0.42-0.63,0.42-1.67-0.63-1.88c-1.05-0.21-1.67-0.21-2.3-1.26c-0.84-2.51,0.42-3.77,2.51-4.39
		c1.67,0,2.3,0.63,1.88,1.67l-1.05,0.84c1.88,0.63,3.14,1.26,3.77,2.3c-1.05,0-1.67,0.21-1.88,1.05c3.56-0.63,3.35,5.02,0.21,3.98
		c-2.09-0.63-3.14,0.21-2.09,3.77c0.84,4.18,3.77,5.23,3.56,0.84c-0.42-2.09,6.7-2.51,7.53,2.09l-2.72-1.04
		c0.63,3.35,3.35,1.88,3.77,4.81l-2.3,0.21c2.72,1.88,4.81,4.18,5.86,6.9c-2.93-0.42-3.14-3.56-5.86-3.56
		c3.56,4.81,7.74,3.77,9.83,8.58c-2.93-0.21-6.49-2.51-10.46-6.28c3.56,5.02,5.86,9.21,5.02,11.3c-5.23-2.3-6.28-10.04-8.37-12.34
		c0,3.98,2.93,6.28,1.88,10.67c-2.09-2.51-3.14-6.49-3.14-12.76c2.09,0.42,2.93-1.05,2.93-4.6c-0.42-3.77-2.3-3.56-1.88,0
		c0,2.72-1.88,3.56-7.53,0.21c-0.84,0.84,0.42,1.88,3.56,3.77l-0.21,3.14l1.67-2.72l0.63,8.79c-0.21,2.3-0.84,1.88-1.47-0.42
		l-0.63-4.39c0,3.14-0.42,4.6-1.46,4.39l-0.84-8.16l-2.3,2.93l-0.63-4.6l-2.09,1.67v-5.65c-1.46,0.84-3.14,0.21-4.81-2.3
		c2.3,0.63,3.77,0.21,5.65-0.84C335.64,361.17,337.52,359.07,341.08,358.66"/>
	<path class="st2" d="M291.28,384.18c0.21-1.88,0.63-2.51-1.26-5.02c-0.84-0.84-1.46-1.05-1.26,0
		C289.18,380.84,290.86,382.51,291.28,384.18"/>
	<path class="st2" d="M287.93,371.42c2.72,1.47,3.98,1.67,5.44,5.65c0.42,1.46,0.21,2.51-0.84,1.26
		C290.86,376.44,290.02,373.3,287.93,371.42"/>
	<path class="st2" d="M288.35,363.26c3.56,2.51,5.02,2.93,6.7,8.79c0.42,2.3-0.21,3.56-1.46,1.67
		C291.49,370.79,290.86,366.4,288.35,363.26"/>
	<path class="st2" d="M290.02,357.4c3.97,1.26,6.9,6.07,6.9,10.25c0,2.3-1.05,3.77-1.67,1.67
		C294.42,366.4,292.95,360.33,290.02,357.4"/>
	<path class="st2" d="M291.69,354.26c3.56,1.46,5.86,3.98,7.12,7.74c0.21,2.09,0,3.14-1.47,1.46
		C296.51,360.33,294.42,357.19,291.69,354.26"/>
	<path class="st2" d="M316.39,457.84c0.84-2.09,3.97-4.19,7.74-2.51c1.67,0.42,1.46,2.51,1.46,3.98c-1.05-1.05-2.09-2.3-3.14-1.05
		C319.53,455.96,318.48,457.21,316.39,457.84"/>
	<path class="st2" d="M305.09,458.68c0.84,0,1.46,0.42,1.46,1.26c0,0.63-0.63,1.05-1.46,1.05c-0.63,0-1.26-0.42-1.26-1.05
		C303.83,459.1,304.46,458.68,305.09,458.68"/>
	<path class="st2" d="M297.76,458.68c0.42-0.21,1.05,0.63,1.46,1.67c0.21,1.05,0.21,2.09-0.21,2.09c-0.42,0.21-1.05-0.42-1.46-1.67
		C297.35,459.72,297.35,458.68,297.76,458.68"/>
	<path class="st2" d="M300.27,458.26c0.21,0,0.63,0.42,0.84,1.26c0.21,0.63,0.21,1.26-0.21,1.46c-0.21,0-0.63-0.42-0.84-1.26
		C299.86,459.1,299.86,458.47,300.27,458.26"/>
	<path class="st2" d="M300.9,431.27c-0.21,0.21-0.42,0.42-0.42,0.63c-0.84,0.84-1.67,1.46-1.88,1.05c-0.42-0.21-0.21-1.26,0.42-2.09
		c0.42-0.42,0.63-0.63,0.84-0.84c-0.21-0.21-0.21-0.42-0.42-0.63c-0.21,0.21-0.21,0.42-0.42,0.63c-0.84,1.05-1.88,1.67-2.3,1.26
		c-0.42-0.21-0.21-1.46,0.63-2.51c0.21-0.42,0.63-0.63,0.84-0.84c-0.21-0.21-0.21-0.42-0.42-0.42c-0.84,1.05-1.88,1.46-2.3,1.26
		c-0.42-0.42-0.21-1.46,0.63-2.51c0-0.21,0.21-0.42,0.42-0.42c-0.42-0.42-0.42-0.63-0.63-0.84c-0.63,0.42-1.05,0.63-1.46,0.42
		c-0.21-0.21,0-1.05,0.63-1.88c-0.42-0.84-0.63-1.67,0-2.09c1.25-1.05,1.88,0.42,3.14,3.14c0.42,1.05,0,1.68,0.63,2.3
		c0.42,0.84,1.67,1.26,2.09,1.88c1.46,2.3,1.26,4.19,1.05,4.39C301.53,433.36,301.74,432.94,300.9,431.27"/>
	<path class="st2" d="M300.9,433.36c0.63,0.42,0.21,1.67-0.84,2.93c-1.05,1.26-2.09,1.88-2.51,1.46c-0.63-0.42-0.21-1.67,0.63-2.93
		C299.23,433.57,300.48,432.94,300.9,433.36"/>
	<path class="st2" d="M326.64,421.01c0.21,0,0,1.26-0.42,2.51c-0.42,1.26-1.26,2.09-1.67,1.88c-0.21,0,0-1.26,0.42-2.51
		C325.59,421.64,326.22,420.8,326.64,421.01"/>
	<path class="st2" d="M323.5,419.76c0.42,0.21,0.21,1.88-0.63,3.77c-1.05,1.67-2.09,3.14-2.72,2.93c-0.63-0.21-0.42-1.88,0.63-3.77
		C321.62,420.8,322.87,419.55,323.5,419.76"/>
	<path class="st2" d="M316.18,416.83c0.42,0.21,0.21,1.46-0.42,3.14c-0.63,1.46-1.46,2.51-1.88,2.3c-0.42-0.21-0.21-1.46,0.42-2.93
		C314.92,417.66,315.76,416.62,316.18,416.83"/>
	<path class="st2" d="M113.2,63.19c0.63-2.93,2.51-4.39,4.6-4.6l4.6,0.84c1.68,1.26,1.47,1.68-0.42,1.88
		c-3.77-0.63-5.86,0.21-6.9,2.72C113.62,66.12,112.99,66.33,113.2,63.19"/>
	<path class="st2" d="M127.85,71.98c0.42,0,1.05,0.42,1.05,1.26c0,0.63-0.63,1.26-1.05,1.26c-0.63,0-1.05-0.63-1.05-1.26
		C126.81,72.4,127.22,71.98,127.85,71.98"/>
	<path class="st2" d="M112.58,67.8c-1.47,1.88-1.05,3.98,1.46,6.49l3.35,4.18c2.93,2.09,4.39,1.67,3.97-1.47
		c-0.42-2.09,0.21-2.93,2.09-2.93c1.25-0.21,2.09-0.84,2.72-1.88c0.42-1.67,0.21-2.51-1.26-2.93c-2.72,1.88-5.02,2.72-6.9,3.14
		c2.51-1.67,4.39-2.93,5.02-3.98c0.63-0.63,1.46-0.84,2.72-0.42c0-1.05-0.42-2.09-1.88-2.51c-2.93,0-5.86,2.09-8.58,5.02
		c1.67-3.56,4.19-5.65,7.95-5.65c0.21-1.05,0-1.88-1.05-2.72c-2.3-0.21-4.6,0.42-6.49,1.88L112.58,67.8z"/>
	<path class="st2" d="M129.53,93.74c6.91,6.7,12.76,14.65,17.37,23.65v7.74l-2.51-8.79c0.21,6.07,0,10.04-0.63,8.79l-2.09-12.55
		l-1.46,5.44l-1.26-7.74c-1.05-0.84-1.26,3.98-1.05,10.67c-1.88-1.88-1.67-7.32-1.46-13.39l-2.09,5.86c-1.26-3.14-0.63-7.32,0-11.3
		c-1.26-1.05-2.09,1.05-2.51,7.32c-1.46-4.19-1.05-7.53-0.42-11.51l-1.46,3.14L129.53,93.74z"/>
	<path class="st2" d="M180.79,34.74c2.3,1.67,5.44,2.09,8.58,2.09l0.21,1.67c5.02,0,10.25-2.3,15.49-5.86
		c-0.21-0.21-1.26-0.42-2.3,0c-3.77,1.88-3.35,0.63,3.77-2.93c1.05-0.63,1.88,0.21,3.56-0.42l4.6-1.05
		c-3.77,3.35-7.53,6.7-11.72,9.83c-5.86,3.35-11.09,4.18-15.9,2.51c-2.72-1.26-5.44-2.93-7.95-4.81
		C178.49,34.74,177.86,34.11,180.79,34.74"/>
	<path class="st2" d="M209.67,35.78c0.63,0,1.05,0.42,1.05,0.84c0,0.42-0.42,0.84-1.05,0.84c-0.42,0-0.84-0.42-0.84-0.84
		C208.83,36.2,209.25,35.78,209.67,35.78"/>
	<path class="st2" d="M215.95,48.34c0.42-0.63,0.84-0.84,1.26-0.42c0.42,0.21,0.42,0.84,0,1.26c-0.42,0.63-1.05,0.84-1.26,0.63
		C215.53,49.59,215.53,48.96,215.95,48.34"/>
	<path class="st2" d="M230.8,42.69c0.63-0.21,1.25-0.21,1.46,0.21c0.21,0.42,0,1.26-0.84,1.46c-0.63,0.42-1.26,0.42-1.46-0.21
		C229.55,43.73,229.97,43.11,230.8,42.69"/>
	<path class="st2" d="M227.46,40.38c0.63-0.42,1.25-0.63,1.46-0.21c0.42,0.21,0.21,1.05-0.21,1.46c-0.63,0.42-1.25,0.63-1.46,0.21
		C227.04,41.64,227.04,41.01,227.46,40.38"/>
	<path class="st2" d="M204.65,44.78c0.63-0.21,1.25,0,1.46,0.42c0,0.42-0.42,1.05-1.05,1.05c-0.63,0.21-1.26,0-1.47-0.42
		C203.6,45.41,204.02,44.99,204.65,44.78"/>
	<path class="st2" d="M212.81,60.26c0.84-0.42,1.88-0.42,2.09,0c0.21,0.42-0.21,1.05-1.26,1.47c-0.84,0.21-1.88,0.21-2.09-0.21
		C211.34,61.1,211.76,60.47,212.81,60.26"/>
	<path class="st2" d="M186.02,46.03c2.3-0.21,5.44-1.05,9.63-2.93l4.81-2.3c2.3-1.05,2.72-0.84,0.84,1.05
		c-2.09,2.09-4.81,3.14-6.7,4.6c-1.88,1.26-4.6,2.93-9.21,1.67C183.09,47.5,183.93,46.24,186.02,46.03"/>
	<path class="st2" d="M200.67,43.94c2.72-2.51,4.39-3.14,8.16-4.81c3.56-1.46,7.11-1.88,10.67-1.88c2.51-2.3,4.81,0.84,2.09,3.35
		c-0.84,0.84-1.88,1.26-2.93,1.88c-2.72,2.09-5.65,2.93-8.58,3.77c-3.77,1.05-4.19,0.63-1.05-1.46c1.05-0.84,1.88-1.46,2.93-2.09
		c2.3-1.46,4.81-1.88,7.11-2.09c-3.56-2.3-10.46,1.26-17.37,4.6C199.62,46.24,199,45.62,200.67,43.94"/>
	<path class="st2" d="M219.5,33.06c1.46-0.42,2.72-0.21,4.39-0.21c2.72,0.84,3.98,2.3,4.18,4.18c-0.63,1.88-1.46,2.93-2.72,3.35
		c-0.63-3.35-1.88-5.23-3.77-5.86c-0.84-0.21-1.26-0.21-2.09-0.21V33.06z"/>
	<path class="st2" d="M216.36,33.9c0.84-0.42,1.05-0.63,1.88-0.84v1.26c-0.84,0.21-0.84,0.21-1.67,0.42
		C215.74,34.94,214.9,34.32,216.36,33.9"/>
	<path class="st2" d="M212.6,31.81c1.88-1.67,3.97-3.14,6.49-3.35c2.51-0.21,5.23-0.21,7.95,0.21c5.23,1.88,3.14,3.56-0.21,2.3
		c-2.09-1.26-4.6-1.05-7.53,0c-0.21,2.09-3.77,0.42-5.86,1.88C211.97,33.48,211.76,33.06,212.6,31.81"/>
	<path class="st2" d="M227.87,32.43c1.67,0,2.93,0.21,3.14,1.67c0.21,1.88-0.21,3.35-1.46,4.18
		C230.18,34.32,228.29,34.74,227.87,32.43"/>
	<path class="st2" d="M232.48,31.39c0.42,0.63,0.63,2.3,0,5.02l-1.67,3.14c-0.42,1.46,0,1.88,1.05,1.46
		c1.67-1.05,2.51-2.51,2.51-4.6c0-3.14,0.21-4.6,1.26-5.65C233.73,27.62,231.85,28.04,232.48,31.39"/>
	<path class="st2" d="M219.09,49.8c0,2.09,4.81,2.51,5.44,0.21c1.05-2.51-0.84-4.39-0.21-6.9C221.18,43.94,219.09,46.24,219.09,49.8
		"/>
	<path class="st2" d="M217.83,55.24c1.05-1.88,2.72-2.51,5.23-2.3c1.88,0,2.93,0.42,2.93,2.3c0,1.88,0.21,3.98-0.21,5.65
		c-0.63,1.67-0.84,1.46-2.93,1.67c-2.3,0-3.14-1.05-5.65,0.42C218.67,59.43,216.99,57.96,217.83,55.24"/>
	<path class="st2" d="M226.83,47.08c-1.05-1.67,0.21-2.3,1.25-1.05c1.26,1.05,2.09,2.51,2.09,3.98c0.21,1.46-1.46,2.72-2.51,1.46
		C226.62,50.22,227.87,48.96,226.83,47.08"/>
	<path class="st2" d="M227.87,55.03c-0.63-2.09,0.21-2.3,2.72-1.26c1.67,1.46,1.88,2.51,1.05,3.35c1.67,1.68,1.67,3.98,0.21,6.7
		c-1.05-0.84-2.3-0.42-3.14-1.67c-0.21-0.84-0.84-0.42-0.42-3.56C228.5,57.33,228.5,56.29,227.87,55.03"/>
	<path class="st2" d="M230.8,72.19c1.05,0,1.67,0.63,1.67,1.26c0,0.63-0.84,1.05-1.67,0.84c-1.05,0-1.67-0.63-1.67-1.26
		C229.13,72.61,229.97,72.19,230.8,72.19"/>
	<path class="st2" d="M217.83,70.31c1.05,0,1.88,0.63,1.67,1.26c0,0.63-0.84,1.26-1.88,1.05c-1.05,0-1.88-0.63-1.67-1.26
		C215.95,70.73,216.78,70.1,217.83,70.31"/>
	<path class="st2" d="M233.73,68.01c-1.26-2.09-4.4-3.56-9-4.18c-2.93-0.42-6.9,0.42-11.09,1.46c-2.3,2.51-3.14,6.28-2.72,11.3
		l1.88,0.42l-1.68,1.26h2.3l-1.46,2.09l1.26,0.42l-1.05,2.72l1.26,0.84L212.81,86l1.67,0.21l-0.42,1.67l1.26,0.21l-0.42,1.67
		l1.26,0.42c0.84,1.25,2.3,2.3,3.98,3.35c1.26,0.63,2.51,0.63,3.98,0.42c2.51-1.88,3.14-3.56,5.23-5.86
		c0.63-0.21,0.84-1.47,0.84-3.35c1.26-0.63,1.67-1.67,1.67-3.14l1.05-1.46v-5.02c-1.26,0.42-2.09,0.63-3.14,0.42l-2.93-1.26
		l-0.84,6.49c0,1.26-0.63,3.14-2.09,2.51l-3.56-1.67c-0.84-0.42-0.63-1.67,0.42-2.09l1.25-0.21v-5.65
		c-2.09,0.63-4.39,0.84-6.49-0.63c-0.84-0.42-1.67-0.42-2.51-0.42c0.63-1.26,1.46-2.3,2.3-2.93l-1.26-1.88
		c0.42,0,1.26,0.21,1.88,0.21c2.93-0.21,4.4-0.63,5.23,0.21c0.84,0.84,1.46,1.46,2.3,1.88l0.21-1.46c0.63-1.67,1.88-2.09,3.77-1.46
		l-0.42,4.18l6.7-2.09V68.01z M218.25,85.16c1.88-0.42,3.98-0.42,5.86,0c3.35,0.84,3.56,2.09,0.42,3.98c-1.88,0-3.98,0-6.07-0.63
		C219.09,87.47,219.71,87.05,218.25,85.16 M220.76,86.63c0.84-0.63,2.09-0.63,3.35,0c0.63,0.42,0.42,1.05-0.21,1.47
		c-0.84,0.21-1.46,0.21-2.3,0C220.97,87.47,221.39,87.05,220.76,86.63"/>
	<path class="st2" d="M221.39,80.14c0.42,0,0.63,0.21,0.63,0.63c0,0.21-0.21,0.42-0.63,0.42c-0.21,0-0.63-0.21-0.63-0.42
		C220.76,80.35,221.18,80.14,221.39,80.14"/>
	<path class="st2" d="M224.73,70.52c0-0.42,0.21-0.84,0.21-1.46c1.05-1.05,1.46-1.67,1.46-0.63c0,0.84,0,1.46-0.21,2.09H224.73z"/>
	<path class="st2" d="M223.48,80.77c0.21-2.72,0.63-5.02,1.05-8.37h1.46c-0.21,2.3-0.42,4.81-1.26,8.79
		C224.32,82.03,223.9,81.61,223.48,80.77"/>
	<path class="st2" d="M207.37,66.33c-0.21-1.67,1.46-1.46,1.67,0c0.42,2.93,0,5.23-1.46,6.7c-1.05,0.63-2.51,0-1.68-1.26
		C207.37,69.68,207.79,68.22,207.37,66.33"/>
	<path class="st2" d="M206.11,78.26c-0.42-1.88,0.84-2.51,1.25-0.42c1.46,5.65,3.98,11.09,9.63,16.32c2.3,1.88-0.21,3.56-2.3,1.67
		C209.04,91.02,207.37,84.33,206.11,78.26"/>
	<path class="st2" d="M227.04,95.42c-0.21-1.67,0.42-3.35,2.3-4.81c1.26-0.84,1.67,0.63,1.05,1.46
		C229.13,93.53,228.08,93.53,227.04,95.42"/>
	<path class="st2" d="M172.42,118.64c0.21-1.46,0.42-2.51,1.25-3.56c-0.42-0.21-1.05-0.63-1.46-1.05c-1.05,2.3-2.51,4.19-4.6,6.91
		c1.46-4.39,2.93-7.74,6.07-11.09c-0.42,1.46-0.84,2.72-1.25,3.77c0.42,0.42,1.05,0.84,1.46,1.26c0.42-0.42,0.84-0.84,1.05-1.26
		c0,0.63,0,1.26-0.21,1.88h0.21l-0.21,0.63l-0.21-0.21C174.1,116.97,173.47,117.6,172.42,118.64"/>
	<path class="st2" d="M169.91,122.41c0.21-1.26,0.63-2.09,1.46-2.93C171.17,120.95,170.96,121.36,169.91,122.41"/>
	<path class="st2" d="M181,124.09c0.21-0.84,0.42-1.67,0.63-2.3l0.42-0.42c0-0.21,0.21-0.63,0.42-0.84
		c0.42-0.42,0.84-1.05,1.25-1.46C183.51,121.57,182.88,122.41,181,124.09"/>
	<path class="st2" d="M180.58,130.15c-0.63-2.09,0-3.56,2.51-4.81C183.09,128.48,182.88,129.32,180.58,130.15"/>
	<path class="st2" d="M185.61,128.27c2.09-5.02,2.3-7.32,1.67-13.6C189.58,120.53,189.16,122.2,185.61,128.27"/>
	<path class="st2" d="M219.71,147.31c1.05-4.39,1.46-8.58,1.26-12.97c-0.42,0.21-0.63,0.21-1.05,0.42c-0.21,2.3-0.84,5.02-2.09,8.37
		c0.63-2.72,1.05-5.44,0.84-8.16c-0.42,0.21-0.84,0.42-1.26,0.42c-0.21,1.88-0.84,3.98-1.67,6.7c0.42-2.3,0.63-4.39,0.63-6.49
		c-0.63,0-1.26,0.21-1.88,0.21c-0.21,2.72-0.63,5.65-1.26,9.42c0-3.14-0.21-6.28-0.21-9.21h-2.09c0,3.14-0.42,6.28-1.05,10.67
		c-0.21-3.77-0.21-7.32-0.42-10.88c-0.63-0.21-1.26-0.21-2.09-0.42c0,3.35-0.42,6.7-1.05,11.3c-0.21-3.98-0.42-7.74-0.42-11.51
		c-0.63-0.21-1.25-0.42-1.88-0.63c-0.21,3.14-0.84,6.28-1.67,10.46c0-3.77,0-7.11,0.21-10.88c-0.63-0.21-1.26-0.42-1.88-0.63
		c-0.21,4.18-0.63,7.95-0.84,12.35c-0.63-5.44-1.05-9.21-0.63-12.97c-0.63-0.21-1.26-0.42-1.67-0.84
		c-1.05,5.02-1.46,9.42-1.05,14.44c-1.46-6.49-1.67-10.25-0.21-14.86c-0.42-0.42-0.84-0.63-1.26-0.84
		c-0.63,1.67-1.67,3.56-2.93,5.65c1.05-2.09,1.46-4.19,2.09-6.07c-0.63-0.42-1.47-0.84-2.09-1.26c-0.42,2.72-1.67,5.44-3.77,9.21
		c2.72-6.7,2.93-12.97,3.14-20.92c0.63,3.14,1.05,5.65,1.05,7.95c0.84,0.42,1.47,0.63,2.3,1.05c0.42-3.56,0.63-6.9,0.63-10.88
		c1.04,4.6,1.46,7.95,0.84,11.09c0.63,0.21,1.26,0.63,1.88,0.63c0.21-0.42,0.63-1.05,1.05-1.67c-0.21,0.63-0.42,1.26-0.63,1.88
		c0.42,0,1.05,0.21,1.46,0.21c0.42-1.26,0.63-2.72,1.26-4.39c0,1.67-0.21,3.14-0.21,4.81c0.63,0,1.05,0.21,1.67,0.21
		c0-1.05,0.21-2.3,0.21-3.56c0.42,1.46,0.42,2.51,0.63,3.77c0.63,0,1.46,0.21,2.09,0.21v-4.81c0.42,1.88,0.84,3.35,1.05,4.81
		c0.84,0.21,1.68,0.21,2.51,0.21c0-1.67,0-3.14,0.21-5.02c0.42,1.88,0.63,3.56,1.05,5.02h2.09v-7.53c0.84,2.93,1.26,5.23,1.47,7.33
		c0.63,0,1.25-0.21,1.88-0.21c0-1.67-0.42-3.56-0.63-5.44c0.84,1.88,1.47,3.56,1.67,5.23c0.42,0,0.84-0.21,1.26-0.21
		c-0.21-1.88-0.63-3.77-0.84-5.86c0.84,2.09,1.46,3.77,1.88,5.44c0.42,0,0.84,0,1.26-0.21c-0.42-2.93-0.63-6.07-1.26-9.63
		C224.11,129.73,224.11,135.18,219.71,147.31"/>
	<path class="st2" d="M225.57,133.5l0.84,1.88l2.93-2.72c0.84-1.05,1.67-0.84,2.3,0.63l0.21-3.35c1.05-0.63,1.88-0.21,2.72,0.84
		c0.63-0.84,0.63-1.88,0.21-3.14l0.42-4.18c-1.67-2.72-2.93-4.39-4.81-5.02c1.05,2.3,1.05,4.18,0.42,5.86
		c-0.21-2.72-1.46-4.6-3.56-5.65c0.84,1.67,1.26,3.35,0.84,5.02c-0.42-0.63-1.05-1.26-2.09-1.88l0.42,2.51l-1.26,0.84L225.57,133.5z
		"/>
	<path class="st2" d="M244.82,118.64c0,0.63,0,1.05-0.42,1.05c-0.42,0-0.84-0.42-1.46-1.05H244.82z"/>
	<path class="st2" d="M243.57,115.09c0.42,1.05,0.84,1.88,0.84,2.51h-2.3c-0.42-0.63-0.84-1.26-1.26-2.09
		c-0.21,0-0.21-0.21-0.21-0.42H243.57z"/>
	<path class="st2" d="M239.8,111.11c0.63,0,2.09,1.26,3.14,3.14h-2.72C239.38,112.58,239.17,111.11,239.8,111.11"/>
	<path class="st2" d="M238.55,118.44c0.21-0.21,1.05,0.63,1.88,1.88c0.63,1.25,0.84,2.3,0.63,2.51c-0.21,0.21-1.05-0.63-1.67-1.88
		C238.55,119.69,238.34,118.44,238.55,118.44"/>
	<path class="st2" d="M234.57,117.6c0.21-0.21,1.26,0.84,2.3,2.3c0.84,1.67,1.26,2.93,0.84,3.14c-0.21,0.21-1.26-0.84-2.3-2.3
		C234.57,119.06,234.15,117.81,234.57,117.6"/>
	<path class="st2" d="M166.98,109.44c0.63,0.42,1.04,0.84,1.46,1.05c0.21-0.21,0.63-0.63,1.05-1.05c-0.21,1.46-0.63,1.88-1.67,2.93
		c0.21-0.63,0.42-1.26,0.63-1.67C168.03,110.28,167.61,109.86,166.98,109.44"/>
	<polygon class="st2" points="148.36,319.32 147.52,322.04 146.68,321.62 147.1,319.32 	"/>
	<path class="st2" d="M83.49,411.6c2.72-1.05,3.35,0.21,4.18,3.35c2.3,2.09,3.77,3.77,3.77,5.44c4.81,3.97,3.98,5.65-2.51,5.02
		c-2.09-0.63-3.35-2.09-3.35-5.02L83.49,411.6z"/>
	<path class="st2" d="M84.54,427.71c-1.67,2.51-1.26,5.65,0.84,8.16c1.26,1.46,2.72,1.88,4.18,1.88l-0.84-2.3l2.51,1.67
		c0-1.26-1.05-2.72-3.35-4.39l3.14,0.84c0-1.67-1.47-3.14-3.98-4.39h2.09C88.1,426.24,86.21,425.41,84.54,427.71"/>
	<path class="st2" d="M92.7,429.17c0.84-0.21,1.46,0.84,1.67,2.09c0.21,1.26-0.21,2.3-1.05,2.51c-0.63,0.21-1.47-0.83-1.68-2.09
		C91.65,430.43,92.07,429.17,92.7,429.17"/>
	<path class="st2" d="M135.18,285.84c0-6.7,2.93-13.18,6.7-19.67C139.15,272.86,136.85,279.35,135.18,285.84"/>
	<path class="st2" d="M150.24,246.92c-2.51,1.05-2.72-1.05-0.84-2.51c3.98-3.35,8.37-4.6,13.39-4.6h8.79c3.35,0,2.93,3.35-0.21,3.14
		h-6.28C159.45,242.73,154.85,244.4,150.24,246.92"/>
	<path class="st2" d="M169.28,243.78c2.3,0,4.18,0.42,4.18,0.84c0,0.63-1.88,0.84-4.18,0.84c-2.3,0-4.19-0.21-4.19-0.84
		C165.1,244.19,166.98,243.78,169.28,243.78"/>
	<path class="st2" d="M186.44,199.42c-0.42-0.42-1.47,1.05-2.93,2.93c-1.26,1.67-2.09,3.35-1.88,3.35c0.21,0.21,1.46-1.04,2.72-2.93
		C185.81,201.09,186.65,199.42,186.44,199.42"/>
	<path class="st2" d="M171.79,213.85c-1.05,1.88-0.63,2.93,1.46,3.77c8.37,2.51,16.53-0.21,24.69-4.81l10.25-4.81
		c1.88-2.3,1.46-2.93-1.05-2.09l-5.02,2.51l1.26-4.18c-2.72,2.09-4.4,4.18-5.65,6.49l-0.84-2.09c-1.26,1.05-2.3,2.51-2.72,4.4
		l-1.05-2.3c-1.05,0.63-1.88,1.46-2.51,2.72l0.42-2.93c-0.84-0.63-2.09,0.84-3.77,4.19l0.84-3.14c-0.63-0.63-1.67,0.63-3.14,3.76
		l3.35-10.04c-1.67,0.21-3.98,3.98-6.49,10.67c-1.05,0.21-1.46-0.21-1.26-1.04l3.77-7.33c-1.88-0.21-3.98,2.51-6.49,7.33l2.93-8.37
		l-5.44,7.11v-2.72C174.1,211.34,172.84,212.39,171.79,213.85"/>
	<path class="st2" d="M172.84,350.08c-0.84-0.84,0.63-1.67,1.05-1.25l2.51,2.3c0.63,0.63-0.84,1.67-1.47,1.25L172.84,350.08z"/>
	<path class="st2" d="M174.72,348.4c-0.42-0.63,0.63-1.46,1.05-1.04l2.09,2.09c0.63,0.63-0.63,1.46-1.04,1.05L174.72,348.4z"/>
	<path class="st2" d="M175.98,346.52c-0.84-0.84,0.63-1.88,1.25-1.26l2.51,2.51c0.63,0.63-1.05,1.67-1.46,1.05L175.98,346.52z"/>
	<path class="st2" d="M177.03,343.38c-0.84-1.05,1.05-2.51,2.09-1.88l3.77,3.77c1.05,1.05-1.46,2.72-2.09,1.88L177.03,343.38z"/>
	<path class="st2" d="M181,340.03c-1.26-1.25,0.42-2.93,1.46-1.88l4.6,3.97c1.26,1.05-0.63,2.93-1.67,2.09L181,340.03z"/>
	<path class="st2" d="M183.72,337.94c-1.05-1.05,0.21-2.51,1.26-1.67l3.97,3.35c1.05,1.05-0.63,2.51-1.46,1.88L183.72,337.94z"/>
	<path class="st2" d="M187.28,336.68c-0.84-0.84,0.21-2.09,1.05-1.46l3.35,2.93c0.84,0.84-0.63,2.3-1.26,1.67L187.28,336.68z"/>
	<path class="st2" d="M170.54,313.04c0-1.05-1.67-0.63-1.88,0.21l-0.42,3.77c0,0.84,1.88,0.42,1.88-0.21L170.54,313.04z"/>
	<path class="st2" d="M165.1,318.27c-0.21-1.67-1.88-0.84-1.88,0.21l0.42,2.93c0,1.47,2.09,0.63,1.88-0.21L165.1,318.27z"/>
	<path class="st2" d="M158.82,322.25c-0.21-1.46-1.26-1.05-1.26,0l-0.21,2.72c-0.21,1.46,1.46,0.84,1.46,0V322.25z"/>
	<path class="st2" d="M166.77,317.01c0.42,0,0.84,0.42,0.84,1.05s-0.42,1.05-0.84,1.05c-0.21,0-0.63-0.42-0.63-1.05
		S166.56,317.01,166.77,317.01"/>
	<path class="st2" d="M160.91,320.78c0.63,0,1.05,0.63,1.05,1.26c0,0.84-0.42,1.25-1.05,1.25c-0.63,0-1.05-0.42-1.05-1.25
		C159.87,321.41,160.29,320.78,160.91,320.78"/>
	<path class="st2" d="M155.68,324.55c0-1.26-1.67-1.26-1.67-0.21v2.51c0,1.26,1.88,1.05,1.88,0.21L155.68,324.55z"/>
	<path class="st2" d="M201.09,166.35c0.63,0,1.05,0.63,1.05,1.46s-0.42,1.67-1.05,1.67c-0.42,0-0.84-0.84-0.84-1.67
		S200.67,166.35,201.09,166.35"/>
	<path class="st2" d="M203.6,170.33c-0.42,0-0.63-1.05-0.63-2.3c0-1.46,0.21-2.51,0.63-2.51c0.42,0,0.84,1.05,0.84,2.51
		C204.44,169.28,204.02,170.33,203.6,170.33"/>
	<path class="st2" d="M207.58,169.28c1.05,0,1.88,0.42,1.88,0.84c0,0.21-0.84,0.63-1.88,0.63c-0.84,0-1.68-0.42-1.68-0.63
		C205.9,169.7,206.74,169.28,207.58,169.28"/>
	<path class="st2" d="M209.67,172.84c0.42,0,0.84,0.42,0.84,0.84c0,0.63-0.42,1.05-0.84,1.05c-0.21,0-0.63-0.42-0.63-1.05
		C209.04,173.26,209.46,172.84,209.67,172.84"/>
	<path class="st2" d="M213.02,172.63h7.74c2.51,0,2.93,1.26,1.26,3.56c0.84,4.18-4.39,6.9-4.18,0.21c-0.42-1.26-1.88-1.88-4.81-1.88
		C211.76,174.1,211.76,172.84,213.02,172.63"/>
	<path class="st2" d="M200.88,221.81c0.63,0,1.05,0.42,1.05,1.05c0,0.63-0.42,1.26-1.05,1.26c-0.42,0-0.84-0.63-0.84-1.26
		C200.04,222.22,200.46,221.81,200.88,221.81"/>
	<path class="st2" d="M197.53,222.85c0.63,0,1.25,0.63,1.25,1.47c0,0.63-0.63,1.25-1.25,1.25c-0.84,0-1.26-0.63-1.26-1.25
		C196.28,223.48,196.69,222.85,197.53,222.85"/>
	<path class="st2" d="M201.72,225.15c2.72-1.88,5.44-3.14,5.86-2.51c0.42,0.63-1.46,2.72-4.39,4.81c-2.93,1.88-5.44,2.93-6.07,2.3
		C196.9,229.13,198.79,227.04,201.72,225.15"/>
	<path class="st2" d="M211.76,218.67c1.67-1.46,3.35-2.3,3.56-2.09c0.42,0.42-0.84,1.88-2.51,3.35c-1.68,1.26-3.35,2.3-3.56,1.88
		C208.83,221.39,210.09,219.92,211.76,218.67"/>
	<path class="st2" d="M205.28,234.57c0.63-1.46,1.25-2.93,2.09-4.18l-0.42-0.21c0.42-2.51,2.3-4.39,4.81-5.65l0.42,0.21
		c0.84-0.84,1.88-1.46,3.14-2.09c-0.63,1.05-1.05,2.09-1.67,2.93l0.63,0.42c1.46-1.46,3.35-2.72,5.44-3.35
		c-1.26,1.67-2.51,2.93-3.98,4.18l1.26,0.84c1.88-1.67,4.18-2.93,6.07-3.77c-1.46,1.46-2.93,3.14-4.6,4.6l1.46,0.84
		c1.88-1.46,4.19-2.51,6.28-2.93c-1.05,0.84-2.09,1.67-2.93,2.51c1.46-0.42,3.14-0.42,5.23-0.63c-2.72,1.26-4.39,1.67-6.49,2.51
		l1.67,1.05c2.09-1.26,4.39-1.88,6.28-1.88c-1.46,0.84-3.14,1.88-4.81,2.72l1.46,0.84c1.88-1.05,4.19-1.46,6.07-1.26
		c-1.67,0.63-3.14,1.26-4.6,2.09l0.84,0.63c1.88-0.84,3.77-1.25,5.65-1.25c-1.67,0.63-2.93,1.46-4.39,2.09l1.26,0.63
		c1.67-0.63,3.35-0.63,4.81-0.42c-1.26,0.42-2.51,0.63-3.77,1.25l4.39,2.72l-0.84,0.42l-6.7-2.3c-0.42,0-0.63,0.21-0.84,0.42
		c0-0.21,0.21-0.42,0.42-0.63l-1.67-0.42c-0.84,0.42-1.88,1.05-2.93,1.46c0.63-0.84,1.05-1.46,1.67-1.88l-1.67-0.63
		c-0.84,0.42-1.88,1.05-2.93,1.46c0.42-0.63,1.05-1.46,1.67-2.09l-1.67-0.63c-1.26,0.84-2.3,1.67-3.56,2.3
		c0.63-1.05,1.26-1.88,2.09-2.72l-2.3-0.84c-1.05,1.05-2.09,1.88-3.14,2.72c0.21-1.05,0.84-2.3,1.67-3.14l-2.09-0.84
		c-1.05,1.05-2.3,2.09-3.56,3.14c0.63-1.26,1.26-2.51,2.09-3.56l-3.35-1.26C208.2,232.27,206.74,233.52,205.28,234.57"/>
	<path class="st2" d="M181.84,241.06c-2.72,5.44-5.44,13.81-7.32,30.76c-1.05,7.53-1.67,15.07-0.21,22.81
		c0.84,4.18,2.72,5.65,4.6,5.44l31.18-5.02c2.3-0.42,4.6-2.3,3.56-4.39l-1.26-2.51l-1.05,3.56l-1.67-2.93l-1.26,3.35l-1.88-4.18
		l-1.46,5.02l-1.88-3.97l-1.05,4.18l-1.05-3.56l-1.26,4.39l-1.47-3.98l-1.26,4.81l-1.67-4.6l-1.26,3.35l-1.46-2.72l-1.05,2.51
		l-1.46-2.09c-1.46-0.63-2.93-0.63-4.39,0l-0.63,1.05l-0.84-1.05c-2.3-0.63-4.81-1.05-7.11-1.46l2.93-1.46
		c0-1.05-1.05-1.47-2.93-1.26l3.14-2.3l-3.35-0.63l3.14-1.88c0-0.84-0.84-1.67-3.35-2.72l3.35-1.05v-0.84l-3.35-0.42l3.56-1.67
		c0.42-0.84-0.63-1.46-2.93-2.3l2.93-0.84c-0.21-0.84-0.42-1.88-2.51-2.72l2.51-0.84l-2.51-1.88l3.14-1.26c0-1.05-0.42-1.46-2.3-2.3
		l3.35-1.46c-0.21-0.63-1.05-1.67-3.14-2.3l3.14-1.05l-2.51-1.67l2.93-1.26l-2.3-0.84l2.72-1.67c0.63-0.63-0.42-1.26-2.72-1.46
		l3.14-1.26l0.21-1.26l-2.93,0.42l1.47-1.26l-1.88-1.46l4.4-1.05l0.42-0.84l-3.14-0.84l2.51-1.46
		C183.93,241.48,183.09,241.06,181.84,241.06 M186.65,245.45l0.63-0.21c-2.72,14.86-3.97,29.09-1.88,41.85
		c-1.05-19.88,1.46-41.01,5.23-44.57l0.63,1.46c-4.39,15.9-4.81,30.13-1.88,42.9c-1.88-21.76-0.21-34.32,3.56-41.01v2.09
		c-2.93,15.28-3.14,27.62-0.42,37.67l0.84-0.63c-1.88-15.9-0.84-28.25,1.67-40.59l1.46,0.21c-2.93,16.11-2.93,28.67-0.84,40.18
		l0.84-0.84c-1.67-16.53-1.46-28.04,1.05-38.5l1.25,0.21c-2.3,15.9-2.51,28.46-0.42,38.71l0.84-0.21
		c-1.67-17.37-0.84-29.71,1.46-38.92l0.84,0.84c-1.67,13.81-1.47,25.95,0,37.46l0.84-0.42c-0.42-15.07-1.26-26.99,0.63-35.78
		l1.05-1.26c-1.47,11.09-1.47,23.44,0.42,37.25h0.84c-1.46-16.32-1.05-28.67,0.63-38.71l0.84,0.63
		c-0.84,13.18-0.84,25.11,0.21,38.29l0.84-0.21c-0.84-17.99-0.21-30.34,1.67-37.67c1.67-0.63,1.67,1.46,0.21,3.77
		c-1.05,10.88-1.47,21.76,0,33.69l1.26,0.21c-1.26-17.37-0.21-27.41,1.67-37.25c1.05-1.05,2.09,0.21,0.84,2.72
		c-1.47,12.14-2.3,20.72-1.05,34.53h1.46c1.67,0.63,1.88,1.26,0.21,1.88c-10.25,2.09-20.09,3.98-29.5,4.6
		c-1.88,0.21-2.51-0.84-2.51-3.56C181.42,271.4,183.09,257.8,186.65,245.45 M221.18,254.03l1.26-6.28c1.46-0.84,2.09-0.42,1.88,1.26
		l-2.72,5.23L221.18,254.03z M218.88,247.33c-1.46,10.46-1.46,16.74-2.51,27.62l0.84,1.88c0.21-12.14,1.88-19.88,3.56-29.09
		C221.39,246.08,219.71,245.66,218.88,247.33 M215.74,246.92c0.63-0.84,1.67-0.63,1.46,0.42c-1.67,9-2.72,19.67-2.93,31.81h-0.63
		C213.02,267.42,213.44,256.96,215.74,246.92 M172.21,315.34c-0.21-3.35,0.21-6.9,1.46-10.46c0.42-1.46,1.88-2.3,4.39-2.51
		l28.04-4.18c1.46-0.21,1.67,0.63,1.46,2.51c-0.42,2.72-0.84,5.23-2.09,7.33c-1.04,0.84-1.25-2.72-1.04-8.16
		c-2.09,5.02-1.26,10.25-4.6,11.09c-1.47-2.3,0.84-6.7,1.26-10.04c-3.14,2.93-2.09,6.49-4.81,10.25c-1.04,0.21-0.84-3.35-0.21-9
		c-1.46,4.18-2.72,7.53-4.18,9c-0.84-1.26-0.84-4.39-0.63-7.74c-1.26,5.44-2.72,9.21-3.98,9.83c-0.42-3.14-0.21-6.07,0.21-9
		l-0.63-0.63c-0.84,5.23-1.67,8.37-2.93,9.83c-1.05-2.93-1.26-6.28,0.42-9.63h-1.25c-0.84,2.72-1.26,5.02-2.51,5.86
		c-1.67-0.21-2.51-2.09-2.51-5.23C176.61,310.32,174.52,313.46,172.21,315.34"/>
	<path class="st2" d="M225.15,256.12c-1.67,1.26-2.3,2.72,1.05,2.51c-2.3,2.09-2.51,3.56-0.63,4.18c-4.18,5.23-4.18,6.7-0.21,4.39
		c-4.6,5.86-3.98,6.7-0.84,5.65c-3.98,4.81-3.35,5.44-2.09,5.65c-2.72,3.77-2.72,5.65-0.21,5.44c-2.09,0.84-3.56,2.51-3.98,5.86
		c-0.84,3.35-9.84,7.11-2.3,10.25c2.3,1.26,4.19,4.39,5.65,9.84c0.63,2.93,1.88,3.14,4.39,2.09c2.09-0.63,4.18-0.84,6.28-1.05
		c3.98,0.42,4.18-3.97-0.21-4.6c0.42-1.67-1.05-2.51-3.35-1.47c1.88-3.14-0.42-2.3-1.26-2.72c1.26-0.63,1.05-2.09-2.3-0.21
		l-0.42-1.05c1.88-0.63,2.51-1.67,2.72-2.93l-5.65,1.88c1.67-1.46,2.51-2.51,2.3-3.56l-3.98,0.84c4.18-2.93,5.86-5.02,5.65-6.07
		l-4.39,1.26c3.14-2.51,5.23-4.6,5.02-5.86l-3.77,1.47c0-1.26,1.67-2.51,4.81-3.35c2.51-1.26,3.77-2.93,3.35-5.23l-5.65,2.72
		c4.6-4.18,8.37-7.95,9.42-10.46c-0.42-1.46-5.02,1.67-11.09,6.7v-1.05c5.86-3.98,10.25-8.58,13.6-13.81l-11.09,8.58l10.04-11.93
		c-0.63-1.46-3.56,0.21-9.21,6.07l0.42-1.26l5.23-5.65c3.98-2.3,6.49-5.23,8.16-8.79c1.05-2.72-2.51,0.84-7.95,5.65
		c-1.25,1.26-2.72,1.88-4.18,3.35l12.76-13.39l0.21-1.67C240.22,243.15,232.06,252.78,225.15,256.12 M210.09,307.81
		c-2.3-1.46,0.21-4.81,1.88-3.35l6.28,4.6c1.88,1.46,0,3.98-1.47,2.93L210.09,307.81 M212.6,303.83c-2.3-1.46,0.42-4.39,1.88-3.14
		l3.35,3.35c1.88,1.67,0.63,3.14-1.05,2.3L212.6,303.83z M225.99,316.39c-1.67-0.84-2.51,0.42-1.46,1.26
		c2.72,2.3,5.65,4.18,8.79,5.65c3.14,1.67,6.49,1.88,9.63,1.88c2.3,0,3.35-1.46,0.42-2.09
		C237.92,321.62,232.48,319.94,225.99,316.39 M227.66,316.18c-1.05-1.26-0.84-2.3,0.63-3.14l7.53-0.63c1.46,0,2.72,0.84,3.98,2.51
		l3.56,3.98c1.46,1.88,0.21,3.35-1.26,2.93C237.08,320.36,232.27,318.48,227.66,316.18"/>
	<path class="st2" d="M235.2,296.3c1.26-2.3,3.14-3.98,5.86-5.02c7.11-1.05,14.23-2.51,20.92-5.02c2.09-1.47,2.93-1.05,2.72,1.26
		c-0.63,6.49-1.46,11.93-3.35,13.6v-11.3l-0.84,0.21c-0.63,5.65-1.46,9.83-2.93,11.51l0.42-10.46h-1.05l-2.3,10.25l0.63-9
		c0-1.26-0.42-1.46-1.05-0.84c-1.46,10.46-3.35,14.86-5.44,16.32c2.09-6.7,2.09-11.3,1.68-15.28l-0.63-0.42
		c-0.63,5.44-1.47,10.67-3.35,14.65c-2.09-3.14,1.88-8.58,1.05-13.81h-0.42l-3.77,12.97c-1.26,0-0.84-1.67,0.42-5.02l0.42-7.32
		l-0.63,0.42c-1.05,3.98-2.09,6.9-3.56,9.42l0.63-9.63l-2.72,6.9l0.21-5.65L235.2,296.3z M266.17,288.35
		c0.21-2.3,2.72-1.67,1.67,0.63l-1.26,2.93h-0.63L266.17,288.35z M265.54,296.93c0.21,0,0.42,0.63,0.42,1.46s-0.21,1.46-0.42,1.46
		c-0.21,0-0.42-0.63-0.42-1.46S265.33,296.93,265.54,296.93 M266.59,293.79c0.42,0,0.63,0.21,0.63,0.84c0,0.42-0.21,0.84-0.63,0.84
		c-0.42,0-0.84-0.42-0.84-0.84C265.75,294,266.17,293.79,266.59,293.79 M266.38,281.02c0.63,0,1.05,0.84,1.26,1.88
		c0.21,1.05,0.21,2.09-0.42,2.09c-0.21,0.21-0.84-0.63-1.05-1.67C265.96,282.28,266.17,281.23,266.38,281.02 M263.24,274.95
		c1.88,1.88,2.09,3.56,1.88,5.02c-0.21,2.09-1.88,3.56-1.88,2.09c-0.21-1.88,0-3.98-1.46-6.49
		C260.94,274.54,262.4,274.12,263.24,274.95 M247.96,271.19c0.21-2.09,1.88-0.42,1.88,0.84l-0.63,3.35
		c-0.63,0.63-0.84,0.21-1.46-1.05L247.96,271.19z M240.64,282.07c-1.68,1.05-1.68,1.88,0.21,2.51l0.84-0.21v0.21
		c0,0.84,0.42,1.47,0.84,1.47c0.42,0,0.84-0.63,0.84-1.47v-0.63l1.88-0.42v4.18c-0.63,0.21-1.26,0.21-2.09,0.42
		c0-0.42-0.42-0.63-0.63-0.63c-0.42,0-0.84,0.42-0.84,0.84c0,0,0.21,0.21,0.21,0.42c-0.42,0.21,0,0.21,0.84,0.84l14.02-3.14
		c4.18,0,5.23-3.14,4.18-8.16c0.63-1.68,0.21-2.3-1.26-2.09l-3.14-0.42l1.88-1.26c2.51-1.26,2.51-1.88,0.42-1.88l-4.39-0.63
		l3.56-0.63c1.05-0.21,1.46-1.46-0.21-2.09l-3.77-0.42l2.93-0.63c1.88-1.46,0.84-2.51-2.72-2.93c1.26-1.46,1.05-2.51-0.42-2.51
		c-0.63-1.46-2.51-2.51-1.88,0.21l0.84,13.81c0.42,1.47-0.21,2.51-1.88,3.14L240.64,282.07z M248.59,276.63
		c0.63,0,1.05,0.42,1.05,1.05c0,0.63-0.42,1.05-1.05,1.05c-0.42,0-0.84-0.42-0.84-1.05C247.75,277.05,248.17,276.63,248.59,276.63
		 M256.96,281.02c0.21,0,0.42,0.21,0.42,0.42c0,0.42-0.21,0.63-0.42,0.63c-0.21,0-0.42-0.21-0.42-0.63
		C256.54,281.23,256.75,281.02,256.96,281.02 M256.12,278.3c0.84-0.21,1.46,0,1.67,0.42c0.21,0.63-0.42,1.05-1.26,1.26
		c-0.84,0.21-1.46,0-1.67-0.63C254.66,279.14,255.29,278.51,256.12,278.3 M246.5,287.3h0.42v-4.18l-1.05,0.42L246.5,287.3z
		 M248.8,286.67c0.42,0,0.63-0.21,1.05-0.21v-3.98l-1.88,0.42L248.8,286.67z M251.31,285.84c0.21-0.21,0.42-0.21,0.63-0.42v-3.35
		l-0.84,0.21L251.31,285.84z M253.19,285c0,0,0.42,0,0.63-0.21c1.46-1.67,1.46-2.51-0.21-2.93h-0.42V285z"/>
	<path class="st2" d="M285.63,87.26c-17.37-1.46-25.74,4.18-30.34,10.04c-3.98,5.02-6.07,10.67-6.49,16.95
		c0.42,1.05,2.3-1.26,5.02-4.81l-1.67-0.63c0.42-1.26,1.04-2.3,1.88-3.56c0.42-0.63,0.42-1.67,1.46-2.3
		c1.26-0.63,2.09-1.88,2.09-2.3h-1.47c4.81-5.86,11.51-7.33,19.04-7.11c2.09,0.21,3.98,0.42,5.86,0.63
		c1.05,0.21,2.09-0.21,2.72-0.63c0.63-0.42,0.84-1.05-0.21-1.05c-6.7-1.05-13.39-0.63-19.88,0.84c4.81-3.14,11.72-3.35,21.55-2.93
		C289.18,90.61,289.39,87.68,285.63,87.26 M255.29,199c0.63,0.42,0.84,1.67,0.42,3.14c-0.42,1.26-1.46,2.3-2.09,2.09
		c-0.84-0.21-1.05-1.67-0.63-2.93C253.61,199.83,254.45,198.79,255.29,199 M240.22,205.07c0.21,0,0.63,1.05,0.63,2.09
		c0,1.26-0.42,2.09-0.63,2.09c-0.42,0-0.63-0.84-0.63-2.09C239.59,206.11,239.8,205.07,240.22,205.07 M241.48,212.39
		c0.63-3.98,2.51-7.53,5.86-9.83c2.93-2.09,3.56-1.46,1.26,1.46c-2.09,2.72-3.35,6.07-5.02,9
		C242.94,214.27,241.06,215.74,241.48,212.39 M250.26,196.49c-2.93,1.05-5.23,2.93-6.7,5.65c-1.05,2.51-0.63,2.72,1.26,0.84
		c1.88-2.09,4.19-3.35,6.28-5.02C251.94,197.32,252.78,195.86,250.26,196.49 M232.27,210.51c-1.47,1.88-1.26,2.51,1.25,1.46
		c3.98-6.07,6.7-10.04,9-11.3l7.11-6.28c5.44-1.26,8.58-7.11,9.63-16.95l-0.42-1.25c-2.72,6.9-5.86,11.93-10.04,14.65
		c-3.77,2.72-6.9,6.07-9.84,10.04c-1.25,1.26-1.25,2.72-2.3,4.39C235.41,206.95,233.31,208.62,232.27,210.51 M230.59,206.11
		c-1.26,2.3-0.21,3.14,1.05,1.25c4.81-6.7,8.16-11.3,13.18-15.48c4.6-3.56,11.3-10.04,14.02-18.62c1.68-5.02-0.21-6.49-1.46-3.35
		c-2.72,7.53-5.86,14.23-10.88,18.21C240.85,192.72,234.78,197.95,230.59,206.11 M229.97,199.21c-1.05,1.88-1.26,3.35-0.42,4.39
		c3.98-1.46,2.72-7.74,12.56-12.76c1.26-1.67,0.84-2.3-1.26-1.67l-9.21,6.7c3.14-5.02,6.28-9,10.88-10.04
		c2.93-0.42,5.65-1.67,8.16-4.39c1.05-2.3,0.63-2.93-1.05-1.88c-5.65,3.77-10.46,5.23-14.86,8.58c-3.98,3.35-6.7,7.53-7.74,12.35
		L229.97,199.21z M229.34,187.07c1.67-3.56,6.28-5.86,12.76-7.95c4.39-1.47,7.95-4.6,11.09-8.37c3.35-2.09,2.72-0.21,1.67,2.09
		c-1.25,2.09-2.09,2.72-4.18,3.98c-2.51,2.09-6.28,3.98-9.21,5.23c-3.56,1.26-6.91,3.35-10.04,7.12
		C229.55,190.63,228.71,190,229.34,187.07 M239.17,175.14c3.14-1.88,5.86-3.77,7.95-6.91c2.93-4.18,4.19-4.39,3.35,0
		c-0.84,3.56-3.35,7.32-8.58,9.21C237.5,179.12,236.24,177.03,239.17,175.14 M252.36,165.52l1.46-7.53
		c0.21-2.93,1.26-5.65,3.14-7.95l2.3-6.28c0.63-2.51,1.67-2.3,1.67,0.84l-1.46,3.98c1.26,0.63,0.63,1.88-0.21,3.14
		c-0.21,1.46-0.21,3.14-1.67,3.56c-0.42,5.65-1.05,10.25-2.72,11.72C252.36,170.12,251.52,169.7,252.36,165.52 M242.31,164.47
		l3.35-8.16c0.84-2.93,2.3-4.6,4.19-4.81l4.6-4.39c1.05-1.26,1.67,0.42,1.05,1.46l-3.35,5.44c-0.63,4.39-2.3,8.37-6.28,12.97
		c-0.84,0.84-2.3,0.84-1.46-0.42l3.98-7.95l-5.02,6.91C241.89,167.4,241.68,165.94,242.31,164.47 M236.45,167.82
		c1.88-5.02,2.51-7.74,4.4-9.42c2.3-2.3,2.93-2.09,1.46,0.63c-1.05,2.09-2.51,5.02-2.51,10.25
		C239.8,173.47,234.57,172.63,236.45,167.82 M236.03,161.12c0.21,1.67,0.42,1.26,1.26,0l1.88-5.23c2.09-1.88,5.02-3.98,7.74-7.32
		c1.26,1.88,3.56,0.21,7.11-4.6c4.39-2.09,6.49-5.44,7.74-9.63c1.05-3.56,0.42-4.18-1.88-1.88c-3.35,4.39-5.86,6.07-7.11,9.21
		c-3.98,1.26-7.12,5.65-11.72,7.74c-1.26,0.84-1.67,2.09-1.67,3.77C237.5,154.43,236.24,156.52,236.03,161.12 M236.45,150.87
		c0.42-0.63,1.26-0.84,1.68-0.63c0.42,0.42,0.42,1.25-0.21,1.88c-0.42,0.84-1.26,1.05-1.88,0.63
		C235.83,152.33,235.83,151.5,236.45,150.87 M259.68,115.09c2.93-3.56,6.49-6.07,9.84-7.53c3.98-1.67,3.77,1.46,1.05,1.46
		c-2.09,0-5.02,1.88-9.84,7.95C259.47,118.64,258.01,117.18,259.68,115.09 M232.06,157.78c-0.63-7.53,1.05-11.93,4.6-14.44
		c9.63-5.86,12.97-14.44,16.11-14.23c3.14-5.44,7.95-11.09,13.6-16.32c4.19-2.93,5.02-2.3,2.72,2.3
		c-6.07,8.58-12.14,18.83-17.58,21.76c-2.51,0.21-4.4,1.68-5.86,3.98l3.77-1.88c1.88-0.21,2.09,0.42,0.84,1.67
		c-3.14,1.67-8.37,9.83-9.63,4.6c-2.09,3.97-5.65,3.35-5.86,7.32l-0.42,5.23C233.52,159.24,232.9,159.24,232.06,157.78
		 M269.31,102.95c1.88,0.21,2.72,0.84,1.26,2.51c-4.6,1.88-9,5.44-13.18,10.46c0.42,1.88-0.42,3.56-2.51,4.81
		c0,3.14-1.88,4.6-5.02,5.02l-4.6,5.86c1.05,1.46-0.63,3.77-3.98,7.12c-2.09,2.3-2.93,1.67-2.51-2.09
		c2.51-6.91,7.32-16.95,9.63-16.95c1.25,0,1.25-0.42,1.67-2.72c0.21-1.67,1.88-1.25,1.46,0c-0.21,1.67,0.21,1.88,1.26,0.63
		C258.01,109.02,263.66,104.62,269.31,102.95 M255.29,105.04c3.77-4.39,10.25-7.32,22.39-7.11c2.51,0.21,2.09,2.72-0.21,2.51
		c-1.88-0.21-3.98,0.63-5.86,1.05c-2.3,0.63-4.81,0.84-6.91,2.09c-4.18,2.3-7.95,6.07-11.3,11.3c-1.25,0.63-1.46,0.21-0.84-1.26
		c4.18-7.53,9.21-11.51,14.44-11.93l0.21-0.42c-2.93-0.63-6.49,0.63-11.72,5.44C254.87,107.35,254.66,106.72,255.29,105.04
		 M259.89,98.56c4.6-2.93,9.83-4.6,15.9-3.77c3.77,0.42,3.77,2.72,1.67,2.51c-5.86-0.84-11.51-0.63-17.16,2.09
		C258.22,100.44,258.63,99.39,259.89,98.56"/>
	<path class="st2" d="M288.98,81.4c-1.46-1.88-0.42-2.93,2.09-2.72c6.49,1.26,12.14,2.09,15.69,5.02c2.09,1.46,0.42,2.93-1.05,1.88
		l-4.39-2.3c0.21,1.88-1.46,1.05-3.98-1.05c-1.67,1.67-3.77,0.84-6.07-1.67l1.46,4.18c0.21,0.84-0.63,0.84-1.05,0.21L288.98,81.4z
		 M297.97,84.75c-0.84,0.63,0.21,2.09,0.84,2.72c0.84,0.84,1.88,0.42,1.46-0.84C300.07,85.37,298.81,84.12,297.97,84.75"/>
	<path class="st2" d="M311.36,89.98c-0.63-0.42-2.09-1.05-0.21-1.46c-2.09-1.25-1.26-2.93,0.21-3.14
		c5.65-0.21,10.04-3.35,16.53,0.21l2.93,3.35c1.88,4.39,0.21,6.49-2.3,3.35c-1.26-1.88-0.21-3.56-3.35-5.02
		c1.67,3.14,2.93,6.28,2.93,9.83c4.81,4.6,0.42,5.65-0.84,2.72l-1.88-8.58c0.42,4.18,0.63,7.32,0,7.32c-1.46,0-0.63-2.93-1.26-6.49
		c-0.42-1.46-0.84-4.19-1.67-4.39c-3.56-1.26-6.9-0.21-9.63,0c4.6-0.21,7.74,0,8.79,1.26c1.46,2.09,1.67,4.39,1.05,6.49
		c-1.05,1.68-1.67,1.26-1.67-0.84l-0.63-2.72c-0.21-1.46-1.88-1.67-4.18-1.46C314.71,90.61,313.04,91.02,311.36,89.98"/>
	<path class="st2" d="M253.19,246.29c6.7,11.09,14.44,21.76,23.23,31.81c1.05,1.26,0.21-2.51,1.05-1.05c1.88,3.98,4.81,7.74,6.07,9
		c1.26-1.05-2.72-4.6-3.35-8.79l11.93,13.81c1.05-1.88-5.86-10.04-11.51-17.16l0.84-0.84l13.6,17.79l0.63-0.21
		c-2.09-5.86-8.37-12.97-12.56-19.46l0.42-1.46c2.51,3.14,5.86,7.95,8.58,11.93c3.98,5.65,7.53,10.67,8.58,11.09
		c5.02,1.26-11.93-16.53-19.67-31.39l0.21-0.84c9.21,14.02,17.37,26.78,26.36,32.64c1.05,0.63,1.88-0.63,0.84-1.88
		c-8.16-9.63-17.79-20.09-23.65-29.5l0.42-0.84c8.79,10.46,13.39,22.39,30.13,32.43c1.05,0.63,1.67,1.67,2.72,0.84
		c3.77-2.93-14.44-7.32-28.46-30.97l0.21-1.67c5.23,7.11,6.07,9.21,10.88,14.23c6.7,7.32,17.16,15.9,18.83,14.65
		c1.67-1.46-15.07-12.97-24.06-26.99l0.42-0.42c7.11,9.83,17.16,21.76,31.81,29.29c2.09,1.05,1.26,0.84,3.77,0.84
		c6.49,0.42-14.44-10.25-25.32-22.18l0.21-1.05c3.14,2.72,7.11,6.28,11.51,9.83c5.23,3.77,10.67,7.11,15.07,9.63
		c3.98,2.09,7.11,3.35,8.58,2.72c3.77-1.88-14.44-8.37-19.04-13.18c2.72,1.47,5.44,2.51,7.74,3.56c7.95,3.98,13.6,6.7,14.86,5.23
		c0.84-1.05-3.35-3.35-10.67-6.07c-0.84-0.84-0.21-1.04,1.88-0.63c8.37,3.35,13.18,5.65,14.23,5.02c2.72-0.84-1.67-2.72-6.7-5.86
		c6.28,2.72,11.72,5.23,14.65,4.39c1.05-0.21-3.56-2.72-7.53-6.28c5.65,3.56,19.04,8.37,6.28-0.63l0.84-0.42
		c4.81,3.56,10.88,5.02,3.56-0.84h1.05c4.18,3.35,6.49,5.86,3.35-1.05c4.18,6.07,8.37,8.37,2.72-0.42l6.49,5.02
		c-2.3,1.05-2.09,1.67,0,2.93c5.44,3.56,5.86,2.93,4.81,0c0.63-5.65-1.47-9.42-5.23-11.72c-4.19-2.72-3.98,0.42,0.84,7.95
		c-1.88-1.46-3.35-3.14-4.4-4.81c-0.84-1.67-2.72-2.72-4.81-2.72c-9.84,0.21-19.46,2.09-28.67,3.35c-7.12,1.05-12.56,0-15.07-1.67
		c-2.51-2.09-3.35-2.93-2.09-5.23c0.84-1.88,0-3.35-1.25-3.98l-6.7-13.39c0.84,1.46,1.88,2.09,2.72,3.35
		c2.72,4.39,4.6,7.95,5.23,7.74c-1.05-2.93-4.6-9.42-7.32-16.74c5.23,9.21,9.83,17.16,11.09,16.11c-0.63-3.56-4.81-10.46-9-17.58
		c1.26,1.26,1.67,1.67,2.51,2.72c1.67,2.09,3.14,3.98,3.98,3.56c-3.35-6.9-6.9-11.3-10.67-12.56c-5.86-2.09-9.42-2.93-8.58,0.84
		l-2.93-3.35l-3.14-0.42c-1.05,0.42,0.42,2.09,2.51,5.65l-0.63,0.42l-3.56-5.65c-1.05-0.63-2.51-1.26-2.72,0l1.88,3.77l-3.98-4.39
		c-1.88-1.05-3.98-1.46-3.98-0.63l5.86,9.63c-1.05-1.46-2.72-2.93-4.18-5.02c-2.3-3.14-4.18-5.44-6.9-5.86
		c-2.72-0.21,2.72,4.18,6.49,13.18l-9-12.97c-0.84-0.63-4.4-1.26-4.6,0l10.46,15.07c-4.81-5.44-9.63-10.04-12.35-15.27
		c-0.63-0.63-1.26-0.63-1.88-0.63c-0.42-0.21-0.84,0-1.26,0.42l12.76,16.53c-2.51-2.3-5.02-4.81-6.91-7.11
		c-2.72-3.77-5.23-6.28-7.32-9.63c-0.84-1.05-2.51-0.63-2.72-0.21c-1.05,1.46,9.63,12.35,14.23,18.83
		c-6.49-6.07-11.51-11.93-16.11-18.83c-2.09-1.05-3.56-1.05-4.18,0c-0.63,1.26,12.97,14.23,18.2,22.39
		c-7.11-7.53-14.02-14.65-19.67-22.39c-0.84-1.05-3.35-1.05-3.35,0c0,2.09,11.72,12.76,21.13,25.74
		c-6.9-7.53-15.27-17.58-18.83-19.67c-1.68-0.21,4.18,7.11,17.58,22.39c-6.7-6.07-12.76-12.56-18.41-19.46
		c-1.67,1.46,5.65,10.67,16.32,22.39l-16.74-17.58C252.36,243.99,251.94,244.19,253.19,246.29 M324.34,242.31
		c-1.47-2.09,0.63-3.14,2.3-0.63c3.35,5.65,6.49,10.46,8.79,15.9c1.05,2.51-0.42,3.14-1.46,0.84
		C331.24,252.36,327.9,247.54,324.34,242.31 M317.85,240.22c-1.05-1.67,1.67-2.72,3.77,0.21c4.81,6.7,9,13.39,12.35,20.3
		c1.88,4.18,0,5.23-1.88,1.46C328.11,254.03,322.87,246.92,317.85,240.22"/>
	<path class="st2" d="M287.93,98.77c-0.21,3.77,1.88,8.58,5.86,11.72c0-0.63-1.88-3.56-3.14-6.07
		C289.39,101.49,288.77,99.18,287.93,98.77 M300.9,229.34c-0.42-6.07-3.77-10.46-10.46-15.48c0.21,1.46,4.39,5.02,6.9,9.42
		C299.86,227.46,299.86,228.5,300.9,229.34z M300.69,223.06c-0.84-0.63-1.46-2.93-3.56-6.28c-2.09-3.56-5.65-7.11-5.86-8.16
		C296.72,212.6,300.27,218.25,300.69,223.06 M299.86,215.11c-0.63-0.63-1.26-2.3-2.72-4.81c-1.67-2.72-4.39-5.44-4.6-6.28
		C296.93,206.95,299.65,211.13,299.86,215.11 M299.02,206.95c0-2.72-2.09-5.65-5.02-7.32c0.21,0.63,1.88,2.3,3.14,4.19
		C298.18,205.48,298.6,206.53,299.02,206.95 M295.88,92.28c-1.05,3.56,0,8.58,3.35,12.76c0.21-0.84-1.05-3.98-1.88-6.9
		C296.72,95.42,296.51,92.7,295.88,92.28 M258.84,227.04c-3.14,0.21-3.77-0.42-3.98-3.56C256.33,224.94,257.59,225.57,258.84,227.04
		 M254.66,221.6c2.09,2.09,4.19,3.35,6.28,5.65c1.05,0.42,2.09,0.42,3.14-0.42c-3.35-3.56-6.49-5.65-10.04-9.21
		C254.24,218.88,254.45,220.34,254.66,221.6 M253.82,215.74c4.39,4.4,7.74,7.12,11.72,11.3c1.26,0.63,2.09,0.63,2.72,0
		c-4.81-6.07-9.21-10.67-14.02-16.74C253.82,212.18,253.82,214.06,253.82,215.74 M254.66,209.04c5.44,6.28,10.67,11.72,16.32,18.62
		c1.67,0.84,2.93,0.84,3.56,0.21c-5.44-7.11-12.35-14.86-18.62-22.6c-0.42,1.05-0.63,1.88-1.05,2.72
		C254.66,208.41,254.66,208.62,254.66,209.04 M256.12,203.81c7.11,8.16,13.6,15.48,21.13,24.48c1.05,0.63,2.09,0.63,2.93,0.21
		c-0.84-0.84-5.86-6.9-6.7-7.95c-6.07-7.53-9.63-11.51-16.53-19.88C256.75,201.72,256.54,202.76,256.12,203.81 M257.38,199.42
		c7.53,8.37,10.25,12.14,18.41,21.76c0.84,1.26,5.23,5.65,6.07,6.7c1.05,2.09,4.6,2.09,2.93,0.63c-1.46-1.67,0-0.42-2.09-3.14
		c-6.7-8.16-17.79-21.55-24.48-29.92C258.01,196.9,257.59,198.16,257.38,199.42 M258.42,194.39c0.21-1.26,0.42-2.3,0.63-3.35
		c6.28,7.95,18.62,22.81,25.74,31.6c3.77,4.6,3.56,4.39,5.65,6.7c0,1.05-0.84,0.63-2.3,0.21c-1.88-2.09-1.67-1.88-3.56-4.39
		C275.79,214.9,266.17,202.97,258.42,194.39 M259.05,190c0.42-1.46,0.42-3.14,0.63-4.6c6.7,10.46,16.32,21.55,26.99,31.39
		c-0.84-4.18-14.23-15.69-22.39-26.57c-1.67-2.93-3.14-5.65-4.18-7.95c0.21-1.26,0.21-2.3,0.42-3.77
		c5.65,11.51,14.65,22.18,27.2,33.06c-1.46-3.77-14.44-14.23-21.34-25.32c-2.51-4.39-4.39-7.95-5.44-10.88v-1.88
		c5.65,11.3,15.48,23.02,27.2,33.06c-1.26-3.77-14.65-14.65-21.14-25.32c-2.72-4.6-4.39-8.16-5.65-11.09v-2.09
		c5.44,10.88,17.58,25.53,28.67,35.15c-1.26-3.56-16.32-16.74-22.6-26.99c-2.72-4.81-4.6-8.58-5.65-11.51v-2.93
		c4.6,10.88,16.32,25.32,27.83,34.73c-1.26-3.56-15.69-15.48-21.55-25.32c-3.14-5.23-4.81-9.21-5.86-12.14c0-1.04,0-2.3,0.21-3.14
		c3.98,11.09,15.07,24.48,26.78,33.48c-1.26-3.14-14.65-14.02-20.09-23.23c-3.56-6.07-5.23-10.04-6.49-12.97c0-1.26,0-2.3,0.21-3.56
		c3.35,10.88,13.81,24.06,25.53,33.27c-0.84-3.14-13.39-12.97-18.83-21.76c-3.98-6.7-5.23-11.09-6.49-14.02v-0.63
		c0.21-1.26,0.21-2.72,0.42-3.98c2.3,10.88,12.35,24.9,24.27,34.53c-0.84-2.72-12.35-12.55-17.16-20.71
		c-4.6-7.74-5.65-12.35-7.12-14.86c3.56-30.13,16.32-47.92,34.95-51.06l0.42,0.21c-0.63,3.56,0,7.95,2.09,12.14
		c0.42-0.84-0.63-5.02-0.84-8.58v-3.14l1.67,0.42c0.21,4.18,1.67,8.16,3.56,8.58c-1.46-2.3-1.67-5.23-1.67-7.74l2.3,0.63
		c0,4.39,1.47,9.21,3.56,9.42c-1.88-2.51-1.88-5.86-1.67-8.58l0.42,0.21c0.42,1.67,1.05,3.35,1.88,4.19
		c0.84-1.05,0.42-3.14-0.21-5.44c2.3-1.25,5.02-1.05,7.95,0.84c1.05,1.26,0.63,1.88-0.84,1.88h-1.47l3.35,1.46
		c0.21,0.42,0.84,0.84-1.05,1.05l-1.25,1.05l4.39,0.42c1.46,0.63,1.26,1.05,0.84,1.67l-1.05,1.25c3.77,0,7.74,0.84,12.56,3.35
		c-0.21,1.67-2.09,1.47-5.65-0.42c0.84,2.09,4.18,2.3,3.97,3.56c-0.42,2.3-5.44,0.21-7.74,3.14l5.65,0.21
		c1.26,0.84,0.84,1.46-1.05,1.46c2.93,3.56,5.23,4.6,6.07,2.09c0.84-1.88,1.67-1.88,2.51,0c3.56,2.09,4.18,2.3,2.09,2.72l-3.35,0.63
		l3.98,0.63c1.05,0.42,1.05,1.26,0.42,1.88c-2.72,0.42-2.93,0.84,2.09,1.05c2.09,1.05,2.93,2.09,2.09,2.93
		c-4.39,0.21-4.18,0.84,1.05,1.26c1.26,0.63,1.68,1.46,1.46,2.09c-2.72,0.63-2.3,1.26,1.05,1.26c0.42,0.63,0.84,1.05,0.21,1.67
		c-3.14,0.84-2.72,1.26,1.26,1.26c0.21,1.46,2.51,1.26,3.35,3.14c3.35-0.63,4.81,1.67,1.88,1.67l-0.21,0.63
		c4.81,0.21,6.9,1.46,6.28,4.39c-0.42,1.26-6.9-2.51-4.18,7.53l1.05,1.05c1.88,0.42-0.21-4.6,2.93-4.18
		c0.42,0.21,0.84,1.67,0.21,4.18c-0.63,2.3-2.09,3.35-4.39,1.88c-2.09-1.46-3.35-2.93-3.14-4.6l0.21-3.14
		c-2.3,0.21-2.72-1.26-2.93-3.56c0-0.42-0.84-0.21-0.63-0.84c-3.77-0.63-5.44,0.63-6.49,3.35c-0.21,1.05-1.05,0.21-1.46-0.84
		c0.21-0.63-1.26,0.21-2.09-0.21c-0.63,0-0.42-1.47-1.05-1.26c-0.42,0-0.42,0.63-1.26,0.63c-0.63-0.21-0.42-1.67-1.67-0.42
		c-0.84,0.84-1.05,0.84-1.26-0.42c0.21-1.05,1.05-3.14-1.26-0.21c-0.84,0.42-1.05,0.42-1.46-0.63c-1.26-3.56-2.09-3.77-2.51-0.63
		c-0.63,1.26-1.25,1.46-1.25-0.42c-1.26-5.44-1.46-5.44-1.05-0.21c-0.21,2.3-0.84,2.09-2.09-0.63c-1.46-4.39-2.09,0.42-3.14-1.67
		c-1.46-2.51-0.42-6.07-2.93-7.11l1.46,7.32c0,1.05-1.67,1.25-1.88-0.42c-0.84-4.81-3.98-13.18-3.35-10.46l1.88,10.04
		c0.21,0.84-2.09,0.42-2.51-0.84l-2.51-12.55c-0.63-3.56-0.63,6.7,0.84,11.09c0,0.63-1.67,0.63-1.46-0.21
		c0-1.05-1.88-12.97-2.51-12.35c-1.46,1.47,2.51,13.39-0.63,11.51c-0.42-0.21-1.46-12.14-1.88-12.35c-0.21,0,0,11.51-0.42,11.3
		c-3.35-4.18,0.21-15.48-2.09-16.11c-0.42,0-1.46,13.81-1.88,13.39c1.46,10.67,10.04,11.09,9.42,14.23l-6.07-3.14
		c1.67,3.14,4.19,6.49,5.86,10.04c-1.88,0.63,0.21,3.14,1.46,4.39c-1.88-0.21-1.46,1.05,2.09,4.39c0.84,0.63,1.05,1.26,0.84,1.88
		c-4.39-1.05-4.81-1.05,2.3,4.6c-4.39-0.63-4.6-0.21,0.42,3.14c0.84,0.63,1.88,1.88,2.09,3.14c0.21,0.84-0.63,0.42-1.05,0.42
		c-0.84-0.42-2.09-1.26-2.51-1.46c-1.26-0.21-0.42,1.46,5.44,5.86c1.46,1.26,2.09,2.3,1.05,2.72c-7.11-4.39-6.69-3.35,1.05,3.35
		c1.88,2.93,2.09,4.18,1.47,4.6c-6.28-5.23-10.46-8.58,0.42,2.3c1.88,1.88,2.3,3.14,0.84,3.35c-10.88-8.16-5.02-2.72,2.3,4.81
		c0.42,0.42,0,1.05-0.42,0.84c-10.46-7.74-10.88-5.86,0.21,5.65c0.42,1.05,1.05,1.88,0.63,2.72c-0.21,0.42-1.04,0-1.46-0.21
		c-7.53-7.11-6.91-5.65,1.67,6.07c1.26,1.88,1.88,3.56-0.21,2.51c-9.42-10.67-12.35-12.97-0.21,3.35c1.26,2.09,1.46,3.14-0.21,2.51
		c-8.58-11.72-8.79-10.25-0.42,2.3c0.63,1.46,0.63,1.67,0,1.46c-7.74-9.42-10.04-11.72-0.42,2.09c1.25,2.51,1.05,2.93-0.21,1.67
		c-9.42-11.72-9.63-10.25-0.42,1.88c0.84,1.46,1.26,2.3-0.21,1.67c-10.88-12.35-10.88-11.93-0.42,1.46
		c0.21,3.35,0.21,3.14-1.88,1.46c-1.05-1.26-1.05-2.3-2.09-3.35c-6.69-8.16-7.53-7.53,0.42,2.93c-0.84,0.84-1.88,0.84-3.14-0.21
		c-6.9-9-7.53-9-2.09-0.42l-3.77-0.63c-0.63-1.25-1.26-1.88-2.09-2.72c-6.49-6.28-8.79-6.91-2.3,1.25c0.21,0.21-0.42,0.42-0.21,0.63
		l-7.32-1.26c-0.84,0-1.88-0.42-2.72-1.46c-3.14-5.44-5.02-7.53-10.25-12.56c0.42,1.88,4.39,5.23,7.53,10.46
		c0.84,3.35-2.93,1.88-4.19,1.26c-2.3-3.14-3.14-3.56-6.49-7.53C277.26,211.34,267.21,198.79,259.05,190 M284.37,102.11
		c0.63,0.42,1.46,3.14,3.14,6.28c1.67,3.35,4.18,6.49,4.39,7.53C286.88,111.95,284.16,106.51,284.37,102.11 M281.23,105.46
		c0.84,0.84,1.46,3.56,3.35,7.32c2.09,3.77,5.44,7.53,5.44,8.79C284.58,116.97,281.23,110.69,281.23,105.46 M278.3,109.23
		c1.05,0.84,1.67,3.98,3.97,8.16c2.3,4.18,6.28,8.58,6.49,9.83C282.28,122.2,278.3,115.09,278.3,109.23 M275.79,112.99
		c0.21,6.49,4.81,14.44,11.93,20.09c-0.21-1.46-5.02-6.28-7.53-11.09C277.47,117.39,276.84,114.04,275.79,112.99 M273.49,116.97
		c0.42,7.11,5.44,15.69,13.6,22.18c-0.42-1.67-5.86-7.11-8.79-12.35C275.37,121.57,274.54,118.02,273.49,116.97 M271.4,120.95
		c0.63,7.74,6.28,17.16,15.07,24.06c-0.42-1.88-6.7-7.53-9.83-13.39C273.28,125.97,272.65,122.2,271.4,120.95 M269.31,124.92
		c0.84,8.58,7.32,18.62,16.74,26.16c-0.42-2.09-7.32-8.37-11.09-14.65C271.61,130.36,270.77,126.39,269.31,124.92 M267.63,128.9
		c0.84,9.21,7.95,20.09,18.21,28.25c-0.63-2.3-8.16-9-12.14-15.7C269.93,134.76,269.1,130.57,267.63,128.9 M266.17,133.08
		c0.84,9.83,8.58,21.55,19.67,30.34c-0.84-2.51-9-9.84-13.39-17.16C268.26,139.15,267.63,134.76,266.17,133.08 M264.49,137.06
		c1.46,10.46,10.25,23.85,21.97,33.27c-0.84-2.72-10.46-11.3-15.07-19.04C267,143.55,266.17,139.15,264.49,137.06 M292.11,95.84
		c0.63,0.21,1.46,2.51,2.3,4.81c0.84,2.09,2.09,4.39,2.09,5.02C293.16,102.95,291.69,98.98,292.11,95.84 M346.73,151.08
		c-2.3-2.3-3.77,0.42-0.63,3.35c2.72,2.51,5.65,1.68,4.81,0.84L346.73,151.08z M329.78,125.13c-0.42,0,0.21,2.51,0.42,3.77
		c0,1.26,0.42,2.09,1.26,3.14c0.84,1.05,1.26,1.26,1.05,0.84c-0.84-2.3-1.67-4.39-1.88-6.28
		C330.62,125.76,330.2,125.34,329.78,125.13 M326.85,121.99c-0.42,0,0.21,2.93,0.21,4.39c0,1.26,0.42,2.51,1.26,3.77
		c0.84,1.05,1.26,1.46,1.05,1.05c-0.84-2.93-1.67-5.23-1.67-7.53C327.48,122.62,327.06,122.2,326.85,121.99 M323.71,118.85
		c-0.42-0.21,0.21,3.14,0.21,4.81c0,1.67,0.21,3.14,1.26,4.6c0.84,1.26,1.26,1.67,1.05,1.05c-0.63-3.14-1.67-5.86-1.67-8.58
		C324.55,119.48,324.34,119.06,323.71,118.85 M320.78,115.72c-0.42-0.42,0,3.56,0,5.44c-0.21,1.88,0.21,3.35,1.05,5.23
		c1.05,1.46,1.46,1.88,1.26,1.26c-0.63-3.77-1.46-6.91-1.46-9.83C321.62,116.34,321.2,115.92,320.78,115.72 M317.85,112.37
		c-0.42-0.21,0,4.19-0.21,6.28c-0.21,2.09,0.21,3.77,1.05,5.65c0.84,1.88,1.46,2.3,1.25,1.67c-0.63-4.19-1.46-7.74-1.25-11.09
		C318.69,113.41,318.27,112.79,317.85,112.37 M314.71,109.23c-0.42-0.42,0,4.39-0.21,6.9c-0.21,2.09,0,4.18,1.05,6.28
		c0.84,2.09,1.26,2.51,1.26,1.88c-0.63-4.6-1.46-8.58-1.26-12.35C315.76,110.28,315.34,109.65,314.71,109.23 M311.99,109.44
		c-0.21-0.42-0.21,3.56-0.42,5.44c-0.21,1.88,0,3.56,0.84,5.23c0.63,1.67,1.05,2.09,1.05,1.46c-0.42-3.76-1.05-6.9-0.84-9.83
		C312.83,110.28,312.41,109.86,311.99,109.44 M309.69,109.44c-0.42-0.21-0.42,2.93-0.63,4.39c-0.21,1.26-0.21,2.51,0.42,3.98
		c0.63,1.46,0.83,1.67,0.83,1.25c-0.21-2.93-0.63-5.44-0.21-7.74C310.32,110.28,309.9,109.86,309.69,109.44"/>
	<path class="st3" d="M93.95,34.11c6.28,7.74,12.14,15.07,18.83,23.86c0,1.46-0.63,2.3-2.3,2.3c-6.91-9.84-12.14-17.79-17.37-25.32
		C92.07,33.48,93.33,33.27,93.95,34.11 M125.55,87.88c0.63,1.67-0.63,2.51-1.88,0.84c-2.72-3.14-2.09-7.12,0.84-10.67
		c3.14-3.77,7.11-3.77,10.67-1.05c2.09,1.67,1.47,1.88-1.05,1.88C127.01,78.89,124.29,82.44,125.55,87.88 M132.87,84.54
		c-2.93-1.05-3.77,0.21-3.14,3.35c41.85,59.01,105.25,145.22,179.96,246.91l-0.42,1.46l6.28,3.56l-2.09-8.37l-1.26,0.84
		C254.66,251.94,187.91,157.36,132.87,84.54"/>
	<path class="st4" d="M234.36,100.02c0-1.46,5.44-5.23,12.56-10.04c3.14-2.51,6.07-3.35,8.79-3.35c0.84,0.21,2.09,0.42,3.77,0.21
		c1.68,1.05,1.05,1.88-0.84,2.3c-0.84-0.63-1.67-0.84-2.51-0.42c-1.88,0.42-2.09,1.67-3.35,2.09l-0.84-1.26
		c-2.51,1.67-4.18,6.28-6.07,8.58l-0.42-2.3c-1.26,0.21-2.09,2.93-3.97,4.39c0.21-1.67-0.21-2.51-0.84-2.51
		C237.5,99.81,235.2,100.86,234.36,100.02z M151.29,209.67c1.88,0,3.56,0.63,3.56,1.26c0,0.84-1.67,1.47-3.56,1.47
		c-2.09,0-3.77-0.63-3.77-1.47C147.52,210.3,149.2,209.67,151.29,209.67 M165.52,206.74c1.26-1.88,2.72-2.72,3.14-2.3
		c0.42,0.63-0.21,2.51-1.25,4.18c-1.26,1.88-2.72,2.93-3.14,2.3C163.84,210.51,164.47,208.62,165.52,206.74 M160.91,209.25
		c0.84-1.46,1.88-2.3,2.3-1.88c0.42,0.42,0,1.88-0.84,3.35c-1.05,1.46-2.09,2.3-2.51,1.88
		C159.45,212.18,159.87,210.72,160.91,209.25 M156.73,210.09c0.84-1.26,1.67-1.88,1.88-1.67c0.42,0.42,0,1.67-0.63,2.93
		c-0.84,1.05-1.67,1.68-2.09,1.47C155.68,212.39,155.89,211.13,156.73,210.09 M87.05,195.23l-0.84,2.3
		c1.05,0.21,1.88-1.26,2.93-1.88l-0.84,3.77c1.26,0.21,4.18-2.93,6.28-4.39l-1.46,3.77c1.88,0,3.14-2.72,4.6-4.18l-0.84,3.98
		c2.3-0.21,3.77-3.14,5.65-4.81l-0.42,3.77c1.67-0.21,2.93-2.51,4.6-3.98l0.84,2.72c1.47,0.21,2.3-1.88,3.56-2.72l0.63,2.51
		l3.14-3.14l0.63,2.72l3.56-1.26l1.05,1.46l2.93-1.46l-0.21,3.14l3.98-1.67l0.42,2.09l2.93-1.67V199l3.35-0.84l0.21,2.51l5.02-2.09
		l-1.67,3.77l4.39-2.72l-0.63,2.93l4.81-2.09l-2.72,4.39c3.14,0.21,4.19-2.09,6.28-3.14l-1.47,3.98c3.14-0.63,5.86-3.14,8.58-6.49
		c0.63,1.05,0.21,2.72-2.09,6.28c3.35-1.46,5.02-3.77,6.28-6.28l-1.05,4.39c2.09-0.21,4.18-1.88,6.07-4.81l-0.21,4.18
		c1.68-1.26,2.93-2.93,3.77-5.02c2.09,0.84,4.4-0.42,5.23-3.77c1.26-3.14,0.42-4.19-2.3-3.14c-9,6.28-20.93,7.95-38.5,2.72
		c-11.3-3.14-23.02-3.56-34.74-3.98C93.54,189.58,89.14,190.42,87.05,195.23 M113.62,150.24c0.84-1.46,2.51-2.72,4.6-3.98l0.42,1.88
		l5.02-1.67l0.42,1.67l5.44-2.93c-3.14,3.98-3.77,5.65-2.72,5.65c0.84,0,4.81-4.6,6.07-3.35c-2.72,4.18-0.21,2.93,4.4-0.84
		c1.26,0.42-1.67,3.35-1.26,3.77c0.42,0.42,2.09-0.84,5.44-3.14c0.84-0.63,2.72-2.72,3.14-1.67c0.21,1.26-1.05,1.88-1.67,2.72
		c-3.35,3.98-2.51,3.35,3.35-0.42c0.84-0.42,2.09-1.46,2.93-1.05c-3.98,5.23-2.3,4.18,3.56,0.63c0.84-0.42,1.88-1.88,2.93-0.84
		c-7.32,6.49-6.07,7.32,3.35,2.72c-4.39,5.02-3.35,5.23,3.56,0.84c0.63-0.21,1.46,0,2.3-0.42c-3.14,3.14-3.56,5.44-2.09,4.6
		c2.3-1.05,5.23-2.3,6.7-1.88c-2.93,2.93-2.72,4.18,1.05,3.56c1.26,0.42,0,1.88-3.77,4.39c-0.63,1.05-1.26,0-1.88-2.51
		c-0.42,1.46-1.05,1.46-1.67,0.63l-0.84,5.44l-1.26-0.21v-3.14c-0.63-0.84-1.26-0.84-1.88,0l-1.05,4.19l-1.88-1.05
		c-0.63,1.46-1.46,2.93-2.93,3.98c-1.26-1.67-2.09-1.26-2.51,0.21c-0.84,0.21-1.26-0.42-2.09-0.21c-0.63,1.88-1.26,2.3-2.3,1.05
		c-1.67,1.05-3.14,2.09-4.81,3.77l-0.84-2.09c-1.46,2.09-2.72,3.35-3.56,2.93L135.8,172l-2.3,3.77l-3.77,1.05
		c0,1.05,1.46,1.05,3.98,0.63c3.35-0.42,9.83-1.88,14.02-3.14c4.19-1.26,8.79-1.88,13.81-3.98c3.98-1.88,8.58-5.23,13.18-7.53
		c1.05,0.84,0.21,2.93-8.58,9.83l-4.19-1.26l2.3,3.14c-1.05,1.05-1.88,1.46-2.93,1.26l-3.77-1.88l1.26,3.98
		c-2.72,0-3.98-3.35-6.49-1.88l1.05,3.14l-5.65-1.67l1.05,3.77l-4.81-2.09l-1.05,2.09c-1.47,0-2.3,0.42-2.51,1.05
		c11.09,1.88,23.23-2.09,35.78-8.16c0.63-0.21,0.84,0.21,0.84,1.25c-1.05,5.02-4.6,9.42-10.25,13.39l1.67-6.7
		c-3.77,1.67-7.95,9.83-11.09,10.88l3.35-8.79l-9.83,8.16c-0.84-1.05,0.42-3.35,2.51-6.28c-2.93,0-7.95,6.9-8.79,6.49
		c-2.09-1.05,1.68-3.14,2.51-4.6c-2.72-0.21-4.6,2.3-6.91,3.56c-0.21-1.26,1.25-2.72,3.77-5.02l-8.16,3.77
		c0-1.47,3.14-2.72,3.77-4.81c-3.77,2.51-7.11,4.18-7.95,3.98l2.51-3.98l-7.11,3.77l4.39-4.6l-7.53,3.56l2.09-3.98l-5.44,3.56
		l2.3-4.39c-2.72,2.3-5.23,3.77-6.7,3.77c1.46-1.88,2.51-3.35,2.3-4.39c-2.51,2.09-5.02,3.56-6.07,3.56l1.05-3.56
		c-2.09,2.09-4.39,3.56-6.9,4.39l2.51-4.18c0.42-0.63,0.21-1.46-0.63-0.84l-5.65,4.6c1.25-2.3,1.88-3.77,1.05-4.39l-3.97,2.09
		l0.42-2.3l-4.6,5.02c-0.63-0.21,0.21-1.46,0.84-3.77l-4.81,3.14c2.51-5.02,6.7-8.37,12.35-10.04c6.7-2.09,11.93-2.3,16.11-2.93
		c7.32-1.05,11.93-1.67,17.79-4.39c2.72-1.05,5.86-2.3,9.21-5.02c1.67-1.26,1.05-1.68-0.84-1.46l-7.53,0.42v-3.35l-2.93,3.98
		l-0.63-3.98l-2.51,6.91l-1.05-7.95l-1.88,8.58l-1.05-8.37l-3.14,9.63l-0.84-10.04l-1.88,10.25l-1.88-10.46l-1.25,10.46l-2.09-9.83
		l-0.84,9.42l-2.72-9.63l-0.21,10.04l-3.14-9.63l-0.63,8.58l-2.09-8.37l-0.84,7.53l-1.67-6.91l-1.05,7.53
		c-3.14-5.86-4.39-10.67-2.3-13.39C105.25,150.45,109.44,149.61,113.62,150.24z M137.48,127.43c0.63,0,1.26,0.84,1.67,2.3
		c0.42,1.46,0.42,2.72,0.21,2.72c-0.63,0.21-1.26-0.84-1.67-2.3C137.27,128.9,137.27,127.64,137.48,127.43 M116.13,124.92
		c3.14-4.81,5.65-6.28,7.32-2.51c2.09-6.7,4.39-7.32,7.32-1.47c3.98,0,4.81,6.07,4.19,15.07l-3.77-10.04v6.49
		C128.69,121.36,112.58,127.85,116.13,124.92 M185.61,88.51c4.6,0.42,9.21,2.09,13.6,4.6c0.21,0.63,0.42,1.05-0.42,0.63
		c-1.67-1.26-3.14-1.88-4.39-1.88c0.42,1.88,0.21,2.72-0.63,2.51c-1.68-2.93-3.14-3.35-4.4-2.72c-0.42,0.21-0.63,0.42-1.05,0.21
		c-1.26-2.72-1.88-2.72-2.51-1.67C184.56,89.14,184.56,88.51,185.61,88.51 M161.96,89.77c-1.05,0.63-1.05,1.05-0.21,1.26
		c1.46-1.26,2.93-1.46,4.81,0.42c0-2.72,1.04-2.51,3.35,0.84c-0.84-3.35,0-4.18,3.56,0.84c0-2.72,0.21-3.14,2.51,1.46
		c0.63,0.84,1.26,0.84,1.46,0.42c-1.25-4.81-0.63-4.6,2.09,0.42c0.84,1.05,1.26,1.05,1.26,0.42c-0.21-3.35,1.25-2.72,4.39,1.88
		c0.84,1.05,1.26,1.46,1.46,0.42c-0.63-2.72,0.63-2.51,3.35,0.84c2.09-0.21,5.02,1.46,8.79,4.81c0.42,0.63,0.84,0.84,1.26,0.63
		c-2.09-3.77,0.42-2.3,3.77,0c2.09-1.05,2.3-1.67,1.05-2.09c-7.12-2.51-12.97-5.23-17.16-8.37c-4.81-3.76-6.9-2.72-12.56-6.28
		C170.33,85.58,165.94,86.63,161.96,89.77 M151.71,96.46c-2.51,0.84-2.51,1.88-0.21,2.3c1.05,0.21,1.88,0.21,2.72,0
		c1.47-0.21,2.09,0,2.72,1.26c1.04,2.09,2.3,2.93,3.35,2.3c0.63-0.63-3.98-3.98-1.67-3.98h1.25c3.56,3.35,6.91,5.23,6.7,4.6
		l-1.46-3.77c-0.42-1.26,1.46-0.63,2.3,0.21l4.81,4.18c0.63,0.84,0-0.63-0.84-3.35c-0.42-0.84,0.84-0.84,1.67,0
		c2.93,2.93,6.49,7.95,6.49,6.07v-1.88c0-0.84,1.05-0.84,1.67,0c1.67,2.09,3.98,3.98,3.77,3.14l-0.42-1.67
		c-0.21-1.05,0.63-1.05,1.88,0l5.02,4.18c1.05,0.84,1.88,0.42,1.46-0.21l-0.84-1.26c-0.63-1.05-0.21-1.26,1.05-0.42l4.39,3.14
		c0.84,0.63,0.84-0.21-0.42-2.09h2.51c0.42,1.46,1.46,1.88,3.98,2.93c0.63,0.42,0.84-0.42,2.09-0.84l6.07-1.88
		c1.88-0.63,1.67-1.88,0-1.46c-8.79,2.3-17.99-2.09-27.83-7.53C170.96,93.53,160.49,93.53,151.71,96.46z M237.92,101.28
		c0.42,0.42,0,1.05-0.63,1.88c-0.63,0.63-1.46,0.84-1.88,0.63c-0.21-0.42,0-1.26,0.63-1.88
		C236.87,101.28,237.5,101.07,237.92,101.28 M244.61,102.95c-1.46-1.05-2.09,1.47,0.42,0.63l3.56-3.14
		c1.67-2.93,0.63,0.84,1.67,0.63c1.26-0.42,3.14-4.18,2.72-5.65l2.93-1.46c1.67-1.46,1.25-2.09-1.05-1.88
		c-2.72,2.09-5.44,4.39-7.74,7.53L244.61,102.95z"/>
</g>
</svg>
