<svg id="Layer_1" data-name="Layer 1" xmlns="http://www.w3.org/2000/svg" xmlns:xlink="http://www.w3.org/1999/xlink" viewBox="0 0 47.1 64.1"><defs><style>.cls-1{fill:none;}.cls-2{clip-path:url(#clip-path);}.cls-3{fill:#fddf03;}</style><clipPath id="clip-path" transform="translate(0 0)"><rect class="cls-1" width="47.1" height="64.1"/></clipPath></defs><g class="cls-2"><path class="cls-3" d="M26.6,18.5a1,1,0,0,0-1.4,0,2.23,2.23,0,0,1-3.2,0,1,1,0,0,0-1.4,1.4,4.35,4.35,0,0,0,6,0,1,1,0,0,0,0-1.4m.2-2.6h1.8a1,1,0,0,0,0-2H26.8a.94.94,0,0,0-1,1,1,1,0,0,0,1,1m-5.4-1a.94.94,0,0,0-1-1H18.6a1,1,0,0,0,0,2h1.8a1.08,1.08,0,0,0,1-1" transform="translate(0 0)"/><path class="cls-3" d="M45.4,37.1a16,16,0,0,0-2.7-1.2V29.1a2.06,2.06,0,0,0-1-1.7,2,2,0,0,0-2-.1l-2,1a6.06,6.06,0,0,0-4.8-2.5H29.6L28.4,24A12.92,12.92,0,0,0,33,18.4c2.8-.5,3.6-5.5,1.3-7.2C34,4.5,29.8,0,23.6,0S13.2,4.5,12.9,11.2c-2.3,1.7-1.5,6.7,1.3,7.2A12.37,12.37,0,0,0,18.8,24l-1.3,1.9H14.2a5.79,5.79,0,0,0-4.8,2.5l-2-1a2.09,2.09,0,0,0-3,1.8V36c-.9.3-1.8.8-2.7,1.2A3,3,0,0,0,0,39.9v5.9a3.06,3.06,0,0,0,1.7,2.7c.8.4,1.7.8,2.6,1.2h.1v3.6a2,2,0,0,0,1.1,1.8l17.6,9a1.09,1.09,0,0,1,.5-.1.6.6,0,0,0,.4-.1l17.6-9a1.89,1.89,0,0,0,1.1-1.8V49.5c.9-.3,1.8-.8,2.7-1.2a3,3,0,0,0,1.7-2.7V39.7a2.81,2.81,0,0,0-1.7-2.6M23.6,2a8.11,8.11,0,0,1,8.1,5.8L31.1,7a1,1,0,0,0-1.3-.3,10.67,10.67,0,0,1-12.3,0,.89.89,0,0,0-1.3.3l-.6.8a7.91,7.91,0,0,1,8-5.8M15.9,17a1.07,1.07,0,0,0-.9-.7h-.3c-.3,0-.9-.6-1-1.7s.3-1.8.6-1.9a1,1,0,0,0,.6-.5l2.4-3.4a12.28,12.28,0,0,0,12.8,0l2.4,3.4a1,1,0,0,0,.6.5c.3.1.7.8.6,1.9s-.7,1.7-1,1.7a1.14,1.14,0,0,0-1.2.6c-1.5,4-4.5,6.4-7.7,6.4S17.4,21,15.9,17m7.7,8.5a10.47,10.47,0,0,0,3-.5l1.5,2.2a6.22,6.22,0,0,1-4.5,4.1,6,6,0,0,1-4.5-4.1L20.6,25a10.47,10.47,0,0,0,3,.5m-9.4,2.4h3a8.45,8.45,0,0,0,6,5.4h.5a8.25,8.25,0,0,0,6.1-5.4h3a3.75,3.75,0,0,1,3,1.4L23.6,35.6,11.2,29.3a3.75,3.75,0,0,1,3-1.4M2.7,46.5a1.15,1.15,0,0,1-.6-.9V39.7a1,1,0,0,1,.6-.9,13.31,13.31,0,0,1,5-1.7h.1A1.16,1.16,0,0,1,9,38.3a1.22,1.22,0,0,1-1.2,1.2H7.6L5.2,40a1,1,0,0,0-.8,1.2,1,1,0,0,0,1,.8h.2l2.2-.5A1.13,1.13,0,0,1,9,42.6a1.29,1.29,0,0,1-1.2,1.2l-2.2-.4a1,1,0,1,0-.4,2l2.4.5h.2a1,1,0,0,1,.9.4,1.14,1.14,0,0,1,.3.8c0,.6-.7,1.1-1.4,1.1v1l-.1-1A6.08,6.08,0,0,1,5,47.6a11.26,11.26,0,0,1-2.3-1.1m3.8,3.6a4.1,4.1,0,0,0,1.1.1h.1a3.3,3.3,0,0,0,3.4-3,2.74,2.74,0,0,0-.8-2.3,3.37,3.37,0,0,0,.9-2.2,3.1,3.1,0,0,0-.9-2.2,3.37,3.37,0,0,0,.9-2.2,3.27,3.27,0,0,0-3.1-3.2H8a5.28,5.28,0,0,0-1.3.1V28.9l15.9,8.4v24L6.5,53.1Zm34.2,3L24.6,61.4v-24l13.2-6.8,2.9-1.5v6.3a5.7,5.7,0,0,0-1.3-.1h-.1a3.27,3.27,0,0,0-3.1,3.2,3.1,3.1,0,0,0,.9,2.2,3.37,3.37,0,0,0-.9,2.2,3.1,3.1,0,0,0,.9,2.2,2.86,2.86,0,0,0-.8,2.3,3.3,3.3,0,0,0,3.4,3h.1c2-.3.2-.2.9,2.7m4.4-7.4a1,1,0,0,1-.6.9,12.47,12.47,0,0,1-4.9,1.7h-.1a1.41,1.41,0,0,1-1.4-1.1,1.14,1.14,0,0,1,.3-.8,1.09,1.09,0,0,1,.9-.4,18.35,18.35,0,0,0,2.6-.5,1,1,0,0,0,.8-1.2c-.3-1.5-2.3-.4-3.4-.3a1.16,1.16,0,0,1-1.2-1.2,1.13,1.13,0,0,1,1.2-1.1c1,.1,3.1,1.2,3.4-.3a1,1,0,0,0-.8-1.2l-2.3-.6h-.2a1.16,1.16,0,0,1-1.2-1.2,1.22,1.22,0,0,1,1.2-1.2h.1a11.47,11.47,0,0,1,5,1.7,1.15,1.15,0,0,1,.6.9Z" transform="translate(0 0)"/></g></svg>