<?xml version="1.0" encoding="utf-8"?>
<!-- Generator: Adobe Illustrator 24.1.2, SVG Export Plug-In . SVG Version: 6.00 Build 0)  -->
<svg version="1.1" id="Layer_1" xmlns="http://www.w3.org/2000/svg" xmlns:xlink="http://www.w3.org/1999/xlink" x="0px" y="0px"
	 viewBox="0 0 34 46" style="enable-background:new 0 0 34 46;" xml:space="preserve">
<style type="text/css">
	.st0{clip-path:url(#SVGID_2_);fill-rule:evenodd;clip-rule:evenodd;fill:#FDDF03;}
</style>
<g>
	<defs>
		<rect id="SVGID_1_" width="34" height="46"/>
	</defs>
	<clipPath id="SVGID_2_">
		<use xlink:href="#SVGID_1_"  style="overflow:visible;"/>
	</clipPath>
	<path class="st0" d="M30,46H4c-2.21,0-4-1.79-4-4V4c0-2.21,1.79-4,4-4h18.97h0.01H23c0.32,0,0.59,0.16,0.78,0.4l9.83,9.83
		C33.84,10.41,34,10.68,34,11v0.02v0.01V42C34,44.21,32.21,46,30,46 M24,3.38V10h6.62L24,3.38z M32,12h-9c-0.55,0-1-0.45-1-1V2H4
		C2.9,2,2,2.9,2,4v38c0,1.1,0.9,2,2,2h26c1.1,0,2-0.9,2-2V12z M26,38H8c-0.55,0-1-0.45-1-1c0-0.55,0.45-1,1-1h18c0.55,0,1,0.45,1,1
		C27,37.55,26.55,38,26,38 M26,30H8c-0.55,0-1-0.45-1-1c0-0.55,0.45-1,1-1h18c0.55,0,1,0.45,1,1C27,29.55,26.55,30,26,30 M26,22H8
		c-0.55,0-1-0.45-1-1c0-0.55,0.45-1,1-1h18c0.55,0,1,0.45,1,1C27,21.55,26.55,22,26,22"/>
</g>
</svg>
