<?xml version="1.0" encoding="utf-8"?>
<!-- Generator: Adobe Illustrator 24.1.2, SVG Export Plug-In . SVG Version: 6.00 Build 0)  -->
<svg version="1.1" id="Layer_1" xmlns="http://www.w3.org/2000/svg" xmlns:xlink="http://www.w3.org/1999/xlink" x="0px" y="0px"
	 viewBox="0 0 32 31.5" style="enable-background:new 0 0 32 31.5;" xml:space="preserve">
<style type="text/css">
	.st0{clip-path:url(#SVGID_2_);fill:#FDDF03;}
</style>
<g>
	<defs>
		<rect id="SVGID_1_" y="0" width="32" height="31.5"/>
	</defs>
	<clipPath id="SVGID_2_">
		<use xlink:href="#SVGID_1_"  style="overflow:visible;"/>
	</clipPath>
	<path class="st0" d="M28.5,10.45h-1v-1c0-0.02-0.01-0.03-0.01-0.05c1.91-1.08,2.58-3.51,1.49-5.41c-0.64-1.13-1.8-1.88-3.09-2
		c-0.05-0.02-0.1-0.03-0.15-0.03h-0.01c-0.01,0-0.03,0-0.04,0.01c-0.06,0-0.12-0.02-0.19-0.02c-2.2-0.01-3.99,1.77-4,3.98
		c0,1.43,0.76,2.76,2.01,3.47c-0.01,0.02-0.01,0.03-0.01,0.05v1h-1c-0.12,0-0.24,0.02-0.35,0.03c-0.65-1.05-1.8-1.7-3.04-1.7h-1.05
		V7.74c0-0.02-0.01-0.04-0.01-0.06c1.97-1.11,2.66-3.61,1.55-5.57c-0.66-1.17-1.86-1.94-3.2-2.06c-0.05-0.02-0.1-0.03-0.14-0.03
		h-0.01c-0.02,0-0.03,0.01-0.04,0.01C16.13,0.02,16.07,0,16,0c-2.26-0.02-4.11,1.8-4.13,4.07c-0.01,1.5,0.79,2.88,2.09,3.61
		c0,0.02-0.01,0.04-0.01,0.06v1.05H12.9c-1.24,0-2.39,0.65-3.04,1.7c-0.12-0.02-0.24-0.04-0.36-0.04h-1v-1
		c0-0.02-0.01-0.03-0.01-0.05c1.91-1.08,2.58-3.51,1.49-5.41c-0.64-1.13-1.8-1.88-3.09-2c-0.05-0.02-0.1-0.03-0.15-0.03H6.73
		c-0.01,0-0.03,0-0.04,0.01c-0.06,0-0.12-0.02-0.19-0.02c-2.2-0.01-3.99,1.77-4,3.98c0,1.43,0.76,2.76,2.01,3.47
		c0,0.02-0.01,0.03-0.01,0.05v1h-1c-1.93,0-3.5,1.57-3.5,3.5v7c0,1.38,1.12,2.5,2.5,2.5H3v6.5c0,0.83,0.67,1.5,1.5,1.5h4
		c0.83,0,1.5-0.67,1.5-1.5v-8.57c0.48,0.52,1.16,0.81,1.86,0.81h0.54v7.77c0,0.85,0.69,1.53,1.53,1.53h4.14
		c0.84,0,1.53-0.69,1.53-1.53V22.2h0.53c0.71,0,1.38-0.29,1.87-0.81v8.57c0,0.83,0.67,1.5,1.5,1.5h4c0.83,0,1.5-0.67,1.5-1.5v-6.5
		h0.5c1.38,0,2.5-1.12,2.5-2.5v-7C32,12.02,30.43,10.45,28.5,10.45 M6.5,2.95c1.45,0,2.69,1.04,2.95,2.47L6.77,4.66
		c-0.53-0.15-1.1-0.12-1.62,0.09l-1.6,0.65C3.83,3.98,5.06,2.95,6.5,2.95 M3.55,6.44c0.05,0,0.09-0.01,0.14-0.03l1.84-0.74
		C5.84,5.55,6.18,5.53,6.5,5.62l2.86,0.81c0.03,0.01,0.06,0.01,0.09,0.01c-0.27,1.63-1.8,2.74-3.43,2.47
		C4.75,8.7,3.75,7.71,3.55,6.44L3.55,6.44z M7.5,9.81v1.64c0,0.55-0.45,1-1,1s-1-0.45-1-1V9.81c0.33,0.09,0.66,0.14,1,0.14
		C6.84,9.95,7.17,9.9,7.5,9.81 M3,22.45H2.5c-0.83,0-1.5-0.67-1.5-1.5v-0.5h2V22.45z M9,29.95c0,0.28-0.22,0.5-0.5,0.5H7v-6.5
		c0-0.28-0.22-0.5-0.5-0.5S6,23.68,6,23.95v6.5H4.5c-0.28,0-0.5-0.22-0.5-0.5v-8.5h5V29.95z M4,20.45v-5.5c0-0.28-0.22-0.5-0.5-0.5
		S3,14.68,3,14.95v4.5H1v-5.5c0-1.38,1.12-2.5,2.5-2.5h1c0,1.1,0.9,2,2,2s2-0.9,2-2h0.94c-0.09,0.31-0.14,0.62-0.14,0.94v7.24
		c0,0.28,0.05,0.56,0.15,0.82H4z M16,1c1.51,0,2.81,1.1,3.06,2.59L16.28,2.8c-0.55-0.16-1.13-0.12-1.66,0.09l-1.68,0.68
		C13.21,2.08,14.5,1,16,1 M12.93,4.61c0.05,0,0.1-0.01,0.15-0.03l1.91-0.77c0.32-0.13,0.68-0.15,1.01-0.06l2.96,0.84
		c0.03,0.01,0.07,0.01,0.1,0.01C18.8,6.3,17.21,7.46,15.52,7.2C14.18,6.99,13.13,5.94,12.93,4.61L12.93,4.61z M17.05,8.09v1.72
		c0.03,0.58-0.42,1.07-1,1.1c-0.58,0.02-1.07-0.42-1.1-1c0-0.03,0-0.06,0-0.09V8.09C15.64,8.29,16.37,8.29,17.05,8.09 M12.4,21.2
		h-0.53c-0.86,0-1.56-0.7-1.57-1.57v-0.5h2.1V21.2z M18.6,29.97c0,0.3-0.24,0.53-0.53,0.53H16.5v-7.77c0-0.28-0.22-0.5-0.5-0.5
		c-0.28,0-0.5,0.22-0.5,0.5v7.77h-1.57c-0.3,0-0.53-0.24-0.53-0.53v-9.84h5.2L18.6,29.97z M21.7,19.63c0,0.87-0.7,1.57-1.57,1.57
		H19.6v-2.07h2.1V19.63z M21.7,18.13h-2.1v-4.7c0-0.28-0.22-0.5-0.5-0.5c-0.28,0-0.5,0.22-0.5,0.5v5.7h-5.2v-5.7
		c0-0.28-0.22-0.5-0.5-0.5c-0.28,0-0.5,0.22-0.5,0.5v4.7h-2.1v-5.74c0-1.44,1.16-2.6,2.6-2.6h1.05v0.02
		c-0.03,1.13,0.85,2.08,1.99,2.11c1.13,0.03,2.08-0.85,2.11-1.99c0-0.04,0-0.08,0-0.13V9.79h1.05c1.44,0,2.6,1.16,2.6,2.6V18.13z
		 M25.5,2.95c1.45,0,2.69,1.04,2.95,2.47l-2.67-0.76c-0.53-0.15-1.1-0.12-1.62,0.09l-1.6,0.65C22.83,3.98,24.06,2.95,25.5,2.95
		 M22.55,6.44c0.05,0,0.09-0.01,0.14-0.03l1.84-0.74c0.31-0.12,0.65-0.14,0.97-0.05l2.86,0.81c0.03,0,0.06,0.01,0.09,0.01
		c-0.27,1.63-1.8,2.74-3.43,2.47C23.75,8.7,22.76,7.71,22.55,6.44L22.55,6.44z M26.5,9.81v1.64c0,0.55-0.45,1-1,1s-1-0.45-1-1V9.81
		C25.15,10,25.85,10,26.5,9.81 M28,29.95c0,0.28-0.22,0.5-0.5,0.5H26v-6.5c0-0.28-0.22-0.5-0.5-0.5c-0.28,0-0.5,0.22-0.5,0.5v6.5
		h-1.5c-0.28,0-0.5-0.22-0.5-0.5v-8.5h5V29.95z M31,20.95c0,0.83-0.67,1.5-1.5,1.5H29v-2h2V20.95z M31,19.45h-2v-4.5
		c0-0.28-0.22-0.5-0.5-0.5c-0.28,0-0.5,0.22-0.5,0.5v5.5h-5.44c0.09-0.26,0.14-0.54,0.15-0.82v-7.24c0-0.32-0.05-0.63-0.14-0.94
		h0.94c0,1.1,0.89,2,2,2c1.1,0,2-0.9,2-2h1c1.38,0,2.5,1.12,2.5,2.5V19.45z"/>
</g>
</svg>
