<?xml version="1.0" encoding="utf-8"?>
<!-- Generator: Adobe Illustrator 24.1.2, SVG Export Plug-In . SVG Version: 6.00 Build 0)  -->
<svg version="1.1" id="Layer_1" xmlns="http://www.w3.org/2000/svg" xmlns:xlink="http://www.w3.org/1999/xlink" x="0px" y="0px"
	 viewBox="0 0 24 31.99" style="enable-background:new 0 0 24 31.99;" xml:space="preserve">
<style type="text/css">
	.st0{clip-path:url(#SVGID_2_);fill:#FDDF03;}
</style>
<g>
	<defs>
		<rect id="SVGID_1_" y="0" width="24" height="31.99"/>
	</defs>
	<clipPath id="SVGID_2_">
		<use xlink:href="#SVGID_1_"  style="overflow:visible;"/>
	</clipPath>
	<path class="st0" d="M0.5,31.99c0.28,0,0.5-0.22,0.5-0.5v-5.52c0-1.09,0.58-2.12,1.52-2.69l3.91-2.35l2.15,2.68
		c0.09,0.11,0.22,0.18,0.36,0.19l0.03,0c0.13,0,0.26-0.05,0.35-0.15l1.17-1.17v9c0,0.28,0.22,0.5,0.5,0.5s0.5-0.22,0.5-0.5v-10
		l0-0.01l0.5-0.5l0.5,0.5l0,0.01v10c0,0.28,0.22,0.5,0.5,0.5s0.5-0.22,0.5-0.5v-9l1.17,1.17c0.09,0.09,0.22,0.15,0.35,0.15l0.03,0
		c0.14-0.01,0.27-0.08,0.36-0.19l2.15-2.68l3.91,2.35c0.94,0.57,1.52,1.59,1.52,2.69v5.52c0,0.28,0.22,0.5,0.5,0.5
		c0.28,0,0.5-0.22,0.5-0.5v-5.52c0-1.44-0.77-2.8-2.01-3.54l-4.23-2.53l-1.58-1.76c-0.14-0.14-0.34-0.19-0.53-0.12v-1.77
		c1.59-1.16,2.52-3.01,2.53-4.98V8.9l0.78-4.34c0.15-0.8-0.03-1.62-0.5-2.28c-0.47-0.67-1.18-1.11-1.98-1.25l-5.96-0.99
		C9.66-0.1,8.78,0.14,8.11,0.71C7.54,1.18,7.18,1.85,7.09,2.59C6.5,2.7,5.96,3.01,5.58,3.49c-0.48,0.6-0.67,1.38-0.51,2.13L5.8,9.06
		c0,0.01,0.01,0.01,0.01,0.02v2.18c0,2.04,1,3.85,2.53,4.98v1.77c-0.18-0.07-0.39-0.02-0.52,0.13l-1.58,1.76l-4.23,2.54
		C0.76,23.18,0,24.52,0,25.97v5.52C0,31.77,0.22,31.99,0.5,31.99 M16.79,20.3l-1.81,2.26l-2.13-2.13l2.84-1.35L16.79,20.3z
		 M6.36,4.12c0.29-0.36,0.73-0.57,1.2-0.57c0.28,0,0.5-0.29,0.5-0.57C8.05,1.89,8.93,1,10.02,1c0,0,0.01,0,0.01,0
		c0.11,0,0.22,0.01,0.33,0.03l5.96,0.99c0.54,0.09,1.01,0.39,1.32,0.83c0.32,0.45,0.44,0.99,0.34,1.53l-0.62,3.47l-1.07-1.21V5.57
		c0-0.28-0.22-0.5-0.5-0.5H8.21c-0.28,0-0.5,0.22-0.5,0.5v1.07L6.58,7.9L6.05,5.41C5.95,4.95,6.06,4.48,6.36,4.12 M6.81,11.26V9.13
		l1.77-1.96c0.08-0.09,0.13-0.21,0.13-0.33V6.07h6.58v0.76c0,0.12,0.04,0.24,0.13,0.33l1.77,2v2.09c0,1.72-0.86,3.33-2.29,4.3l0,0
		c-0.24,0.16-0.5,0.3-0.77,0.42c-0.12,0.06-0.25,0.1-0.38,0.14c-0.3,0.11-0.61,0.19-0.93,0.24c-0.09,0.02-0.19,0.02-0.28,0.03
		c-0.36,0.04-0.72,0.04-1.07,0c-0.09-0.01-0.19-0.01-0.28-0.03c-0.32-0.05-0.63-0.13-0.93-0.24c-0.13-0.05-0.26-0.09-0.38-0.14
		c-0.27-0.12-0.53-0.26-0.77-0.42l-0.01,0C7.67,14.59,6.81,12.98,6.81,11.26 M9.85,17.05c0.06,0.02,0.12,0.05,0.18,0.06
		c0.63,0.22,1.3,0.33,1.97,0.33c0.67,0,1.33-0.11,1.97-0.33c0.06-0.02,0.12-0.04,0.18-0.06c0.14-0.05,0.27-0.1,0.41-0.17
		c0.04-0.02,0.07-0.03,0.11-0.05v1.62L12,19.73l-2.66-1.27v-1.62c0.03,0.02,0.07,0.03,0.11,0.04C9.58,16.95,9.72,17,9.85,17.05
		 M8.31,19.08l2.84,1.35l-2.13,2.13L7.21,20.3L8.31,19.08"/>
	<path class="st0" d="M5.5,31.99c0.28,0,0.5-0.22,0.5-0.5v-2.34c0-1.03-0.38-2.03-1.08-2.79l-0.76-0.83
		c-0.19-0.2-0.5-0.22-0.71-0.03c-0.2,0.19-0.22,0.5-0.03,0.71l0.76,0.83C4.71,27.62,5,28.37,5,29.15v2.34
		C5,31.77,5.22,31.99,5.5,31.99 M19.84,25.54l-0.76,0.83c-0.7,0.76-1.08,1.75-1.08,2.78v2.34c0,0.28,0.22,0.5,0.5,0.5
		c0.28,0,0.5-0.22,0.5-0.5v-2.34c0-0.78,0.29-1.53,0.82-2.11l0.76-0.83c0.19-0.2,0.17-0.52-0.03-0.71
		C20.34,25.32,20.02,25.33,19.84,25.54"/>
</g>
</svg>
