<?xml version="1.0" encoding="utf-8"?>
<!-- Generator: Adobe Illustrator 24.1.2, SVG Export Plug-In . SVG Version: 6.00 Build 0)  -->
<svg version="1.1" id="Layer_1" xmlns="http://www.w3.org/2000/svg" xmlns:xlink="http://www.w3.org/1999/xlink" x="0px" y="0px"
	 viewBox="0 0 20 28" style="enable-background:new 0 0 20 28;" xml:space="preserve">
<style type="text/css">
	.st0{clip-path:url(#SVGID_2_);fill:#FDDF03;}
</style>
<g>
	<defs>
		<rect id="SVGID_1_" y="0" width="20" height="28"/>
	</defs>
	<clipPath id="SVGID_2_">
		<use xlink:href="#SVGID_1_"  style="overflow:visible;"/>
	</clipPath>
	<path class="st0" d="M10.1,0L10.1,0C9.53-0.02,8.97,0.15,8.5,0.5h0C7.71,1.09,7.37,2.07,7.56,3H5.5C5.22,3,5,3.23,5.01,3.51L5,3.49
		V4H0.5V4L0,4v23.5C0,27.77,0.22,28,0.5,28h19c0.28,0,0.5-0.22,0.5-0.5V4.01l-0.5,0v0H15V3.49L14.99,3.5c0-0.28-0.22-0.5-0.49-0.5
		h-2.06c0.17-0.86-0.11-1.77-0.79-2.38C11.21,0.23,10.66,0.02,10.1,0 M10.06,1c0.34,0.01,0.66,0.14,0.93,0.37
		c0.54,0.47,0.66,1.25,0.31,1.87c-0.13,0.22-0.07,0.5,0.14,0.65l0,0c0.01,0,0.01,0.01,0.02,0.01c0.01,0.01,0.03,0.02,0.04,0.03
		l0.01,0C11.58,3.98,11.66,4,11.75,4H14v0.42c-0.01,0.05-0.01,0.11,0,0.16v1.84c-0.01,0.05-0.01,0.11,0,0.16V7H6V6.58
		c0.01-0.05,0.01-0.11,0-0.16V4.58c0.01-0.05,0.01-0.11,0-0.16V4h2.25C8.64,4,8.89,3.57,8.68,3.24C8.67,3.2,8.66,3.17,8.64,3.14
		C8.34,2.5,8.53,1.73,9.1,1.3C9.38,1.09,9.72,0.99,10.06,1 M1,5h4v1H2.5C2.22,6,2,6.22,2,6.5v19C2,25.77,2.22,26,2.5,26h11.91
		c0.19,0.03,0.38-0.04,0.49-0.19l2.91-2.91c0.15-0.11,0.22-0.3,0.19-0.48V6.5C18,6.22,17.78,6,17.5,6H15V5h4v22H1V5z M3,7h2v0.5
		C5,7.71,5.14,7.9,5.35,7.97c0.01,0,0.03,0.01,0.05,0.01H5.4c0.01,0,0.02,0,0.02,0c0.02,0,0.04,0.01,0.07,0.01H5.5h9
		c0.28,0,0.5-0.22,0.5-0.5V7h2v15h-2.5c-0.28,0-0.5,0.22-0.5,0.5V25H3V7z M7.51,10c-0.13,0-0.25,0.06-0.34,0.15l-1.66,1.65
		l-0.65-0.65c-0.47-0.49-1.2,0.24-0.7,0.71l1,1c0.19,0.19,0.51,0.19,0.7,0l2.01-2C8.2,10.54,7.97,9.99,7.51,10 M9.46,10
		c-0.67,0.03-0.62,1.03,0.05,1h3c0.68,0.01,0.68-1.01,0-1h-3C9.49,10,9.47,10,9.46,10 M9.47,12c-0.67,0.03-0.62,1.03,0.05,1h5.96
		c0.68,0.01,0.68-1.01,0-1H9.52C9.5,12,9.49,12,9.47,12 M7.51,15c-0.13,0-0.25,0.06-0.34,0.15l-1.66,1.65l-0.65-0.65
		c-0.47-0.49-1.2,0.24-0.7,0.71l1,1c0.19,0.19,0.51,0.19,0.7,0l2.01-2C8.2,15.54,7.97,14.99,7.51,15 M9.46,15
		c-0.67,0.03-0.62,1.03,0.05,1h3c0.68,0.01,0.68-1.01,0-1h-3C9.49,15,9.47,15,9.46,15 M9.47,17c-0.67,0.03-0.62,1.03,0.05,1h5.96
		c0.68,0.01,0.68-1.01,0-1H9.52C9.5,17,9.49,17,9.47,17 M7.51,20c-0.13,0-0.25,0.06-0.34,0.15l-1.66,1.65l-0.65-0.65
		c-0.47-0.49-1.2,0.24-0.7,0.71l1,1c0.19,0.19,0.51,0.19,0.7,0l2.01-2C8.2,20.54,7.97,19.99,7.51,20 M9.46,20
		c-0.67,0.03-0.62,1.03,0.05,1h3c0.68,0.01,0.68-1.01,0-1h-3C9.49,20,9.47,20,9.46,20 M9.47,22c-0.67,0.03-0.62,1.03,0.05,1h2.96
		c0.68,0.01,0.68-1.01,0-1H9.52C9.5,22,9.49,22,9.47,22 M15,23h1.29L15,24.29V23z"/>
</g>
</svg>
